# Created by FreeCAD <https://www.freecad.org>
v 38.040817 -914.400024 44.560555
v 41.309177 -914.400024 41.309177
v 41.309177 914.400024 41.309177
v 38.040817 914.400024 44.560555
v 34.527115 -914.400024 47.545105
v 34.527115 914.400024 47.545105
v 30.789795 914.400024 50.244381
v 30.789795 -914.400024 50.244381
v 26.752752 -914.400024 52.505234
v 26.752752 914.400024 52.505234
v 22.550770 -914.400024 54.442371
v 22.550770 914.400024 54.442371
v 18.209753 -914.400024 56.043858
v 18.209753 914.400024 56.043858
v 13.756469 -914.400024 57.299816
v 13.756469 914.400024 57.299816
v 9.218370 -914.400024 58.202499
v 9.218370 914.400024 58.202499
v 4.623437 -914.400024 58.746346
v 4.623437 914.400024 58.746346
v 0.000000 -914.400024 58.928001
v 0.000000 914.400024 58.928001
v -4.623437 -914.400024 58.746346
v -4.623437 914.400024 58.746346
v -9.218370 914.400024 58.202499
v -9.218370 -914.400024 58.202499
v -13.756469 -914.400024 57.299816
v -13.756469 914.400024 57.299816
v -18.209753 -914.400024 56.043858
v -18.209753 914.400024 56.043858
v -22.550770 -914.400024 54.442371
v -22.550770 914.400024 54.442371
v -26.752752 -914.400024 52.505234
v -26.752752 914.400024 52.505234
v -30.789795 -914.400024 50.244381
v -30.789795 914.400024 50.244381
v -34.527115 -914.400024 47.545105
v -34.527115 914.400024 47.545105
v -38.040817 -914.400024 44.560555
v -38.040817 914.400024 44.560555
v -41.309177 -914.400024 41.309177
v -41.309177 914.400024 41.309177
v -44.579372 -914.400024 37.756802
v -44.579372 914.400024 37.756802
v -47.545044 -914.400024 33.946507
v -47.545044 914.400024 33.946507
v -50.185932 -914.400024 29.904325
v -50.185932 914.400024 29.904325
v -52.484001 -914.400024 25.657866
v -52.484001 914.400024 25.657866
v -54.423550 -914.400024 21.236135
v -54.423550 914.400024 21.236135
v -55.991333 -914.400024 16.669342
v -55.991333 914.400024 16.669342
v -57.176640 -914.400024 11.988680
v -57.176640 914.400024 11.988680
v -57.971367 914.400024 7.226123
v -57.971367 -914.400024 7.226123
v -58.370094 914.400024 2.414205
v -58.370094 -914.400024 2.414205
v -58.370094 -914.400024 -2.414205
v -58.370094 914.400024 -2.414205
v -57.971367 914.400024 -7.226123
v -57.971367 -914.400024 -7.226123
v -57.176640 -914.400024 -11.988680
v -57.176640 914.400024 -11.988680
v -55.991333 914.400024 -16.669342
v -55.991333 -914.400024 -16.669342
v -54.423550 -914.400024 -21.236135
v -54.423550 914.400024 -21.236135
v -52.484001 -914.400024 -25.657866
v -52.484001 914.400024 -25.657866
v -50.185932 -914.400024 -29.904325
v -50.185932 914.400024 -29.904325
v -47.545044 914.400024 -33.946507
v -47.545044 -914.400024 -33.946507
v -44.579372 914.400024 -37.756802
v -44.579372 -914.400024 -37.756802
v -41.309177 -914.400024 -41.309177
v -41.309177 914.400024 -41.309177
v -38.040817 -914.400024 -44.560555
v -38.040817 914.400024 -44.560555
v -34.527115 -914.400024 -47.545105
v -34.527115 914.400024 -47.545105
v -30.789795 -914.400024 -50.244381
v -30.789795 914.400024 -50.244381
v -26.752752 -914.400024 -52.505234
v -26.752752 914.400024 -52.505234
v -22.550770 -914.400024 -54.442371
v -22.550770 914.400024 -54.442371
v -18.209753 914.400024 -56.043858
v -18.209753 -914.400024 -56.043858
v -13.756469 -914.400024 -57.299816
v -13.756469 914.400024 -57.299816
v -9.218370 -914.400024 -58.202499
v -9.218370 914.400024 -58.202499
v -4.623437 914.400024 -58.746346
v -4.623437 -914.400024 -58.746346
v 0.000000 914.400024 -58.928001
v 0.000000 -914.400024 -58.928001
v 4.623437 -914.400024 -58.746346
v 4.623437 914.400024 -58.746346
v 9.218370 914.400024 -58.202499
v 9.218370 -914.400024 -58.202499
v 13.756469 -914.400024 -57.299816
v 13.756469 914.400024 -57.299816
v 18.209753 914.400024 -56.043858
v 18.209753 -914.400024 -56.043858
v 22.550770 914.400024 -54.442371
v 22.550770 -914.400024 -54.442371
v 26.752752 -914.400024 -52.505234
v 26.752752 914.400024 -52.505234
v 30.789795 -914.400024 -50.244381
v 30.789795 914.400024 -50.244381
v 34.527115 -914.400024 -47.545105
v 34.527115 914.400024 -47.545105
v 38.040817 -914.400024 -44.560555
v 38.040817 914.400024 -44.560555
v 41.309177 -914.400024 -41.309177
v 41.309177 914.400024 -41.309177
v 44.579372 -914.400024 -37.756802
v 44.579372 914.400024 -37.756802
v 47.545044 -914.400024 -33.946507
v 47.545044 914.400024 -33.946507
v 50.185932 -914.400024 -29.904325
v 50.185932 914.400024 -29.904325
v 52.484001 914.400024 -25.657866
v 52.484001 -914.400024 -25.657866
v 54.423550 -914.400024 -21.236135
v 54.423550 914.400024 -21.236135
v 55.991333 914.400024 -16.669342
v 55.991333 -914.400024 -16.669342
v 57.176640 914.400024 -11.988680
v 57.176640 -914.400024 -11.988680
v 57.971367 -914.400024 -7.226123
v 57.971367 914.400024 -7.226123
v 58.370094 -914.400024 -2.414205
v 58.370094 914.400024 -2.414205
v 58.370094 -914.400024 2.414205
v 58.370094 914.400024 2.414205
v 57.971367 -914.400024 7.226123
v 57.971367 914.400024 7.226123
v 57.176640 -914.400024 11.988680
v 57.176640 914.400024 11.988680
v 55.991333 -914.400024 16.669342
v 55.991333 914.400024 16.669342
v 54.423550 914.400024 21.236135
v 54.423550 -914.400024 21.236135
v 52.484001 -914.400024 25.657866
v 52.484001 914.400024 25.657866
v 50.185932 -914.400024 29.904325
v 50.185932 914.400024 29.904325
v 47.545044 914.400024 33.946507
v 47.545044 -914.400024 33.946507
v 44.579372 -914.400024 37.756802
v 44.579372 914.400024 37.756802
v 547.172485 -914.400024 -1.804368
v 547.369995 -914.400024 -5.195442
v 547.369995 914.400024 -5.195442
v 547.172485 914.400024 -1.804368
v 546.582642 -914.400024 1.540847
v 546.582642 914.400024 1.540847
v 545.608398 914.400024 4.794966
v 545.608398 -914.400024 4.794966
v 544.263000 -914.400024 7.913982
v 544.263000 914.400024 7.913982
v 542.564575 914.400024 10.855715
v 542.564575 -914.400024 10.855715
v 540.536133 -914.400024 13.580384
v 540.536133 914.400024 13.580384
v 538.205139 914.400024 16.051142
v 538.205139 -914.400024 16.051142
v 535.603027 -914.400024 18.234577
v 535.603027 914.400024 18.234577
v 532.765015 -914.400024 20.101160
v 532.765015 914.400024 20.101160
v 529.729492 -914.400024 21.625650
v 529.729492 914.400024 21.625650
v 526.537537 914.400024 22.787432
v 526.537537 -914.400024 22.787432
v 523.232239 -914.400024 23.570793
v 523.232239 914.400024 23.570793
v 519.858398 914.400024 23.965139
v 519.858398 -914.400024 23.965139
v 516.461609 -914.400024 23.965139
v 516.461609 914.400024 23.965139
v 513.087708 -914.400024 23.570793
v 513.087708 914.400024 23.570793
v 509.782471 -914.400024 22.787432
v 509.782471 914.400024 22.787432
v 506.590515 -914.400024 21.625650
v 506.590515 914.400024 21.625650
v 503.554993 914.400024 20.101160
v 503.554993 -914.400024 20.101160
v 500.717010 -914.400024 18.234577
v 500.717010 914.400024 18.234577
v 498.114868 -914.400024 16.051142
v 498.114868 914.400024 16.051142
v 495.783844 -914.400024 13.580384
v 495.783844 914.400024 13.580384
v 493.755402 -914.400024 10.855715
v 493.755402 914.400024 10.855715
v 492.056976 -914.400024 7.913982
v 492.056976 914.400024 7.913982
v 490.711578 -914.400024 4.794966
v 490.711578 914.400024 4.794966
v 489.737366 -914.400024 1.540847
v 489.737366 914.400024 1.540847
v 489.147522 -914.400024 -1.804368
v 489.147522 914.400024 -1.804368
v 488.950012 -914.400024 -5.195442
v 488.950012 914.400024 -5.195442
v 489.147522 -914.400024 -8.586516
v 489.147522 914.400024 -8.586516
v 489.737366 -914.400024 -11.931732
v 489.737366 914.400024 -11.931732
v 490.711578 -914.400024 -15.185850
v 490.711578 914.400024 -15.185850
v 492.056976 -914.400024 -18.304867
v 492.056976 914.400024 -18.304867
v 493.755402 -914.400024 -21.246599
v 493.755402 914.400024 -21.246599
v 495.783844 -914.400024 -23.971268
v 495.783844 914.400024 -23.971268
v 498.114868 -914.400024 -26.442026
v 498.114868 914.400024 -26.442026
v 500.717010 -914.400024 -28.625460
v 500.717010 914.400024 -28.625460
v 503.554993 -914.400024 -30.492044
v 503.554993 914.400024 -30.492044
v 506.590515 -914.400024 -32.016533
v 506.590515 914.400024 -32.016533
v 509.782471 -914.400024 -33.178314
v 509.782471 914.400024 -33.178314
v 513.087708 -914.400024 -33.961678
v 513.087708 914.400024 -33.961678
v 516.461609 -914.400024 -34.356022
v 516.461609 914.400024 -34.356022
v 519.858398 -914.400024 -34.356022
v 519.858398 914.400024 -34.356022
v 523.232239 -914.400024 -33.961678
v 523.232239 914.400024 -33.961678
v 526.537537 -914.400024 -33.178314
v 526.537537 914.400024 -33.178314
v 529.729492 -914.400024 -32.016533
v 529.729492 914.400024 -32.016533
v 532.765015 -914.400024 -30.492044
v 532.765015 914.400024 -30.492044
v 535.603027 -914.400024 -28.625460
v 535.603027 914.400024 -28.625460
v 538.205139 -914.400024 -26.442026
v 538.205139 914.400024 -26.442026
v 540.536133 -914.400024 -23.971268
v 540.536133 914.400024 -23.971268
v 542.564575 -914.400024 -21.246599
v 542.564575 914.400024 -21.246599
v 544.263000 -914.400024 -18.304867
v 544.263000 914.400024 -18.304867
v 545.608398 -914.400024 -15.185850
v 545.608398 914.400024 -15.185850
v 546.582642 -914.400024 -11.931732
v 546.582642 914.400024 -11.931732
v 547.172485 -914.400024 -8.586516
v 547.172485 914.400024 -8.586516
v 38.040817 -914.400024 44.560555
v 41.309177 -914.400024 41.309177
v 41.309177 914.400024 41.309177
v 38.040817 914.400024 44.560555
v 34.527115 -914.400024 47.545105
v 34.527115 914.400024 47.545105
v 30.789795 914.400024 50.244381
v 30.789795 -914.400024 50.244381
v 26.752752 -914.400024 52.505234
v 26.752752 914.400024 52.505234
v 22.550770 -914.400024 54.442371
v 22.550770 914.400024 54.442371
v 18.209753 -914.400024 56.043858
v 18.209753 914.400024 56.043858
v 13.756469 -914.400024 57.299816
v 13.756469 914.400024 57.299816
v 9.218370 -914.400024 58.202499
v 9.218370 914.400024 58.202499
v 4.623437 -914.400024 58.746346
v 4.623437 914.400024 58.746346
v 0.000000 -914.400024 58.928001
v 0.000000 914.400024 58.928001
v -4.623437 -914.400024 58.746346
v -4.623437 914.400024 58.746346
v -9.218370 914.400024 58.202499
v -9.218370 -914.400024 58.202499
v -13.756469 -914.400024 57.299816
v -13.756469 914.400024 57.299816
v -18.209753 -914.400024 56.043858
v -18.209753 914.400024 56.043858
v -22.550770 -914.400024 54.442371
v -22.550770 914.400024 54.442371
v -26.752752 -914.400024 52.505234
v -26.752752 914.400024 52.505234
v -30.789795 -914.400024 50.244381
v -30.789795 914.400024 50.244381
v -34.527115 -914.400024 47.545105
v -34.527115 914.400024 47.545105
v -38.040817 -914.400024 44.560555
v -38.040817 914.400024 44.560555
v -41.309177 -914.400024 41.309177
v -41.309177 914.400024 41.309177
v -44.579372 -914.400024 37.756802
v -44.579372 914.400024 37.756802
v -47.545044 -914.400024 33.946507
v -47.545044 914.400024 33.946507
v -50.185932 -914.400024 29.904325
v -50.185932 914.400024 29.904325
v -52.484001 -914.400024 25.657866
v -52.484001 914.400024 25.657866
v -54.423550 -914.400024 21.236135
v -54.423550 914.400024 21.236135
v -55.991333 -914.400024 16.669342
v -55.991333 914.400024 16.669342
v -57.176640 -914.400024 11.988680
v -57.176640 914.400024 11.988680
v -57.971367 914.400024 7.226123
v -57.971367 -914.400024 7.226123
v -58.370094 914.400024 2.414205
v -58.370094 -914.400024 2.414205
v -58.370094 -914.400024 -2.414205
v -58.370094 914.400024 -2.414205
v -57.971367 914.400024 -7.226123
v -57.971367 -914.400024 -7.226123
v -57.176640 -914.400024 -11.988680
v -57.176640 914.400024 -11.988680
v -55.991333 914.400024 -16.669342
v -55.991333 -914.400024 -16.669342
v -54.423550 -914.400024 -21.236135
v -54.423550 914.400024 -21.236135
v -52.484001 -914.400024 -25.657866
v -52.484001 914.400024 -25.657866
v -50.185932 -914.400024 -29.904325
v -50.185932 914.400024 -29.904325
v -47.545044 914.400024 -33.946507
v -47.545044 -914.400024 -33.946507
v -44.579372 914.400024 -37.756802
v -44.579372 -914.400024 -37.756802
v -41.309177 -914.400024 -41.309177
v -41.309177 914.400024 -41.309177
v -38.040817 -914.400024 -44.560555
v -38.040817 914.400024 -44.560555
v -34.527115 -914.400024 -47.545105
v -34.527115 914.400024 -47.545105
v -30.789795 -914.400024 -50.244381
v -30.789795 914.400024 -50.244381
v -26.752752 -914.400024 -52.505234
v -26.752752 914.400024 -52.505234
v -22.550770 -914.400024 -54.442371
v -22.550770 914.400024 -54.442371
v -18.209753 914.400024 -56.043858
v -18.209753 -914.400024 -56.043858
v -13.756469 -914.400024 -57.299816
v -13.756469 914.400024 -57.299816
v -9.218370 -914.400024 -58.202499
v -9.218370 914.400024 -58.202499
v -4.623437 914.400024 -58.746346
v -4.623437 -914.400024 -58.746346
v 0.000000 914.400024 -58.928001
v 0.000000 -914.400024 -58.928001
v 4.623437 -914.400024 -58.746346
v 4.623437 914.400024 -58.746346
v 9.218370 914.400024 -58.202499
v 9.218370 -914.400024 -58.202499
v 13.756469 -914.400024 -57.299816
v 13.756469 914.400024 -57.299816
v 18.209753 914.400024 -56.043858
v 18.209753 -914.400024 -56.043858
v 22.550770 914.400024 -54.442371
v 22.550770 -914.400024 -54.442371
v 26.752752 -914.400024 -52.505234
v 26.752752 914.400024 -52.505234
v 30.789795 -914.400024 -50.244381
v 30.789795 914.400024 -50.244381
v 34.527115 -914.400024 -47.545105
v 34.527115 914.400024 -47.545105
v 38.040817 -914.400024 -44.560555
v 38.040817 914.400024 -44.560555
v 41.309177 -914.400024 -41.309177
v 41.309177 914.400024 -41.309177
v 44.579372 -914.400024 -37.756802
v 44.579372 914.400024 -37.756802
v 47.545044 -914.400024 -33.946507
v 47.545044 914.400024 -33.946507
v 50.185932 -914.400024 -29.904325
v 50.185932 914.400024 -29.904325
v 52.484001 914.400024 -25.657866
v 52.484001 -914.400024 -25.657866
v 54.423550 -914.400024 -21.236135
v 54.423550 914.400024 -21.236135
v 55.991333 914.400024 -16.669342
v 55.991333 -914.400024 -16.669342
v 57.176640 914.400024 -11.988680
v 57.176640 -914.400024 -11.988680
v 57.971367 -914.400024 -7.226123
v 57.971367 914.400024 -7.226123
v 58.370094 -914.400024 -2.414205
v 58.370094 914.400024 -2.414205
v 58.370094 -914.400024 2.414205
v 58.370094 914.400024 2.414205
v 57.971367 -914.400024 7.226123
v 57.971367 914.400024 7.226123
v 57.176640 -914.400024 11.988680
v 57.176640 914.400024 11.988680
v 55.991333 -914.400024 16.669342
v 55.991333 914.400024 16.669342
v 54.423550 914.400024 21.236135
v 54.423550 -914.400024 21.236135
v 52.484001 -914.400024 25.657866
v 52.484001 914.400024 25.657866
v 50.185932 -914.400024 29.904325
v 50.185932 914.400024 29.904325
v 47.545044 914.400024 33.946507
v 47.545044 -914.400024 33.946507
v 44.579372 -914.400024 37.756802
v 44.579372 914.400024 37.756802
v 547.172485 -914.400024 -1.804368
v 547.369995 -914.400024 -5.195442
v 547.369995 914.400024 -5.195442
v 547.172485 914.400024 -1.804368
v 546.582642 -914.400024 1.540847
v 546.582642 914.400024 1.540847
v 545.608398 914.400024 4.794966
v 545.608398 -914.400024 4.794966
v 544.263000 -914.400024 7.913982
v 544.263000 914.400024 7.913982
v 542.564575 914.400024 10.855715
v 542.564575 -914.400024 10.855715
v 540.536133 -914.400024 13.580384
v 540.536133 914.400024 13.580384
v 538.205139 914.400024 16.051142
v 538.205139 -914.400024 16.051142
v 535.603027 -914.400024 18.234577
v 535.603027 914.400024 18.234577
v 532.765015 -914.400024 20.101160
v 532.765015 914.400024 20.101160
v 529.729492 -914.400024 21.625650
v 529.729492 914.400024 21.625650
v 526.537537 914.400024 22.787432
v 526.537537 -914.400024 22.787432
v 523.232239 -914.400024 23.570793
v 523.232239 914.400024 23.570793
v 519.858398 914.400024 23.965139
v 519.858398 -914.400024 23.965139
v 516.461609 -914.400024 23.965139
v 516.461609 914.400024 23.965139
v 513.087708 -914.400024 23.570793
v 513.087708 914.400024 23.570793
v 509.782471 -914.400024 22.787432
v 509.782471 914.400024 22.787432
v 506.590515 -914.400024 21.625650
v 506.590515 914.400024 21.625650
v 503.554993 914.400024 20.101160
v 503.554993 -914.400024 20.101160
v 500.717010 -914.400024 18.234577
v 500.717010 914.400024 18.234577
v 498.114868 -914.400024 16.051142
v 498.114868 914.400024 16.051142
v 495.783844 -914.400024 13.580384
v 495.783844 914.400024 13.580384
v 493.755402 -914.400024 10.855715
v 493.755402 914.400024 10.855715
v 492.056976 -914.400024 7.913982
v 492.056976 914.400024 7.913982
v 490.711578 -914.400024 4.794966
v 490.711578 914.400024 4.794966
v 489.737366 -914.400024 1.540847
v 489.737366 914.400024 1.540847
v 489.147522 -914.400024 -1.804368
v 489.147522 914.400024 -1.804368
v 488.950012 -914.400024 -5.195442
v 488.950012 914.400024 -5.195442
v 489.147522 -914.400024 -8.586516
v 489.147522 914.400024 -8.586516
v 489.737366 -914.400024 -11.931732
v 489.737366 914.400024 -11.931732
v 490.711578 -914.400024 -15.185850
v 490.711578 914.400024 -15.185850
v 492.056976 -914.400024 -18.304867
v 492.056976 914.400024 -18.304867
v 493.755402 -914.400024 -21.246599
v 493.755402 914.400024 -21.246599
v 495.783844 -914.400024 -23.971268
v 495.783844 914.400024 -23.971268
v 498.114868 -914.400024 -26.442026
v 498.114868 914.400024 -26.442026
v 500.717010 -914.400024 -28.625460
v 500.717010 914.400024 -28.625460
v 503.554993 -914.400024 -30.492044
v 503.554993 914.400024 -30.492044
v 506.590515 -914.400024 -32.016533
v 506.590515 914.400024 -32.016533
v 509.782471 -914.400024 -33.178314
v 509.782471 914.400024 -33.178314
v 513.087708 -914.400024 -33.961678
v 513.087708 914.400024 -33.961678
v 516.461609 -914.400024 -34.356022
v 516.461609 914.400024 -34.356022
v 519.858398 -914.400024 -34.356022
v 519.858398 914.400024 -34.356022
v 523.232239 -914.400024 -33.961678
v 523.232239 914.400024 -33.961678
v 526.537537 -914.400024 -33.178314
v 526.537537 914.400024 -33.178314
v 529.729492 -914.400024 -32.016533
v 529.729492 914.400024 -32.016533
v 532.765015 -914.400024 -30.492044
v 532.765015 914.400024 -30.492044
v 535.603027 -914.400024 -28.625460
v 535.603027 914.400024 -28.625460
v 538.205139 -914.400024 -26.442026
v 538.205139 914.400024 -26.442026
v 540.536133 -914.400024 -23.971268
v 540.536133 914.400024 -23.971268
v 542.564575 -914.400024 -21.246599
v 542.564575 914.400024 -21.246599
v 544.263000 -914.400024 -18.304867
v 544.263000 914.400024 -18.304867
v 545.608398 -914.400024 -15.185850
v 545.608398 914.400024 -15.185850
v 546.582642 -914.400024 -11.931732
v 546.582642 914.400024 -11.931732
v 547.172485 -914.400024 -8.586516
v 547.172485 914.400024 -8.586516
v 152.399994 -911.224976 152.399994
v -152.399994 -911.224976 152.399994
v -152.399994 -911.224976 -152.399994
v 152.399994 -911.224976 -152.399994
v 152.399994 -546.734985 152.399994
v -152.399994 -546.734985 152.399994
v -152.399994 -546.734985 -152.399994
v 152.399994 -546.734985 -152.399994
v 152.399994 -182.244995 152.399994
v -152.399994 -182.244995 152.399994
v -152.399994 -182.244995 -152.399994
v 152.399994 -182.244995 -152.399994
v 152.399994 182.244995 152.399994
v -152.399994 182.244995 152.399994
v -152.399994 182.244995 -152.399994
v 152.399994 182.244995 -152.399994
v 152.399994 546.734985 152.399994
v -152.399994 546.734985 152.399994
v -152.399994 546.734985 -152.399994
v 152.399994 546.734985 -152.399994
v 152.399994 911.224976 152.399994
v -152.399994 911.224976 152.399994
v -152.399994 911.224976 -152.399994
v 152.399994 911.224976 -152.399994
v -401.853638 -889.000000 -47.909523
v -401.662170 -889.000000 -48.995438
v -401.662170 -939.799988 -48.995438
v -401.853638 -939.799988 -47.909523
v -402.404968 -889.000000 -46.954586
v -402.404968 -939.799988 -46.954586
v -403.249664 -889.000000 -46.245808
v -403.249664 -939.799988 -46.245808
v -404.285828 -939.799988 -45.868671
v -404.285828 -889.000000 -45.868671
v -405.388489 -889.000000 -45.868671
v -405.388489 -939.799988 -45.868671
v -406.424652 -889.000000 -46.245808
v -406.424652 -939.799988 -46.245808
v -407.269348 -939.799988 -46.954586
v -407.269348 -889.000000 -46.954586
v -407.820679 -889.000000 -47.909523
v -407.820679 -939.799988 -47.909523
v -408.012177 -889.000000 -48.995438
v -408.012177 -939.799988 -48.995438
v -407.820679 -889.000000 -50.081352
v -407.820679 -939.799988 -50.081352
v -407.269348 -889.000000 -51.036289
v -407.269348 -939.799988 -51.036289
v -406.424652 -889.000000 -51.745068
v -406.424652 -939.799988 -51.745068
v -405.388489 -889.000000 -52.122200
v -405.388489 -939.799988 -52.122200
v -404.285828 -889.000000 -52.122200
v -404.285828 -939.799988 -52.122200
v -403.249664 -889.000000 -51.745068
v -403.249664 -939.799988 -51.745068
v -402.404968 -889.000000 -51.036289
v -402.404968 -939.799988 -51.036289
v -401.853638 -889.000000 -50.081352
v -401.853638 -939.799988 -50.081352
vn 0.705262 0.000000 0.708946
vn 0.705262 -0.000000 0.708946
vn 0.647384 -0.000000 0.762164
vn 0.585505 -0.000000 0.810669
vn 0.647384 0.000000 0.762164
vn 0.585505 -0.000000 0.810669
vn 0.488621 0.000000 0.872496
vn 0.488621 -0.000000 0.872496
vn 0.418659 -0.000000 0.908143
vn 0.418659 0.000000 0.908143
vn 0.346117 -0.000000 0.938191
vn 0.346117 0.000000 0.938191
vn 0.271441 -0.000000 0.962455
vn 0.271441 0.000000 0.962455
vn 0.195090 -0.000000 0.980785
vn 0.195090 0.000000 0.980785
vn 0.117537 -0.000000 0.993069
vn 0.117537 0.000000 0.993069
vn 0.039260 0.000000 0.999229
vn 0.039260 0.000000 0.999229
vn -0.039260 0.000000 0.999229
vn -0.117537 0.000000 0.993069
vn -0.039260 0.000000 0.999229
vn -0.117537 0.000000 0.993069
vn -0.195090 0.000000 0.980785
vn -0.195090 0.000000 0.980785
vn -0.271441 0.000000 0.962455
vn -0.271441 0.000000 0.962455
vn -0.346117 0.000000 0.938191
vn -0.346117 0.000000 0.938191
vn -0.418659 0.000000 0.908143
vn -0.418659 0.000000 0.908143
vn -0.488621 0.000000 0.872496
vn -0.488621 0.000000 0.872496
vn -0.585505 0.000000 0.810669
vn -0.585505 0.000000 0.810669
vn -0.647384 0.000000 0.762164
vn -0.647384 0.000000 0.762164
vn -0.705262 0.000000 0.708946
vn -0.705262 0.000000 0.708946
vn -0.735724 0.000000 0.677282
vn -0.735724 0.000000 0.677282
vn -0.789141 0.000000 0.614213
vn -0.789141 0.000000 0.614213
vn -0.837167 0.000000 0.546948
vn -0.837167 0.000000 0.546948
vn -0.879474 0.000000 0.475947
vn -0.879474 0.000000 0.475947
vn -0.915773 0.000000 0.401695
vn -0.915773 0.000000 0.401695
vn -0.945817 0.000000 0.324700
vn -0.945817 0.000000 0.324700
vn -0.969400 0.000000 0.245486
vn -0.986361 0.000000 0.164594
vn -0.969400 0.000000 0.245486
vn -0.996585 0.000000 0.082579
vn -0.986361 0.000000 0.164594
vn -0.996585 0.000000 0.082579
vn -1.000000 0.000000 0.000000
vn -0.996585 0.000000 -0.082579
vn -1.000000 0.000000 0.000000
vn -0.996585 0.000000 -0.082579
vn -0.986361 0.000000 -0.164594
vn -0.969400 0.000000 -0.245486
vn -0.986361 0.000000 -0.164594
vn -0.969400 0.000000 -0.245486
vn -0.945817 0.000000 -0.324700
vn -0.945817 0.000000 -0.324700
vn -0.915773 0.000000 -0.401695
vn -0.915773 0.000000 -0.401695
vn -0.879474 0.000000 -0.475947
vn -0.879474 0.000000 -0.475947
vn -0.837167 0.000000 -0.546948
vn -0.837167 0.000000 -0.546948
vn -0.789141 0.000000 -0.614213
vn -0.789141 0.000000 -0.614213
vn -0.735724 0.000000 -0.677282
vn -0.735724 0.000000 -0.677282
vn -0.705262 0.000000 -0.708946
vn -0.705262 0.000000 -0.708946
vn -0.647384 0.000000 -0.762164
vn -0.647384 0.000000 -0.762164
vn -0.585505 0.000000 -0.810669
vn -0.585505 0.000000 -0.810669
vn -0.488621 0.000000 -0.872496
vn -0.488621 0.000000 -0.872496
vn -0.418659 0.000000 -0.908143
vn -0.346117 0.000000 -0.938191
vn -0.418659 0.000000 -0.908143
vn -0.346117 0.000000 -0.938191
vn -0.271441 0.000000 -0.962455
vn -0.271441 0.000000 -0.962455
vn -0.195090 0.000000 -0.980785
vn -0.117537 0.000000 -0.993069
vn -0.195090 0.000000 -0.980785
vn -0.039260 0.000000 -0.999229
vn -0.117537 0.000000 -0.993069
vn -0.039260 -0.000000 -0.999229
vn 0.039260 0.000000 -0.999229
vn 0.117537 0.000000 -0.993069
vn 0.039260 0.000000 -0.999229
vn 0.117537 0.000000 -0.993069
vn 0.195090 0.000000 -0.980785
vn 0.271441 0.000000 -0.962455
vn 0.195090 0.000000 -0.980785
vn 0.346117 0.000000 -0.938191
vn 0.271441 0.000000 -0.962455
vn 0.346117 0.000000 -0.938191
vn 0.418659 0.000000 -0.908143
vn 0.418659 0.000000 -0.908143
vn 0.488621 0.000000 -0.872496
vn 0.488621 0.000000 -0.872496
vn 0.585505 0.000000 -0.810669
vn 0.585505 0.000000 -0.810669
vn 0.647384 0.000000 -0.762164
vn 0.647384 0.000000 -0.762164
vn 0.705262 0.000000 -0.708946
vn 0.705262 0.000000 -0.708946
vn 0.735724 0.000000 -0.677282
vn 0.735724 0.000000 -0.677282
vn 0.789141 0.000000 -0.614213
vn 0.789141 0.000000 -0.614213
vn 0.837167 0.000000 -0.546948
vn 0.879474 0.000000 -0.475947
vn 0.837167 0.000000 -0.546948
vn 0.879474 0.000000 -0.475947
vn 0.915773 0.000000 -0.401695
vn 0.945817 0.000000 -0.324700
vn 0.915773 0.000000 -0.401695
vn 0.969400 0.000000 -0.245486
vn 0.945817 0.000000 -0.324700
vn 0.969400 0.000000 -0.245486
vn 0.986361 0.000000 -0.164594
vn 0.986361 0.000000 -0.164594
vn 0.996585 0.000000 -0.082579
vn 0.996585 0.000000 -0.082579
vn 1.000000 -0.000000 0.000000
vn 1.000000 0.000000 0.000000
vn 0.996585 -0.000000 0.082579
vn 0.996585 0.000000 0.082579
vn 0.986361 -0.000000 0.164594
vn 0.986361 0.000000 0.164594
vn 0.969400 -0.000000 0.245486
vn 0.945817 -0.000000 0.324700
vn 0.969400 0.000000 0.245486
vn 0.945817 -0.000000 0.324700
vn 0.915773 0.000000 0.401695
vn 0.915773 -0.000000 0.401695
vn 0.879474 0.000000 0.475947
vn 0.879474 -0.000000 0.475947
vn 0.837167 -0.000000 0.546948
vn 0.837167 -0.000000 0.546948
vn 0.789141 0.000000 0.614213
vn 0.789141 -0.000000 0.614213
vn 0.735724 0.000000 0.677282
vn 0.735724 -0.000000 0.677282
vn 0.998308 0.000000 0.058145
vn 0.998308 -0.000000 0.058145
vn 0.984808 -0.000000 0.173646
vn 0.957988 -0.000000 0.286810
vn 0.984808 0.000000 0.173646
vn 0.957988 -0.000000 0.286810
vn 0.918218 -0.000000 0.396076
vn 0.866023 -0.000000 0.500003
vn 0.918218 0.000000 0.396076
vn 0.866023 -0.000000 0.500003
vn 0.802123 -0.000000 0.597159
vn 0.727380 -0.000000 0.686234
vn 0.802123 0.000000 0.597159
vn 0.727380 -0.000000 0.686234
vn 0.642788 -0.000000 0.766044
vn 0.642788 0.000000 0.766044
vn 0.549507 -0.000000 0.835489
vn 0.549507 0.000000 0.835489
vn 0.448798 -0.000000 0.893633
vn 0.342021 -0.000000 0.939692
vn 0.448798 0.000000 0.893633
vn 0.342021 -0.000000 0.939692
vn 0.230613 -0.000000 0.973045
vn 0.116093 -0.000000 0.993238
vn 0.230613 0.000000 0.973045
vn 0.116093 -0.000000 0.993238
vn 0.000000 0.000000 1.000000
vn 0.000000 0.000000 1.000000
vn -0.116091 0.000000 0.993239
vn -0.116091 0.000000 0.993239
vn -0.230618 0.000000 0.973045
vn -0.230618 0.000000 0.973045
vn -0.342021 0.000000 0.939692
vn -0.448798 0.000000 0.893633
vn -0.342021 0.000000 0.939692
vn -0.448798 0.000000 0.893633
vn -0.549512 0.000000 0.835486
vn -0.549512 0.000000 0.835486
vn -0.642784 0.000000 0.766048
vn -0.642784 0.000000 0.766048
vn -0.727376 0.000000 0.686239
vn -0.727376 0.000000 0.686239
vn -0.802123 0.000000 0.597159
vn -0.802123 0.000000 0.597159
vn -0.866023 0.000000 0.500003
vn -0.866023 0.000000 0.500003
vn -0.918218 0.000000 0.396076
vn -0.918218 0.000000 0.396076
vn -0.957990 0.000000 0.286801
vn -0.957990 0.000000 0.286801
vn -0.984808 0.000000 0.173646
vn -0.984808 0.000000 0.173646
vn -0.998308 0.000000 0.058145
vn -0.998308 0.000000 0.058145
vn -0.998308 0.000000 -0.058145
vn -0.998308 0.000000 -0.058145
vn -0.984808 0.000000 -0.173646
vn -0.984808 0.000000 -0.173646
vn -0.957990 0.000000 -0.286802
vn -0.957990 0.000000 -0.286802
vn -0.918218 0.000000 -0.396076
vn -0.918218 0.000000 -0.396076
vn -0.866023 0.000000 -0.500003
vn -0.866023 0.000000 -0.500003
vn -0.802123 0.000000 -0.597159
vn -0.802123 0.000000 -0.597159
vn -0.727376 0.000000 -0.686239
vn -0.727376 0.000000 -0.686239
vn -0.642784 0.000000 -0.766048
vn -0.642784 0.000000 -0.766048
vn -0.549512 0.000000 -0.835486
vn -0.549512 0.000000 -0.835486
vn -0.448797 0.000000 -0.893634
vn -0.448797 0.000000 -0.893634
vn -0.342021 0.000000 -0.939692
vn -0.342021 0.000000 -0.939692
vn -0.230618 0.000000 -0.973044
vn -0.230618 0.000000 -0.973044
vn -0.116091 0.000000 -0.993239
vn -0.116091 0.000000 -0.993239
vn 0.000000 0.000000 -1.000000
vn 0.000000 0.000000 -1.000000
vn 0.116093 0.000000 -0.993238
vn 0.116093 0.000000 -0.993238
vn 0.230614 0.000000 -0.973045
vn 0.230614 0.000000 -0.973045
vn 0.342021 0.000000 -0.939692
vn 0.342021 0.000000 -0.939692
vn 0.448797 0.000000 -0.893634
vn 0.448797 0.000000 -0.893634
vn 0.549508 0.000000 -0.835489
vn 0.549508 0.000000 -0.835489
vn 0.642788 0.000000 -0.766044
vn 0.642788 0.000000 -0.766044
vn 0.727380 0.000000 -0.686234
vn 0.727380 0.000000 -0.686234
vn 0.802123 0.000000 -0.597159
vn 0.802123 0.000000 -0.597159
vn 0.866023 0.000000 -0.500003
vn 0.866023 0.000000 -0.500003
vn 0.918218 0.000000 -0.396076
vn 0.918218 0.000000 -0.396076
vn 0.957988 0.000000 -0.286810
vn 0.957988 0.000000 -0.286810
vn 0.984808 0.000000 -0.173646
vn 0.984808 0.000000 -0.173646
vn 0.998308 0.000000 -0.058145
vn 0.998308 0.000000 -0.058145
vn 0.705262 0.000000 0.708946
vn 0.705262 -0.000000 0.708946
vn 0.647384 -0.000000 0.762164
vn 0.585505 -0.000000 0.810669
vn 0.647384 0.000000 0.762164
vn 0.585505 -0.000000 0.810669
vn 0.488621 0.000000 0.872496
vn 0.488621 -0.000000 0.872496
vn 0.418659 -0.000000 0.908143
vn 0.418659 0.000000 0.908143
vn 0.346117 -0.000000 0.938191
vn 0.346117 0.000000 0.938191
vn 0.271441 -0.000000 0.962455
vn 0.271441 0.000000 0.962455
vn 0.195090 -0.000000 0.980785
vn 0.195090 0.000000 0.980785
vn 0.117537 -0.000000 0.993069
vn 0.117537 0.000000 0.993069
vn 0.039260 0.000000 0.999229
vn 0.039260 0.000000 0.999229
vn -0.039260 0.000000 0.999229
vn -0.117537 0.000000 0.993069
vn -0.039260 0.000000 0.999229
vn -0.117537 0.000000 0.993069
vn -0.195090 0.000000 0.980785
vn -0.195090 0.000000 0.980785
vn -0.271441 0.000000 0.962455
vn -0.271441 0.000000 0.962455
vn -0.346117 0.000000 0.938191
vn -0.346117 0.000000 0.938191
vn -0.418659 0.000000 0.908143
vn -0.418659 0.000000 0.908143
vn -0.488621 0.000000 0.872496
vn -0.488621 0.000000 0.872496
vn -0.585505 0.000000 0.810669
vn -0.585505 0.000000 0.810669
vn -0.647384 0.000000 0.762164
vn -0.647384 0.000000 0.762164
vn -0.705262 0.000000 0.708946
vn -0.705262 0.000000 0.708946
vn -0.735724 0.000000 0.677282
vn -0.735724 0.000000 0.677282
vn -0.789141 0.000000 0.614213
vn -0.789141 0.000000 0.614213
vn -0.837167 0.000000 0.546948
vn -0.837167 0.000000 0.546948
vn -0.879474 0.000000 0.475947
vn -0.879474 0.000000 0.475947
vn -0.915773 0.000000 0.401695
vn -0.915773 0.000000 0.401695
vn -0.945817 0.000000 0.324700
vn -0.945817 0.000000 0.324700
vn -0.969400 0.000000 0.245486
vn -0.986361 0.000000 0.164594
vn -0.969400 0.000000 0.245486
vn -0.996585 0.000000 0.082579
vn -0.986361 0.000000 0.164594
vn -0.996585 0.000000 0.082579
vn -1.000000 0.000000 0.000000
vn -0.996585 0.000000 -0.082579
vn -1.000000 0.000000 0.000000
vn -0.996585 0.000000 -0.082579
vn -0.986361 0.000000 -0.164594
vn -0.969400 0.000000 -0.245486
vn -0.986361 0.000000 -0.164594
vn -0.969400 0.000000 -0.245486
vn -0.945817 0.000000 -0.324700
vn -0.945817 0.000000 -0.324700
vn -0.915773 0.000000 -0.401695
vn -0.915773 0.000000 -0.401695
vn -0.879474 0.000000 -0.475947
vn -0.879474 0.000000 -0.475947
vn -0.837167 0.000000 -0.546948
vn -0.837167 0.000000 -0.546948
vn -0.789141 0.000000 -0.614213
vn -0.789141 0.000000 -0.614213
vn -0.735724 0.000000 -0.677282
vn -0.735724 0.000000 -0.677282
vn -0.705262 0.000000 -0.708946
vn -0.705262 0.000000 -0.708946
vn -0.647384 0.000000 -0.762164
vn -0.647384 0.000000 -0.762164
vn -0.585505 0.000000 -0.810669
vn -0.585505 0.000000 -0.810669
vn -0.488621 0.000000 -0.872496
vn -0.488621 0.000000 -0.872496
vn -0.418659 0.000000 -0.908143
vn -0.346117 0.000000 -0.938191
vn -0.418659 0.000000 -0.908143
vn -0.346117 0.000000 -0.938191
vn -0.271441 0.000000 -0.962455
vn -0.271441 0.000000 -0.962455
vn -0.195090 0.000000 -0.980785
vn -0.117537 0.000000 -0.993069
vn -0.195090 0.000000 -0.980785
vn -0.039260 0.000000 -0.999229
vn -0.117537 0.000000 -0.993069
vn -0.039260 -0.000000 -0.999229
vn 0.039260 0.000000 -0.999229
vn 0.117537 0.000000 -0.993069
vn 0.039260 0.000000 -0.999229
vn 0.117537 0.000000 -0.993069
vn 0.195090 0.000000 -0.980785
vn 0.271441 0.000000 -0.962455
vn 0.195090 0.000000 -0.980785
vn 0.346117 0.000000 -0.938191
vn 0.271441 0.000000 -0.962455
vn 0.346117 0.000000 -0.938191
vn 0.418659 0.000000 -0.908143
vn 0.418659 0.000000 -0.908143
vn 0.488621 0.000000 -0.872496
vn 0.488621 0.000000 -0.872496
vn 0.585505 0.000000 -0.810669
vn 0.585505 0.000000 -0.810669
vn 0.647384 0.000000 -0.762164
vn 0.647384 0.000000 -0.762164
vn 0.705262 0.000000 -0.708946
vn 0.705262 0.000000 -0.708946
vn 0.735724 0.000000 -0.677282
vn 0.735724 0.000000 -0.677282
vn 0.789141 0.000000 -0.614213
vn 0.789141 0.000000 -0.614213
vn 0.837167 0.000000 -0.546948
vn 0.879474 0.000000 -0.475947
vn 0.837167 0.000000 -0.546948
vn 0.879474 0.000000 -0.475947
vn 0.915773 0.000000 -0.401695
vn 0.945817 0.000000 -0.324700
vn 0.915773 0.000000 -0.401695
vn 0.969400 0.000000 -0.245486
vn 0.945817 0.000000 -0.324700
vn 0.969400 0.000000 -0.245486
vn 0.986361 0.000000 -0.164594
vn 0.986361 0.000000 -0.164594
vn 0.996585 0.000000 -0.082579
vn 0.996585 0.000000 -0.082579
vn 1.000000 -0.000000 0.000000
vn 1.000000 0.000000 0.000000
vn 0.996585 -0.000000 0.082579
vn 0.996585 0.000000 0.082579
vn 0.986361 -0.000000 0.164594
vn 0.986361 0.000000 0.164594
vn 0.969400 -0.000000 0.245486
vn 0.945817 -0.000000 0.324700
vn 0.969400 0.000000 0.245486
vn 0.945817 -0.000000 0.324700
vn 0.915773 0.000000 0.401695
vn 0.915773 -0.000000 0.401695
vn 0.879474 0.000000 0.475947
vn 0.879474 -0.000000 0.475947
vn 0.837167 -0.000000 0.546948
vn 0.837167 -0.000000 0.546948
vn 0.789141 0.000000 0.614213
vn 0.789141 -0.000000 0.614213
vn 0.735724 0.000000 0.677282
vn 0.735724 -0.000000 0.677282
vn 0.998308 0.000000 0.058145
vn 0.998308 -0.000000 0.058145
vn 0.984808 -0.000000 0.173646
vn 0.957988 -0.000000 0.286810
vn 0.984808 0.000000 0.173646
vn 0.957988 -0.000000 0.286810
vn 0.918218 -0.000000 0.396076
vn 0.866023 -0.000000 0.500003
vn 0.918218 0.000000 0.396076
vn 0.866023 -0.000000 0.500003
vn 0.802123 -0.000000 0.597159
vn 0.727380 -0.000000 0.686234
vn 0.802123 0.000000 0.597159
vn 0.727380 -0.000000 0.686234
vn 0.642788 -0.000000 0.766044
vn 0.642788 0.000000 0.766044
vn 0.549507 -0.000000 0.835489
vn 0.549507 0.000000 0.835489
vn 0.448798 -0.000000 0.893633
vn 0.342021 -0.000000 0.939692
vn 0.448798 0.000000 0.893633
vn 0.342021 -0.000000 0.939692
vn 0.230613 -0.000000 0.973045
vn 0.116093 -0.000000 0.993238
vn 0.230613 0.000000 0.973045
vn 0.116093 -0.000000 0.993238
vn 0.000000 0.000000 1.000000
vn 0.000000 0.000000 1.000000
vn -0.116091 0.000000 0.993239
vn -0.116091 0.000000 0.993239
vn -0.230618 0.000000 0.973045
vn -0.230618 0.000000 0.973045
vn -0.342021 0.000000 0.939692
vn -0.448798 0.000000 0.893633
vn -0.342021 0.000000 0.939692
vn -0.448798 0.000000 0.893633
vn -0.549512 0.000000 0.835486
vn -0.549512 0.000000 0.835486
vn -0.642784 0.000000 0.766048
vn -0.642784 0.000000 0.766048
vn -0.727376 0.000000 0.686239
vn -0.727376 0.000000 0.686239
vn -0.802123 0.000000 0.597159
vn -0.802123 0.000000 0.597159
vn -0.866023 0.000000 0.500003
vn -0.866023 0.000000 0.500003
vn -0.918218 0.000000 0.396076
vn -0.918218 0.000000 0.396076
vn -0.957990 0.000000 0.286801
vn -0.957990 0.000000 0.286801
vn -0.984808 0.000000 0.173646
vn -0.984808 0.000000 0.173646
vn -0.998308 0.000000 0.058145
vn -0.998308 0.000000 0.058145
vn -0.998308 0.000000 -0.058145
vn -0.998308 0.000000 -0.058145
vn -0.984808 0.000000 -0.173646
vn -0.984808 0.000000 -0.173646
vn -0.957990 0.000000 -0.286802
vn -0.957990 0.000000 -0.286802
vn -0.918218 0.000000 -0.396076
vn -0.918218 0.000000 -0.396076
vn -0.866023 0.000000 -0.500003
vn -0.866023 0.000000 -0.500003
vn -0.802123 0.000000 -0.597159
vn -0.802123 0.000000 -0.597159
vn -0.727376 0.000000 -0.686239
vn -0.727376 0.000000 -0.686239
vn -0.642784 0.000000 -0.766048
vn -0.642784 0.000000 -0.766048
vn -0.549512 0.000000 -0.835486
vn -0.549512 0.000000 -0.835486
vn -0.448797 0.000000 -0.893634
vn -0.448797 0.000000 -0.893634
vn -0.342021 0.000000 -0.939692
vn -0.342021 0.000000 -0.939692
vn -0.230618 0.000000 -0.973044
vn -0.230618 0.000000 -0.973044
vn -0.116091 0.000000 -0.993239
vn -0.116091 0.000000 -0.993239
vn 0.000000 0.000000 -1.000000
vn 0.000000 0.000000 -1.000000
vn 0.116093 0.000000 -0.993238
vn 0.116093 0.000000 -0.993238
vn 0.230614 0.000000 -0.973045
vn 0.230614 0.000000 -0.973045
vn 0.342021 0.000000 -0.939692
vn 0.342021 0.000000 -0.939692
vn 0.448797 0.000000 -0.893634
vn 0.448797 0.000000 -0.893634
vn 0.549508 0.000000 -0.835489
vn 0.549508 0.000000 -0.835489
vn 0.642788 0.000000 -0.766044
vn 0.642788 0.000000 -0.766044
vn 0.727380 0.000000 -0.686234
vn 0.727380 0.000000 -0.686234
vn 0.802123 0.000000 -0.597159
vn 0.802123 0.000000 -0.597159
vn 0.866023 0.000000 -0.500003
vn 0.866023 0.000000 -0.500003
vn 0.918218 0.000000 -0.396076
vn 0.918218 0.000000 -0.396076
vn 0.957988 0.000000 -0.286810
vn 0.957988 0.000000 -0.286810
vn 0.984808 0.000000 -0.173646
vn 0.984808 0.000000 -0.173646
vn 0.998308 0.000000 -0.058145
vn 0.998308 0.000000 -0.058145
vn -0.000000 -1.000000 0.000000
vn 0.000000 -1.000000 -0.000000
vn -0.000000 -1.000000 0.000000
vn 0.000000 -1.000000 -0.000000
vn -0.000000 -1.000000 0.000000
vn 0.000000 -1.000000 -0.000000
vn -0.000000 -1.000000 0.000000
vn 0.000000 -1.000000 -0.000000
vn -0.000000 -1.000000 0.000000
vn 0.000000 -1.000000 -0.000000
vn -0.000000 -1.000000 0.000000
vn 0.000000 -1.000000 -0.000000
vn -0.984809 0.000000 -0.173640
vn -0.984809 -0.000000 -0.173640
vn -0.866026 -0.000000 -0.499998
vn -0.866026 0.000000 -0.499998
vn -0.642785 -0.000000 -0.766047
vn -0.342023 -0.000000 -0.939692
vn -0.642785 0.000000 -0.766047
vn -0.342023 -0.000000 -0.939692
vn 0.000000 0.000000 -1.000000
vn 0.000000 0.000000 -1.000000
vn 0.342023 0.000000 -0.939692
vn 0.642785 0.000000 -0.766047
vn 0.342023 0.000000 -0.939692
vn 0.642785 0.000000 -0.766047
vn 0.866026 0.000000 -0.499998
vn 0.866026 0.000000 -0.499998
vn 0.984804 0.000000 -0.173667
vn 0.984804 0.000000 -0.173667
vn 0.984804 0.000000 0.173667
vn 0.984804 0.000000 0.173667
vn 0.866026 0.000000 0.499998
vn 0.866026 0.000000 0.499998
vn 0.642785 0.000000 0.766047
vn 0.642785 0.000000 0.766047
vn 0.342020 0.000000 0.939693
vn 0.342020 0.000000 0.939693
vn 0.000000 0.000000 1.000000
vn 0.000000 0.000000 1.000000
vn -0.342020 0.000000 0.939693
vn -0.342020 0.000000 0.939693
vn -0.642785 0.000000 0.766047
vn -0.642785 0.000000 0.766047
vn -0.866026 0.000000 0.499998
vn -0.866026 0.000000 0.499998
vn -0.984809 0.000000 0.173640
vn -0.984809 0.000000 0.173640
g MeshExport010
f 1//1 2//1 3//1
f 1//2 3//2 4//2
f 5//3 4//3 6//3
f 5//4 6//4 7//4
f 5//5 1//5 4//5
f 8//6 5//6 7//6
f 9//7 8//7 7//7
f 9//8 7//8 10//8
f 11//9 10//9 12//9
f 11//10 9//10 10//10
f 13//11 12//11 14//11
f 13//12 11//12 12//12
f 15//13 14//13 16//13
f 15//14 13//14 14//14
f 17//15 16//15 18//15
f 17//16 15//16 16//16
f 19//17 18//17 20//17
f 19//18 17//18 18//18
f 21//19 20//19 22//19
f 21//20 19//20 20//20
f 23//21 22//21 24//21
f 23//22 24//22 25//22
f 23//23 21//23 22//23
f 26//24 23//24 25//24
f 27//25 25//25 28//25
f 27//26 26//26 25//26
f 29//27 28//27 30//27
f 29//28 27//28 28//28
f 31//29 30//29 32//29
f 31//30 29//30 30//30
f 33//31 32//31 34//31
f 33//32 31//32 32//32
f 35//33 34//33 36//33
f 35//34 33//34 34//34
f 37//35 35//35 36//35
f 37//36 36//36 38//36
f 39//37 38//37 40//37
f 39//38 37//38 38//38
f 41//39 40//39 42//39
f 41//40 39//40 40//40
f 43//41 41//41 42//41
f 43//42 42//42 44//42
f 45//43 44//43 46//43
f 45//44 43//44 44//44
f 47//45 46//45 48//45
f 47//46 45//46 46//46
f 49//47 48//47 50//47
f 49//48 47//48 48//48
f 51//49 50//49 52//49
f 51//50 49//50 50//50
f 53//51 52//51 54//51
f 53//52 51//52 52//52
f 55//53 54//53 56//53
f 55//54 56//54 57//54
f 55//55 53//55 54//55
f 58//56 57//56 59//56
f 58//57 55//57 57//57
f 60//58 58//58 59//58
f 61//59 59//59 62//59
f 61//60 62//60 63//60
f 61//61 60//61 59//61
f 64//62 61//62 63//62
f 65//63 63//63 66//63
f 65//64 66//64 67//64
f 65//65 64//65 63//65
f 68//66 65//66 67//66
f 69//67 67//67 70//67
f 69//68 68//68 67//68
f 71//69 69//69 70//69
f 71//70 70//70 72//70
f 73//71 71//71 72//71
f 73//72 72//72 74//72
f 73//73 74//73 75//73
f 76//74 73//74 75//74
f 76//75 75//75 77//75
f 78//76 76//76 77//76
f 79//77 78//77 77//77
f 79//78 77//78 80//78
f 81//79 79//79 80//79
f 81//80 80//80 82//80
f 83//81 82//81 84//81
f 83//82 81//82 82//82
f 85//83 84//83 86//83
f 85//84 83//84 84//84
f 87//85 85//85 86//85
f 87//86 86//86 88//86
f 89//87 88//87 90//87
f 89//88 90//88 91//88
f 89//89 87//89 88//89
f 92//90 89//90 91//90
f 93//91 91//91 94//91
f 93//92 92//92 91//92
f 95//93 94//93 96//93
f 95//94 96//94 97//94
f 95//95 93//95 94//95
f 98//96 97//96 99//96
f 98//97 95//97 97//97
f 100//98 98//98 99//98
f 101//99 99//99 102//99
f 101//100 102//100 103//100
f 101//101 100//101 99//101
f 104//102 101//102 103//102
f 105//103 103//103 106//103
f 105//104 106//104 107//104
f 105//105 104//105 103//105
f 108//106 107//106 109//106
f 108//107 105//107 107//107
f 110//108 108//108 109//108
f 111//109 109//109 112//109
f 111//110 110//110 109//110
f 113//111 112//111 114//111
f 113//112 111//112 112//112
f 115//113 113//113 114//113
f 115//114 114//114 116//114
f 117//115 116//115 118//115
f 117//116 115//116 116//116
f 119//117 118//117 120//117
f 119//118 117//118 118//118
f 121//119 119//119 120//119
f 121//120 120//120 122//120
f 123//121 122//121 124//121
f 123//122 121//122 122//122
f 125//123 124//123 126//123
f 125//124 126//124 127//124
f 125//125 123//125 124//125
f 128//126 125//126 127//126
f 129//127 127//127 130//127
f 129//128 130//128 131//128
f 129//129 128//129 127//129
f 132//130 131//130 133//130
f 132//131 129//131 131//131
f 134//132 132//132 133//132
f 135//133 133//133 136//133
f 135//134 134//134 133//134
f 137//135 136//135 138//135
f 137//136 135//136 136//136
f 139//137 138//137 140//137
f 139//138 137//138 138//138
f 141//139 140//139 142//139
f 141//140 139//140 140//140
f 143//141 142//141 144//141
f 143//142 141//142 142//142
f 145//143 144//143 146//143
f 145//144 146//144 147//144
f 145//145 143//145 144//145
f 148//146 145//146 147//146
f 149//147 148//147 147//147
f 149//148 147//148 150//148
f 151//149 149//149 150//149
f 151//150 150//150 152//150
f 151//151 152//151 153//151
f 154//152 151//152 153//152
f 155//153 154//153 153//153
f 155//154 153//154 156//154
f 2//155 155//155 156//155
f 2//156 156//156 3//156
g MeshExport011
f 157//157 158//157 159//157
f 157//158 159//158 160//158
f 161//159 160//159 162//159
f 161//160 162//160 163//160
f 161//161 157//161 160//161
f 164//162 161//162 163//162
f 165//163 163//163 166//163
f 165//164 166//164 167//164
f 165//165 164//165 163//165
f 168//166 165//166 167//166
f 169//167 167//167 170//167
f 169//168 170//168 171//168
f 169//169 168//169 167//169
f 172//170 169//170 171//170
f 173//171 171//171 174//171
f 173//172 172//172 171//172
f 175//173 174//173 176//173
f 175//174 173//174 174//174
f 177//175 176//175 178//175
f 177//176 178//176 179//176
f 177//177 175//177 176//177
f 180//178 177//178 179//178
f 181//179 179//179 182//179
f 181//180 182//180 183//180
f 181//181 180//181 179//181
f 184//182 181//182 183//182
f 185//183 183//183 186//183
f 185//184 184//184 183//184
f 187//185 186//185 188//185
f 187//186 185//186 186//186
f 189//187 188//187 190//187
f 189//188 187//188 188//188
f 191//189 190//189 192//189
f 191//190 192//190 193//190
f 191//191 189//191 190//191
f 194//192 191//192 193//192
f 195//193 193//193 196//193
f 195//194 194//194 193//194
f 197//195 196//195 198//195
f 197//196 195//196 196//196
f 199//197 198//197 200//197
f 199//198 197//198 198//198
f 201//199 200//199 202//199
f 201//200 199//200 200//200
f 203//201 201//201 202//201
f 203//202 202//202 204//202
f 205//203 203//203 204//203
f 205//204 204//204 206//204
f 207//205 205//205 206//205
f 207//206 206//206 208//206
f 209//207 207//207 208//207
f 209//208 208//208 210//208
f 211//209 209//209 210//209
f 211//210 210//210 212//210
f 213//211 211//211 212//211
f 213//212 212//212 214//212
f 215//213 214//213 216//213
f 215//214 213//214 214//214
f 217//215 216//215 218//215
f 217//216 215//216 216//216
f 219//217 218//217 220//217
f 219//218 217//218 218//218
f 221//219 220//219 222//219
f 221//220 219//220 220//220
f 223//221 222//221 224//221
f 223//222 221//222 222//222
f 225//223 224//223 226//223
f 225//224 223//224 224//224
f 227//225 226//225 228//225
f 227//226 225//226 226//226
f 229//227 228//227 230//227
f 229//228 227//228 228//228
f 231//229 230//229 232//229
f 231//230 229//230 230//230
f 233//231 232//231 234//231
f 233//232 231//232 232//232
f 235//233 234//233 236//233
f 235//234 233//234 234//234
f 237//235 236//235 238//235
f 237//236 235//236 236//236
f 239//237 238//237 240//237
f 239//238 237//238 238//238
f 241//239 240//239 242//239
f 241//240 239//240 240//240
f 243//241 242//241 244//241
f 243//242 241//242 242//242
f 245//243 244//243 246//243
f 245//244 243//244 244//244
f 247//245 246//245 248//245
f 247//246 245//246 246//246
f 249//247 248//247 250//247
f 249//248 247//248 248//248
f 251//249 249//249 250//249
f 251//250 250//250 252//250
f 253//251 251//251 252//251
f 253//252 252//252 254//252
f 255//253 253//253 254//253
f 255//254 254//254 256//254
f 257//255 255//255 256//255
f 257//256 256//256 258//256
f 259//257 257//257 258//257
f 259//258 258//258 260//258
f 261//259 259//259 260//259
f 261//260 260//260 262//260
f 263//261 261//261 262//261
f 263//262 262//262 264//262
f 263//263 264//263 159//263
f 158//264 263//264 159//264
g MeshExport012
f 265//265 266//265 267//265
f 265//266 267//266 268//266
f 269//267 268//267 270//267
f 269//268 270//268 271//268
f 269//269 265//269 268//269
f 272//270 269//270 271//270
f 273//271 272//271 271//271
f 273//272 271//272 274//272
f 275//273 274//273 276//273
f 275//274 273//274 274//274
f 277//275 276//275 278//275
f 277//276 275//276 276//276
f 279//277 278//277 280//277
f 279//278 277//278 278//278
f 281//279 280//279 282//279
f 281//280 279//280 280//280
f 283//281 282//281 284//281
f 283//282 281//282 282//282
f 285//283 284//283 286//283
f 285//284 283//284 284//284
f 287//285 286//285 288//285
f 287//286 288//286 289//286
f 287//287 285//287 286//287
f 290//288 287//288 289//288
f 291//289 289//289 292//289
f 291//290 290//290 289//290
f 293//291 292//291 294//291
f 293//292 291//292 292//292
f 295//293 294//293 296//293
f 295//294 293//294 294//294
f 297//295 296//295 298//295
f 297//296 295//296 296//296
f 299//297 298//297 300//297
f 299//298 297//298 298//298
f 301//299 299//299 300//299
f 301//300 300//300 302//300
f 303//301 302//301 304//301
f 303//302 301//302 302//302
f 305//303 304//303 306//303
f 305//304 303//304 304//304
f 307//305 305//305 306//305
f 307//306 306//306 308//306
f 309//307 308//307 310//307
f 309//308 307//308 308//308
f 311//309 310//309 312//309
f 311//310 309//310 310//310
f 313//311 312//311 314//311
f 313//312 311//312 312//312
f 315//313 314//313 316//313
f 315//314 313//314 314//314
f 317//315 316//315 318//315
f 317//316 315//316 316//316
f 319//317 318//317 320//317
f 319//318 320//318 321//318
f 319//319 317//319 318//319
f 322//320 321//320 323//320
f 322//321 319//321 321//321
f 324//322 322//322 323//322
f 325//323 323//323 326//323
f 325//324 326//324 327//324
f 325//325 324//325 323//325
f 328//326 325//326 327//326
f 329//327 327//327 330//327
f 329//328 330//328 331//328
f 329//329 328//329 327//329
f 332//330 329//330 331//330
f 333//331 331//331 334//331
f 333//332 332//332 331//332
f 335//333 333//333 334//333
f 335//334 334//334 336//334
f 337//335 335//335 336//335
f 337//336 336//336 338//336
f 337//337 338//337 339//337
f 340//338 337//338 339//338
f 340//339 339//339 341//339
f 342//340 340//340 341//340
f 343//341 342//341 341//341
f 343//342 341//342 344//342
f 345//343 343//343 344//343
f 345//344 344//344 346//344
f 347//345 346//345 348//345
f 347//346 345//346 346//346
f 349//347 348//347 350//347
f 349//348 347//348 348//348
f 351//349 349//349 350//349
f 351//350 350//350 352//350
f 353//351 352//351 354//351
f 353//352 354//352 355//352
f 353//353 351//353 352//353
f 356//354 353//354 355//354
f 357//355 355//355 358//355
f 357//356 356//356 355//356
f 359//357 358//357 360//357
f 359//358 360//358 361//358
f 359//359 357//359 358//359
f 362//360 361//360 363//360
f 362//361 359//361 361//361
f 364//362 362//362 363//362
f 365//363 363//363 366//363
f 365//364 366//364 367//364
f 365//365 364//365 363//365
f 368//366 365//366 367//366
f 369//367 367//367 370//367
f 369//368 370//368 371//368
f 369//369 368//369 367//369
f 372//370 371//370 373//370
f 372//371 369//371 371//371
f 374//372 372//372 373//372
f 375//373 373//373 376//373
f 375//374 374//374 373//374
f 377//375 376//375 378//375
f 377//376 375//376 376//376
f 379//377 377//377 378//377
f 379//378 378//378 380//378
f 381//379 380//379 382//379
f 381//380 379//380 380//380
f 383//381 382//381 384//381
f 383//382 381//382 382//382
f 385//383 383//383 384//383
f 385//384 384//384 386//384
f 387//385 386//385 388//385
f 387//386 385//386 386//386
f 389//387 388//387 390//387
f 389//388 390//388 391//388
f 389//389 387//389 388//389
f 392//390 389//390 391//390
f 393//391 391//391 394//391
f 393//392 394//392 395//392
f 393//393 392//393 391//393
f 396//394 395//394 397//394
f 396//395 393//395 395//395
f 398//396 396//396 397//396
f 399//397 397//397 400//397
f 399//398 398//398 397//398
f 401//399 400//399 402//399
f 401//400 399//400 400//400
f 403//401 402//401 404//401
f 403//402 401//402 402//402
f 405//403 404//403 406//403
f 405//404 403//404 404//404
f 407//405 406//405 408//405
f 407//406 405//406 406//406
f 409//407 408//407 410//407
f 409//408 410//408 411//408
f 409//409 407//409 408//409
f 412//410 409//410 411//410
f 413//411 412//411 411//411
f 413//412 411//412 414//412
f 415//413 413//413 414//413
f 415//414 414//414 416//414
f 415//415 416//415 417//415
f 418//416 415//416 417//416
f 419//417 418//417 417//417
f 419//418 417//418 420//418
f 266//419 419//419 420//419
f 266//420 420//420 267//420
g MeshExport013
f 421//421 422//421 423//421
f 421//422 423//422 424//422
f 425//423 424//423 426//423
f 425//424 426//424 427//424
f 425//425 421//425 424//425
f 428//426 425//426 427//426
f 429//427 427//427 430//427
f 429//428 430//428 431//428
f 429//429 428//429 427//429
f 432//430 429//430 431//430
f 433//431 431//431 434//431
f 433//432 434//432 435//432
f 433//433 432//433 431//433
f 436//434 433//434 435//434
f 437//435 435//435 438//435
f 437//436 436//436 435//436
f 439//437 438//437 440//437
f 439//438 437//438 438//438
f 441//439 440//439 442//439
f 441//440 442//440 443//440
f 441//441 439//441 440//441
f 444//442 441//442 443//442
f 445//443 443//443 446//443
f 445//444 446//444 447//444
f 445//445 444//445 443//445
f 448//446 445//446 447//446
f 449//447 447//447 450//447
f 449//448 448//448 447//448
f 451//449 450//449 452//449
f 451//450 449//450 450//450
f 453//451 452//451 454//451
f 453//452 451//452 452//452
f 455//453 454//453 456//453
f 455//454 456//454 457//454
f 455//455 453//455 454//455
f 458//456 455//456 457//456
f 459//457 457//457 460//457
f 459//458 458//458 457//458
f 461//459 460//459 462//459
f 461//460 459//460 460//460
f 463//461 462//461 464//461
f 463//462 461//462 462//462
f 465//463 464//463 466//463
f 465//464 463//464 464//464
f 467//465 465//465 466//465
f 467//466 466//466 468//466
f 469//467 467//467 468//467
f 469//468 468//468 470//468
f 471//469 469//469 470//469
f 471//470 470//470 472//470
f 473//471 471//471 472//471
f 473//472 472//472 474//472
f 475//473 473//473 474//473
f 475//474 474//474 476//474
f 477//475 475//475 476//475
f 477//476 476//476 478//476
f 479//477 478//477 480//477
f 479//478 477//478 478//478
f 481//479 480//479 482//479
f 481//480 479//480 480//480
f 483//481 482//481 484//481
f 483//482 481//482 482//482
f 485//483 484//483 486//483
f 485//484 483//484 484//484
f 487//485 486//485 488//485
f 487//486 485//486 486//486
f 489//487 488//487 490//487
f 489//488 487//488 488//488
f 491//489 490//489 492//489
f 491//490 489//490 490//490
f 493//491 492//491 494//491
f 493//492 491//492 492//492
f 495//493 494//493 496//493
f 495//494 493//494 494//494
f 497//495 496//495 498//495
f 497//496 495//496 496//496
f 499//497 498//497 500//497
f 499//498 497//498 498//498
f 501//499 500//499 502//499
f 501//500 499//500 500//500
f 503//501 502//501 504//501
f 503//502 501//502 502//502
f 505//503 504//503 506//503
f 505//504 503//504 504//504
f 507//505 506//505 508//505
f 507//506 505//506 506//506
f 509//507 508//507 510//507
f 509//508 507//508 508//508
f 511//509 510//509 512//509
f 511//510 509//510 510//510
f 513//511 512//511 514//511
f 513//512 511//512 512//512
f 515//513 513//513 514//513
f 515//514 514//514 516//514
f 517//515 515//515 516//515
f 517//516 516//516 518//516
f 519//517 517//517 518//517
f 519//518 518//518 520//518
f 521//519 519//519 520//519
f 521//520 520//520 522//520
f 523//521 521//521 522//521
f 523//522 522//522 524//522
f 525//523 523//523 524//523
f 525//524 524//524 526//524
f 527//525 525//525 526//525
f 527//526 526//526 528//526
f 527//527 528//527 423//527
f 422//528 527//528 423//528
g MeshExport014
f 529//529 530//529 531//529
f 529//530 531//530 532//530
f 533//531 534//531 535//531
f 533//532 535//532 536//532
f 537//533 538//533 539//533
f 537//534 539//534 540//534
f 541//535 542//535 543//535
f 541//536 543//536 544//536
f 545//537 546//537 547//537
f 545//538 547//538 548//538
f 549//539 550//539 551//539
f 549//540 551//540 552//540
g MeshExport015
g MeshExport016
g MeshExport017
g MeshExport018
g MeshExport019
g MeshExport020
g MeshExport021
g MeshExport022
f 553//541 554//541 555//541
f 553//542 555//542 556//542
f 557//543 556//543 558//543
f 557//544 553//544 556//544
f 559//545 558//545 560//545
f 559//546 560//546 561//546
f 559//547 557//547 558//547
f 562//548 559//548 561//548
f 563//549 561//549 564//549
f 563//550 562//550 561//550
f 565//551 564//551 566//551
f 565//552 566//552 567//552
f 565//553 563//553 564//553
f 568//554 565//554 567//554
f 569//555 567//555 570//555
f 569//556 568//556 567//556
f 571//557 570//557 572//557
f 571//558 569//558 570//558
f 573//559 572//559 574//559
f 573//560 571//560 572//560
f 575//561 574//561 576//561
f 575//562 573//562 574//562
f 577//563 576//563 578//563
f 577//564 575//564 576//564
f 579//565 578//565 580//565
f 579//566 577//566 578//566
f 581//567 580//567 582//567
f 581//568 579//568 580//568
f 583//569 581//569 582//569
f 583//570 582//570 584//570
f 585//571 583//571 584//571
f 585//572 584//572 586//572
f 587//573 585//573 586//573
f 587//574 586//574 588//574
f 554//575 587//575 588//575
f 554//576 588//576 555//576
