# Created by FreeCAD <https://www.freecad.org>
v -274.195496 914.400024 39.025570
v -286.474792 914.400024 35.783855
v -275.816376 914.400024 45.165222
v -288.095673 914.400024 41.923504
v -286.474792 -0.000000 35.783855
v -274.195496 -0.000000 39.025570
v -274.195496 -914.400024 39.025570
v -286.474792 -914.400024 35.783855
v -275.816376 -914.400024 45.165222
v -288.095673 -914.400024 41.923504
v -288.095673 -0.000000 41.923504
v -275.816376 -0.000000 45.165222
v -274.195496 914.400024 39.025570
v -286.474792 914.400024 35.783855
v -275.816376 914.400024 45.165222
v -288.095673 914.400024 41.923504
v -286.474792 -0.000000 35.783855
v -274.195496 -0.000000 39.025570
v -274.195496 -914.400024 39.025570
v -286.474792 -914.400024 35.783855
v -275.816376 -914.400024 45.165222
v -288.095673 -914.400024 41.923504
v -288.095673 -0.000000 41.923504
v -275.816376 -0.000000 45.165222
vn 0.000000 1.000000 0.000000
vn 0.000000 1.000000 0.000000
vn 0.255253 0.000000 -0.966874
vn 0.255253 0.000000 -0.966874
vn 0.255253 0.000000 -0.966874
vn 0.255253 0.000000 -0.966874
vn 0.000000 -1.000000 0.000000
vn 0.000000 -1.000000 0.000000
vn -0.966873 0.000000 -0.255257
vn -0.966873 0.000000 -0.255257
vn -0.966873 0.000000 -0.255257
vn -0.966873 0.000000 -0.255257
vn 0.966873 -0.000000 0.255256
vn 0.966873 -0.000000 0.255256
vn 0.966873 0.000000 0.255256
vn 0.966873 -0.000000 0.255256
vn -0.255253 0.000000 0.966874
vn -0.255253 0.000000 0.966874
vn -0.255253 0.000000 0.966874
vn -0.255253 0.000000 0.966874
vn 0.000000 1.000000 0.000000
vn 0.000000 1.000000 0.000000
vn 0.255253 0.000000 -0.966874
vn 0.255253 0.000000 -0.966874
vn 0.255253 0.000000 -0.966874
vn 0.255253 0.000000 -0.966874
vn 0.000000 -1.000000 0.000000
vn 0.000000 -1.000000 0.000000
vn -0.966873 0.000000 -0.255257
vn -0.966873 0.000000 -0.255257
vn -0.966873 0.000000 -0.255257
vn -0.966873 0.000000 -0.255257
vn 0.966873 -0.000000 0.255256
vn 0.966873 -0.000000 0.255256
vn 0.966873 0.000000 0.255256
vn 0.966873 -0.000000 0.255256
vn -0.255253 0.000000 0.966874
vn -0.255253 0.000000 0.966874
vn -0.255253 0.000000 0.966874
vn -0.255253 0.000000 0.966874
g MeshExport007
f 1//1 2//1 3//1
f 3//2 2//2 4//2
f 5//3 6//3 7//3
f 5//4 7//4 8//4
f 2//5 1//5 6//5
f 2//6 6//6 5//6
f 8//7 7//7 9//7
f 8//8 9//8 10//8
f 5//9 11//9 4//9
f 5//10 4//10 2//10
f 8//11 10//11 11//11
f 8//12 11//12 5//12
f 6//13 1//13 3//13
f 12//14 6//14 3//14
f 9//15 7//15 6//15
f 9//16 6//16 12//16
f 12//17 11//17 10//17
f 12//18 10//18 9//18
f 3//19 4//19 11//19
f 3//20 11//20 12//20
g MeshExport008
g MeshExport009
g MeshExport010
g MeshExport011
g MeshExport012
g MeshExport013
g MeshExport014
g MeshExport015
f 13//21 14//21 15//21
f 15//22 14//22 16//22
f 17//23 18//23 19//23
f 17//24 19//24 20//24
f 14//25 13//25 18//25
f 14//26 18//26 17//26
f 20//27 19//27 21//27
f 20//28 21//28 22//28
f 17//29 23//29 16//29
f 17//30 16//30 14//30
f 20//31 22//31 23//31
f 20//32 23//32 17//32
f 18//33 13//33 15//33
f 24//34 18//34 15//34
f 21//35 19//35 18//35
f 21//36 18//36 24//36
f 24//37 23//37 22//37
f 24//38 22//38 21//38
f 15//39 16//39 23//39
f 15//40 23//40 24//40
