# Created by FreeCAD <https://www.freecad.org>
v 38.040817 -914.400024 44.560555
v 41.309177 -914.400024 41.309177
v 41.309177 914.400024 41.309177
v 38.040817 914.400024 44.560555
v 34.527115 -914.400024 47.545105
v 34.527115 914.400024 47.545105
v 30.789795 -914.400024 50.244381
v 30.789795 914.400024 50.244381
v 26.752752 -914.400024 52.505234
v 26.752752 914.400024 52.505234
v 22.550770 -914.400024 54.442371
v 22.550770 914.400024 54.442371
v 18.209753 -914.400024 56.043858
v 18.209753 914.400024 56.043858
v 13.756469 -914.400024 57.299816
v 13.756469 914.400024 57.299816
v 9.218370 -914.400024 58.202499
v 9.218370 914.400024 58.202499
v 4.623437 -914.400024 58.746346
v 4.623437 914.400024 58.746346
v -0.000000 -914.400024 58.928001
v -0.000000 914.400024 58.928001
v -4.623437 -914.400024 58.746346
v -4.623437 914.400024 58.746346
v -9.218370 914.400024 58.202499
v -9.218370 -914.400024 58.202499
v -13.756469 -914.400024 57.299816
v -13.756469 914.400024 57.299816
v -18.209753 -914.400024 56.043858
v -18.209753 914.400024 56.043858
v -22.550770 -914.400024 54.442371
v -22.550770 914.400024 54.442371
v -26.752752 914.400024 52.505234
v -26.752752 -914.400024 52.505234
v -30.789795 -914.400024 50.244381
v -30.789795 914.400024 50.244381
v -34.527115 -914.400024 47.545105
v -34.527115 914.400024 47.545105
v -38.040817 -914.400024 44.560555
v -38.040817 914.400024 44.560555
v -41.309177 -914.400024 41.309177
v -41.309177 914.400024 41.309177
v -44.579372 -914.400024 37.756802
v -44.579372 914.400024 37.756802
v -47.545044 -914.400024 33.946507
v -47.545044 914.400024 33.946507
v -50.185932 -914.400024 29.904325
v -50.185932 914.400024 29.904325
v -52.484001 -914.400024 25.657866
v -52.484001 914.400024 25.657866
v -54.423550 -914.400024 21.236135
v -54.423550 914.400024 21.236135
v -55.991333 -914.400024 16.669342
v -55.991333 914.400024 16.669342
v -57.176640 -914.400024 11.988680
v -57.176640 914.400024 11.988680
v -57.971367 914.400024 7.226123
v -57.971367 -914.400024 7.226123
v -58.370094 914.400024 2.414205
v -58.370094 -914.400024 2.414205
v -58.370094 -914.400024 -2.414205
v -58.370094 914.400024 -2.414205
v -57.971367 914.400024 -7.226123
v -57.971367 -914.400024 -7.226123
v -57.176640 -914.400024 -11.988680
v -57.176640 914.400024 -11.988680
v -55.991333 914.400024 -16.669342
v -55.991333 -914.400024 -16.669342
v -54.423550 -914.400024 -21.236135
v -54.423550 914.400024 -21.236135
v -52.484001 -914.400024 -25.657866
v -52.484001 914.400024 -25.657866
v -50.185932 -914.400024 -29.904325
v -50.185932 914.400024 -29.904325
v -47.545044 914.400024 -33.946507
v -47.545044 -914.400024 -33.946507
v -44.579372 914.400024 -37.756802
v -44.579372 -914.400024 -37.756802
v -41.309177 -914.400024 -41.309177
v -41.309177 914.400024 -41.309177
v -38.040817 -914.400024 -44.560555
v -38.040817 914.400024 -44.560555
v -34.527115 -914.400024 -47.545105
v -34.527115 914.400024 -47.545105
v -30.789795 -914.400024 -50.244381
v -30.789795 914.400024 -50.244381
v -26.752752 -914.400024 -52.505234
v -26.752752 914.400024 -52.505234
v -22.550770 -914.400024 -54.442371
v -22.550770 914.400024 -54.442371
v -18.209753 914.400024 -56.043858
v -18.209753 -914.400024 -56.043858
v -13.756469 -914.400024 -57.299816
v -13.756469 914.400024 -57.299816
v -9.218370 -914.400024 -58.202499
v -9.218370 914.400024 -58.202499
v -4.623437 914.400024 -58.746346
v -4.623437 -914.400024 -58.746346
v 0.000000 914.400024 -58.928001
v 0.000000 -914.400024 -58.928001
v 4.623437 -914.400024 -58.746346
v 4.623437 914.400024 -58.746346
v 9.218370 914.400024 -58.202499
v 9.218370 -914.400024 -58.202499
v 13.756469 -914.400024 -57.299816
v 13.756469 914.400024 -57.299816
v 18.209753 914.400024 -56.043858
v 18.209753 -914.400024 -56.043858
v 22.550770 914.400024 -54.442371
v 22.550770 -914.400024 -54.442371
v 26.752752 -914.400024 -52.505234
v 26.752752 914.400024 -52.505234
v 30.789795 -914.400024 -50.244381
v 30.789795 914.400024 -50.244381
v 34.527115 -914.400024 -47.545105
v 34.527115 914.400024 -47.545105
v 38.040817 -914.400024 -44.560555
v 38.040817 914.400024 -44.560555
v 41.309177 -914.400024 -41.309177
v 41.309177 914.400024 -41.309177
v 44.579372 -914.400024 -37.756802
v 44.579372 914.400024 -37.756802
v 47.545044 -914.400024 -33.946507
v 47.545044 914.400024 -33.946507
v 50.185932 -914.400024 -29.904325
v 50.185932 914.400024 -29.904325
v 52.484001 914.400024 -25.657866
v 52.484001 -914.400024 -25.657866
v 54.423550 -914.400024 -21.236135
v 54.423550 914.400024 -21.236135
v 55.991333 914.400024 -16.669342
v 55.991333 -914.400024 -16.669342
v 57.176640 914.400024 -11.988680
v 57.176640 -914.400024 -11.988680
v 57.971367 -914.400024 -7.226123
v 57.971367 914.400024 -7.226123
v 58.370094 -914.400024 -2.414205
v 58.370094 914.400024 -2.414205
v 58.370094 -914.400024 2.414205
v 58.370094 914.400024 2.414205
v 57.971367 -914.400024 7.226123
v 57.971367 914.400024 7.226123
v 57.176640 -914.400024 11.988680
v 57.176640 914.400024 11.988680
v 55.991333 -914.400024 16.669342
v 55.991333 914.400024 16.669342
v 54.423550 914.400024 21.236135
v 54.423550 -914.400024 21.236135
v 52.484001 -914.400024 25.657866
v 52.484001 914.400024 25.657866
v 50.185932 -914.400024 29.904325
v 50.185932 914.400024 29.904325
v 47.545044 914.400024 33.946507
v 47.545044 -914.400024 33.946507
v 44.579372 -914.400024 37.756802
v 44.579372 914.400024 37.756802
v 38.040817 -914.400024 44.560555
v 41.309177 -914.400024 41.309177
v 41.309177 914.400024 41.309177
v 38.040817 914.400024 44.560555
v 34.527115 -914.400024 47.545105
v 34.527115 914.400024 47.545105
v 30.789795 -914.400024 50.244381
v 30.789795 914.400024 50.244381
v 26.752752 -914.400024 52.505234
v 26.752752 914.400024 52.505234
v 22.550770 -914.400024 54.442371
v 22.550770 914.400024 54.442371
v 18.209753 -914.400024 56.043858
v 18.209753 914.400024 56.043858
v 13.756469 -914.400024 57.299816
v 13.756469 914.400024 57.299816
v 9.218370 -914.400024 58.202499
v 9.218370 914.400024 58.202499
v 4.623437 -914.400024 58.746346
v 4.623437 914.400024 58.746346
v -0.000000 -914.400024 58.928001
v -0.000000 914.400024 58.928001
v -4.623437 -914.400024 58.746346
v -4.623437 914.400024 58.746346
v -9.218370 914.400024 58.202499
v -9.218370 -914.400024 58.202499
v -13.756469 -914.400024 57.299816
v -13.756469 914.400024 57.299816
v -18.209753 -914.400024 56.043858
v -18.209753 914.400024 56.043858
v -22.550770 -914.400024 54.442371
v -22.550770 914.400024 54.442371
v -26.752752 914.400024 52.505234
v -26.752752 -914.400024 52.505234
v -30.789795 -914.400024 50.244381
v -30.789795 914.400024 50.244381
v -34.527115 -914.400024 47.545105
v -34.527115 914.400024 47.545105
v -38.040817 -914.400024 44.560555
v -38.040817 914.400024 44.560555
v -41.309177 -914.400024 41.309177
v -41.309177 914.400024 41.309177
v -44.579372 -914.400024 37.756802
v -44.579372 914.400024 37.756802
v -47.545044 -914.400024 33.946507
v -47.545044 914.400024 33.946507
v -50.185932 -914.400024 29.904325
v -50.185932 914.400024 29.904325
v -52.484001 -914.400024 25.657866
v -52.484001 914.400024 25.657866
v -54.423550 -914.400024 21.236135
v -54.423550 914.400024 21.236135
v -55.991333 -914.400024 16.669342
v -55.991333 914.400024 16.669342
v -57.176640 -914.400024 11.988680
v -57.176640 914.400024 11.988680
v -57.971367 914.400024 7.226123
v -57.971367 -914.400024 7.226123
v -58.370094 914.400024 2.414205
v -58.370094 -914.400024 2.414205
v -58.370094 -914.400024 -2.414205
v -58.370094 914.400024 -2.414205
v -57.971367 914.400024 -7.226123
v -57.971367 -914.400024 -7.226123
v -57.176640 -914.400024 -11.988680
v -57.176640 914.400024 -11.988680
v -55.991333 914.400024 -16.669342
v -55.991333 -914.400024 -16.669342
v -54.423550 -914.400024 -21.236135
v -54.423550 914.400024 -21.236135
v -52.484001 -914.400024 -25.657866
v -52.484001 914.400024 -25.657866
v -50.185932 -914.400024 -29.904325
v -50.185932 914.400024 -29.904325
v -47.545044 914.400024 -33.946507
v -47.545044 -914.400024 -33.946507
v -44.579372 914.400024 -37.756802
v -44.579372 -914.400024 -37.756802
v -41.309177 -914.400024 -41.309177
v -41.309177 914.400024 -41.309177
v -38.040817 -914.400024 -44.560555
v -38.040817 914.400024 -44.560555
v -34.527115 -914.400024 -47.545105
v -34.527115 914.400024 -47.545105
v -30.789795 -914.400024 -50.244381
v -30.789795 914.400024 -50.244381
v -26.752752 -914.400024 -52.505234
v -26.752752 914.400024 -52.505234
v -22.550770 -914.400024 -54.442371
v -22.550770 914.400024 -54.442371
v -18.209753 914.400024 -56.043858
v -18.209753 -914.400024 -56.043858
v -13.756469 -914.400024 -57.299816
v -13.756469 914.400024 -57.299816
v -9.218370 -914.400024 -58.202499
v -9.218370 914.400024 -58.202499
v -4.623437 914.400024 -58.746346
v -4.623437 -914.400024 -58.746346
v 0.000000 914.400024 -58.928001
v 0.000000 -914.400024 -58.928001
v 4.623437 -914.400024 -58.746346
v 4.623437 914.400024 -58.746346
v 9.218370 914.400024 -58.202499
v 9.218370 -914.400024 -58.202499
v 13.756469 -914.400024 -57.299816
v 13.756469 914.400024 -57.299816
v 18.209753 914.400024 -56.043858
v 18.209753 -914.400024 -56.043858
v 22.550770 914.400024 -54.442371
v 22.550770 -914.400024 -54.442371
v 26.752752 -914.400024 -52.505234
v 26.752752 914.400024 -52.505234
v 30.789795 -914.400024 -50.244381
v 30.789795 914.400024 -50.244381
v 34.527115 -914.400024 -47.545105
v 34.527115 914.400024 -47.545105
v 38.040817 -914.400024 -44.560555
v 38.040817 914.400024 -44.560555
v 41.309177 -914.400024 -41.309177
v 41.309177 914.400024 -41.309177
v 44.579372 -914.400024 -37.756802
v 44.579372 914.400024 -37.756802
v 47.545044 -914.400024 -33.946507
v 47.545044 914.400024 -33.946507
v 50.185932 -914.400024 -29.904325
v 50.185932 914.400024 -29.904325
v 52.484001 914.400024 -25.657866
v 52.484001 -914.400024 -25.657866
v 54.423550 -914.400024 -21.236135
v 54.423550 914.400024 -21.236135
v 55.991333 914.400024 -16.669342
v 55.991333 -914.400024 -16.669342
v 57.176640 914.400024 -11.988680
v 57.176640 -914.400024 -11.988680
v 57.971367 -914.400024 -7.226123
v 57.971367 914.400024 -7.226123
v 58.370094 -914.400024 -2.414205
v 58.370094 914.400024 -2.414205
v 58.370094 -914.400024 2.414205
v 58.370094 914.400024 2.414205
v 57.971367 -914.400024 7.226123
v 57.971367 914.400024 7.226123
v 57.176640 -914.400024 11.988680
v 57.176640 914.400024 11.988680
v 55.991333 -914.400024 16.669342
v 55.991333 914.400024 16.669342
v 54.423550 914.400024 21.236135
v 54.423550 -914.400024 21.236135
v 52.484001 -914.400024 25.657866
v 52.484001 914.400024 25.657866
v 50.185932 -914.400024 29.904325
v 50.185932 914.400024 29.904325
v 47.545044 914.400024 33.946507
v 47.545044 -914.400024 33.946507
v 44.579372 -914.400024 37.756802
v 44.579372 914.400024 37.756802
v 152.399994 -911.224976 152.399994
v -152.399994 -911.224976 152.399994
v -152.399994 -911.224976 -152.399994
v 152.399994 -911.224976 -152.399994
v 152.399994 -546.734985 152.399994
v -152.399994 -546.734985 152.399994
v -152.399994 -546.734985 -152.399994
v 152.399994 -546.734985 -152.399994
v 152.399994 -182.244995 152.399994
v -152.399994 -182.244995 152.399994
v -152.399994 -182.244995 -152.399994
v 152.399994 -182.244995 -152.399994
v 152.399994 182.244995 152.399994
v -152.399994 182.244995 152.399994
v -152.399994 182.244995 -152.399994
v 152.399994 182.244995 -152.399994
v 152.399994 546.734985 152.399994
v -152.399994 546.734985 152.399994
v -152.399994 546.734985 -152.399994
v 152.399994 546.734985 -152.399994
v 152.399994 911.224976 152.399994
v -152.399994 911.224976 152.399994
v -152.399994 911.224976 -152.399994
v 152.399994 911.224976 -152.399994
v -401.853638 -889.000000 -47.909523
v -401.662170 -889.000000 -48.995438
v -401.662170 -939.799988 -48.995438
v -401.853638 -939.799988 -47.909523
v -402.404968 -889.000000 -46.954586
v -402.404968 -939.799988 -46.954586
v -403.249664 -889.000000 -46.245808
v -403.249664 -939.799988 -46.245808
v -404.285828 -939.799988 -45.868671
v -404.285828 -889.000000 -45.868671
v -405.388489 -889.000000 -45.868671
v -405.388489 -939.799988 -45.868671
v -406.424652 -889.000000 -46.245808
v -406.424652 -939.799988 -46.245808
v -407.269348 -939.799988 -46.954586
v -407.269348 -889.000000 -46.954586
v -407.820679 -889.000000 -47.909523
v -407.820679 -939.799988 -47.909523
v -408.012177 -889.000000 -48.995438
v -408.012177 -939.799988 -48.995438
v -407.820679 -889.000000 -50.081352
v -407.820679 -939.799988 -50.081352
v -407.269348 -889.000000 -51.036289
v -407.269348 -939.799988 -51.036289
v -406.424652 -889.000000 -51.745068
v -406.424652 -939.799988 -51.745068
v -405.388489 -889.000000 -52.122200
v -405.388489 -939.799988 -52.122200
v -404.285828 -889.000000 -52.122200
v -404.285828 -939.799988 -52.122200
v -403.249664 -889.000000 -51.745068
v -403.249664 -939.799988 -51.745068
v -402.404968 -889.000000 -51.036289
v -402.404968 -939.799988 -51.036289
v -401.853638 -889.000000 -50.081352
v -401.853638 -939.799988 -50.081352
vn 0.705262 0.000000 0.708946
vn 0.705262 -0.000000 0.708946
vn 0.647384 -0.000000 0.762164
vn 0.647384 0.000000 0.762164
vn 0.585505 -0.000000 0.810669
vn 0.585505 0.000000 0.810669
vn 0.488621 0.000000 0.872496
vn 0.488621 -0.000000 0.872496
vn 0.418659 -0.000000 0.908143
vn 0.418659 0.000000 0.908143
vn 0.346117 -0.000000 0.938191
vn 0.346117 0.000000 0.938191
vn 0.271441 -0.000000 0.962455
vn 0.271441 0.000000 0.962455
vn 0.195090 -0.000000 0.980785
vn 0.195090 0.000000 0.980785
vn 0.117537 -0.000000 0.993069
vn 0.117537 0.000000 0.993069
vn 0.039260 0.000000 0.999229
vn 0.039260 0.000000 0.999229
vn -0.039260 0.000000 0.999229
vn -0.117537 0.000000 0.993069
vn -0.039260 0.000000 0.999229
vn -0.117537 0.000000 0.993069
vn -0.195090 0.000000 0.980785
vn -0.195090 0.000000 0.980785
vn -0.271441 0.000000 0.962455
vn -0.271441 0.000000 0.962455
vn -0.346117 0.000000 0.938191
vn -0.418659 0.000000 0.908143
vn -0.346117 0.000000 0.938191
vn -0.418659 0.000000 0.908143
vn -0.488621 0.000000 0.872496
vn -0.488621 0.000000 0.872496
vn -0.585505 0.000000 0.810669
vn -0.585505 0.000000 0.810669
vn -0.647384 0.000000 0.762164
vn -0.647384 0.000000 0.762164
vn -0.705262 0.000000 0.708946
vn -0.705262 0.000000 0.708946
vn -0.735724 0.000000 0.677282
vn -0.735724 0.000000 0.677282
vn -0.789141 0.000000 0.614213
vn -0.789141 0.000000 0.614213
vn -0.837167 0.000000 0.546948
vn -0.837167 0.000000 0.546948
vn -0.879474 0.000000 0.475947
vn -0.879474 0.000000 0.475947
vn -0.915773 0.000000 0.401695
vn -0.915773 0.000000 0.401695
vn -0.945817 0.000000 0.324700
vn -0.945817 0.000000 0.324700
vn -0.969400 0.000000 0.245486
vn -0.986361 0.000000 0.164594
vn -0.969400 0.000000 0.245486
vn -0.996585 0.000000 0.082579
vn -0.986361 0.000000 0.164594
vn -0.996585 0.000000 0.082579
vn -1.000000 0.000000 0.000000
vn -0.996585 0.000000 -0.082579
vn -1.000000 0.000000 0.000000
vn -0.996585 0.000000 -0.082579
vn -0.986361 0.000000 -0.164594
vn -0.969400 0.000000 -0.245486
vn -0.986361 0.000000 -0.164594
vn -0.969400 0.000000 -0.245486
vn -0.945817 0.000000 -0.324700
vn -0.945817 0.000000 -0.324700
vn -0.915773 0.000000 -0.401695
vn -0.915773 0.000000 -0.401695
vn -0.879474 0.000000 -0.475947
vn -0.879474 0.000000 -0.475947
vn -0.837167 0.000000 -0.546948
vn -0.837167 0.000000 -0.546948
vn -0.789141 0.000000 -0.614213
vn -0.789141 0.000000 -0.614213
vn -0.735724 0.000000 -0.677282
vn -0.735724 0.000000 -0.677282
vn -0.705262 0.000000 -0.708946
vn -0.705262 0.000000 -0.708946
vn -0.647384 0.000000 -0.762164
vn -0.647384 0.000000 -0.762164
vn -0.585505 0.000000 -0.810669
vn -0.585505 0.000000 -0.810669
vn -0.488621 0.000000 -0.872496
vn -0.488621 0.000000 -0.872496
vn -0.418659 0.000000 -0.908143
vn -0.346117 0.000000 -0.938191
vn -0.418659 0.000000 -0.908143
vn -0.346117 0.000000 -0.938191
vn -0.271441 0.000000 -0.962455
vn -0.271441 0.000000 -0.962455
vn -0.195090 0.000000 -0.980785
vn -0.117537 0.000000 -0.993069
vn -0.195090 0.000000 -0.980785
vn -0.039260 0.000000 -0.999229
vn -0.117537 0.000000 -0.993069
vn -0.039260 -0.000000 -0.999229
vn 0.039260 0.000000 -0.999229
vn 0.117537 0.000000 -0.993069
vn 0.039260 0.000000 -0.999229
vn 0.117537 0.000000 -0.993069
vn 0.195090 0.000000 -0.980785
vn 0.271441 0.000000 -0.962455
vn 0.195090 0.000000 -0.980785
vn 0.346117 0.000000 -0.938191
vn 0.271441 0.000000 -0.962455
vn 0.346117 0.000000 -0.938191
vn 0.418659 0.000000 -0.908143
vn 0.418659 0.000000 -0.908143
vn 0.488621 0.000000 -0.872496
vn 0.488621 0.000000 -0.872496
vn 0.585505 0.000000 -0.810669
vn 0.585505 0.000000 -0.810669
vn 0.647384 0.000000 -0.762164
vn 0.647384 0.000000 -0.762164
vn 0.705262 0.000000 -0.708946
vn 0.705262 0.000000 -0.708946
vn 0.735724 0.000000 -0.677282
vn 0.735724 0.000000 -0.677282
vn 0.789141 0.000000 -0.614213
vn 0.789141 0.000000 -0.614213
vn 0.837167 0.000000 -0.546948
vn 0.879474 0.000000 -0.475947
vn 0.837167 0.000000 -0.546948
vn 0.879474 0.000000 -0.475947
vn 0.915773 0.000000 -0.401695
vn 0.945817 0.000000 -0.324700
vn 0.915773 0.000000 -0.401695
vn 0.969400 0.000000 -0.245486
vn 0.945817 0.000000 -0.324700
vn 0.969400 0.000000 -0.245486
vn 0.986361 0.000000 -0.164594
vn 0.986361 0.000000 -0.164594
vn 0.996585 0.000000 -0.082579
vn 0.996585 0.000000 -0.082579
vn 1.000000 -0.000000 0.000000
vn 1.000000 0.000000 0.000000
vn 0.996585 -0.000000 0.082579
vn 0.996585 0.000000 0.082579
vn 0.986361 -0.000000 0.164594
vn 0.986361 0.000000 0.164594
vn 0.969400 -0.000000 0.245486
vn 0.945817 -0.000000 0.324700
vn 0.969400 0.000000 0.245486
vn 0.945817 -0.000000 0.324700
vn 0.915773 0.000000 0.401695
vn 0.915773 -0.000000 0.401695
vn 0.879474 0.000000 0.475947
vn 0.879474 -0.000000 0.475947
vn 0.837167 -0.000000 0.546948
vn 0.837167 -0.000000 0.546948
vn 0.789141 0.000000 0.614213
vn 0.789141 -0.000000 0.614213
vn 0.735724 0.000000 0.677282
vn 0.735724 -0.000000 0.677282
vn 0.705262 0.000000 0.708946
vn 0.705262 -0.000000 0.708946
vn 0.647384 -0.000000 0.762164
vn 0.647384 0.000000 0.762164
vn 0.585505 -0.000000 0.810669
vn 0.585505 0.000000 0.810669
vn 0.488621 0.000000 0.872496
vn 0.488621 -0.000000 0.872496
vn 0.418659 -0.000000 0.908143
vn 0.418659 0.000000 0.908143
vn 0.346117 -0.000000 0.938191
vn 0.346117 0.000000 0.938191
vn 0.271441 -0.000000 0.962455
vn 0.271441 0.000000 0.962455
vn 0.195090 -0.000000 0.980785
vn 0.195090 0.000000 0.980785
vn 0.117537 -0.000000 0.993069
vn 0.117537 0.000000 0.993069
vn 0.039260 0.000000 0.999229
vn 0.039260 0.000000 0.999229
vn -0.039260 0.000000 0.999229
vn -0.117537 0.000000 0.993069
vn -0.039260 0.000000 0.999229
vn -0.117537 0.000000 0.993069
vn -0.195090 0.000000 0.980785
vn -0.195090 0.000000 0.980785
vn -0.271441 0.000000 0.962455
vn -0.271441 0.000000 0.962455
vn -0.346117 0.000000 0.938191
vn -0.418659 0.000000 0.908143
vn -0.346117 0.000000 0.938191
vn -0.418659 0.000000 0.908143
vn -0.488621 0.000000 0.872496
vn -0.488621 0.000000 0.872496
vn -0.585505 0.000000 0.810669
vn -0.585505 0.000000 0.810669
vn -0.647384 0.000000 0.762164
vn -0.647384 0.000000 0.762164
vn -0.705262 0.000000 0.708946
vn -0.705262 0.000000 0.708946
vn -0.735724 0.000000 0.677282
vn -0.735724 0.000000 0.677282
vn -0.789141 0.000000 0.614213
vn -0.789141 0.000000 0.614213
vn -0.837167 0.000000 0.546948
vn -0.837167 0.000000 0.546948
vn -0.879474 0.000000 0.475947
vn -0.879474 0.000000 0.475947
vn -0.915773 0.000000 0.401695
vn -0.915773 0.000000 0.401695
vn -0.945817 0.000000 0.324700
vn -0.945817 0.000000 0.324700
vn -0.969400 0.000000 0.245486
vn -0.986361 0.000000 0.164594
vn -0.969400 0.000000 0.245486
vn -0.996585 0.000000 0.082579
vn -0.986361 0.000000 0.164594
vn -0.996585 0.000000 0.082579
vn -1.000000 0.000000 0.000000
vn -0.996585 0.000000 -0.082579
vn -1.000000 0.000000 0.000000
vn -0.996585 0.000000 -0.082579
vn -0.986361 0.000000 -0.164594
vn -0.969400 0.000000 -0.245486
vn -0.986361 0.000000 -0.164594
vn -0.969400 0.000000 -0.245486
vn -0.945817 0.000000 -0.324700
vn -0.945817 0.000000 -0.324700
vn -0.915773 0.000000 -0.401695
vn -0.915773 0.000000 -0.401695
vn -0.879474 0.000000 -0.475947
vn -0.879474 0.000000 -0.475947
vn -0.837167 0.000000 -0.546948
vn -0.837167 0.000000 -0.546948
vn -0.789141 0.000000 -0.614213
vn -0.789141 0.000000 -0.614213
vn -0.735724 0.000000 -0.677282
vn -0.735724 0.000000 -0.677282
vn -0.705262 0.000000 -0.708946
vn -0.705262 0.000000 -0.708946
vn -0.647384 0.000000 -0.762164
vn -0.647384 0.000000 -0.762164
vn -0.585505 0.000000 -0.810669
vn -0.585505 0.000000 -0.810669
vn -0.488621 0.000000 -0.872496
vn -0.488621 0.000000 -0.872496
vn -0.418659 0.000000 -0.908143
vn -0.346117 0.000000 -0.938191
vn -0.418659 0.000000 -0.908143
vn -0.346117 0.000000 -0.938191
vn -0.271441 0.000000 -0.962455
vn -0.271441 0.000000 -0.962455
vn -0.195090 0.000000 -0.980785
vn -0.117537 0.000000 -0.993069
vn -0.195090 0.000000 -0.980785
vn -0.039260 0.000000 -0.999229
vn -0.117537 0.000000 -0.993069
vn -0.039260 -0.000000 -0.999229
vn 0.039260 0.000000 -0.999229
vn 0.117537 0.000000 -0.993069
vn 0.039260 0.000000 -0.999229
vn 0.117537 0.000000 -0.993069
vn 0.195090 0.000000 -0.980785
vn 0.271441 0.000000 -0.962455
vn 0.195090 0.000000 -0.980785
vn 0.346117 0.000000 -0.938191
vn 0.271441 0.000000 -0.962455
vn 0.346117 0.000000 -0.938191
vn 0.418659 0.000000 -0.908143
vn 0.418659 0.000000 -0.908143
vn 0.488621 0.000000 -0.872496
vn 0.488621 0.000000 -0.872496
vn 0.585505 0.000000 -0.810669
vn 0.585505 0.000000 -0.810669
vn 0.647384 0.000000 -0.762164
vn 0.647384 0.000000 -0.762164
vn 0.705262 0.000000 -0.708946
vn 0.705262 0.000000 -0.708946
vn 0.735724 0.000000 -0.677282
vn 0.735724 0.000000 -0.677282
vn 0.789141 0.000000 -0.614213
vn 0.789141 0.000000 -0.614213
vn 0.837167 0.000000 -0.546948
vn 0.879474 0.000000 -0.475947
vn 0.837167 0.000000 -0.546948
vn 0.879474 0.000000 -0.475947
vn 0.915773 0.000000 -0.401695
vn 0.945817 0.000000 -0.324700
vn 0.915773 0.000000 -0.401695
vn 0.969400 0.000000 -0.245486
vn 0.945817 0.000000 -0.324700
vn 0.969400 0.000000 -0.245486
vn 0.986361 0.000000 -0.164594
vn 0.986361 0.000000 -0.164594
vn 0.996585 0.000000 -0.082579
vn 0.996585 0.000000 -0.082579
vn 1.000000 -0.000000 0.000000
vn 1.000000 0.000000 0.000000
vn 0.996585 -0.000000 0.082579
vn 0.996585 0.000000 0.082579
vn 0.986361 -0.000000 0.164594
vn 0.986361 0.000000 0.164594
vn 0.969400 -0.000000 0.245486
vn 0.945817 -0.000000 0.324700
vn 0.969400 0.000000 0.245486
vn 0.945817 -0.000000 0.324700
vn 0.915773 0.000000 0.401695
vn 0.915773 -0.000000 0.401695
vn 0.879474 0.000000 0.475947
vn 0.879474 -0.000000 0.475947
vn 0.837167 -0.000000 0.546948
vn 0.837167 -0.000000 0.546948
vn 0.789141 0.000000 0.614213
vn 0.789141 -0.000000 0.614213
vn 0.735724 0.000000 0.677282
vn 0.735724 -0.000000 0.677282
vn -0.000000 -1.000000 0.000000
vn 0.000000 -1.000000 -0.000000
vn -0.000000 -1.000000 0.000000
vn 0.000000 -1.000000 -0.000000
vn -0.000000 -1.000000 0.000000
vn 0.000000 -1.000000 -0.000000
vn -0.000000 -1.000000 0.000000
vn 0.000000 -1.000000 -0.000000
vn -0.000000 -1.000000 0.000000
vn 0.000000 -1.000000 -0.000000
vn -0.000000 -1.000000 0.000000
vn 0.000000 -1.000000 -0.000000
vn -0.984809 0.000000 -0.173640
vn -0.984809 -0.000000 -0.173640
vn -0.866026 -0.000000 -0.499998
vn -0.866026 0.000000 -0.499998
vn -0.642785 -0.000000 -0.766047
vn -0.342023 -0.000000 -0.939692
vn -0.642785 0.000000 -0.766047
vn -0.342023 -0.000000 -0.939692
vn 0.000000 0.000000 -1.000000
vn 0.000000 0.000000 -1.000000
vn 0.342023 0.000000 -0.939692
vn 0.642785 0.000000 -0.766047
vn 0.342023 0.000000 -0.939692
vn 0.642785 0.000000 -0.766047
vn 0.866026 0.000000 -0.499998
vn 0.866026 0.000000 -0.499998
vn 0.984804 0.000000 -0.173667
vn 0.984804 0.000000 -0.173667
vn 0.984804 0.000000 0.173667
vn 0.984804 0.000000 0.173667
vn 0.866026 0.000000 0.499998
vn 0.866026 0.000000 0.499998
vn 0.642785 0.000000 0.766047
vn 0.642785 0.000000 0.766047
vn 0.342020 0.000000 0.939693
vn 0.342020 0.000000 0.939693
vn 0.000000 0.000000 1.000000
vn 0.000000 0.000000 1.000000
vn -0.342020 0.000000 0.939693
vn -0.342020 0.000000 0.939693
vn -0.642785 0.000000 0.766047
vn -0.642785 0.000000 0.766047
vn -0.866026 0.000000 0.499998
vn -0.866026 0.000000 0.499998
vn -0.984809 0.000000 0.173640
vn -0.984809 0.000000 0.173640
g MeshExport009
f 1//1 2//1 3//1
f 1//2 3//2 4//2
f 5//3 4//3 6//3
f 5//4 1//4 4//4
f 7//5 6//5 8//5
f 7//6 5//6 6//6
f 9//7 7//7 8//7
f 9//8 8//8 10//8
f 11//9 10//9 12//9
f 11//10 9//10 10//10
f 13//11 12//11 14//11
f 13//12 11//12 12//12
f 15//13 14//13 16//13
f 15//14 13//14 14//14
f 17//15 16//15 18//15
f 17//16 15//16 16//16
f 19//17 18//17 20//17
f 19//18 17//18 18//18
f 21//19 20//19 22//19
f 21//20 19//20 20//20
f 23//21 22//21 24//21
f 23//22 24//22 25//22
f 23//23 21//23 22//23
f 26//24 23//24 25//24
f 27//25 25//25 28//25
f 27//26 26//26 25//26
f 29//27 28//27 30//27
f 29//28 27//28 28//28
f 31//29 30//29 32//29
f 31//30 32//30 33//30
f 31//31 29//31 30//31
f 34//32 31//32 33//32
f 35//33 33//33 36//33
f 35//34 34//34 33//34
f 37//35 35//35 36//35
f 37//36 36//36 38//36
f 39//37 38//37 40//37
f 39//38 37//38 38//38
f 41//39 40//39 42//39
f 41//40 39//40 40//40
f 43//41 41//41 42//41
f 43//42 42//42 44//42
f 45//43 44//43 46//43
f 45//44 43//44 44//44
f 47//45 46//45 48//45
f 47//46 45//46 46//46
f 49//47 48//47 50//47
f 49//48 47//48 48//48
f 51//49 50//49 52//49
f 51//50 49//50 50//50
f 53//51 52//51 54//51
f 53//52 51//52 52//52
f 55//53 54//53 56//53
f 55//54 56//54 57//54
f 55//55 53//55 54//55
f 58//56 57//56 59//56
f 58//57 55//57 57//57
f 60//58 58//58 59//58
f 61//59 59//59 62//59
f 61//60 62//60 63//60
f 61//61 60//61 59//61
f 64//62 61//62 63//62
f 65//63 63//63 66//63
f 65//64 66//64 67//64
f 65//65 64//65 63//65
f 68//66 65//66 67//66
f 69//67 67//67 70//67
f 69//68 68//68 67//68
f 71//69 69//69 70//69
f 71//70 70//70 72//70
f 73//71 71//71 72//71
f 73//72 72//72 74//72
f 73//73 74//73 75//73
f 76//74 73//74 75//74
f 76//75 75//75 77//75
f 78//76 76//76 77//76
f 79//77 78//77 77//77
f 79//78 77//78 80//78
f 81//79 79//79 80//79
f 81//80 80//80 82//80
f 83//81 82//81 84//81
f 83//82 81//82 82//82
f 85//83 84//83 86//83
f 85//84 83//84 84//84
f 87//85 85//85 86//85
f 87//86 86//86 88//86
f 89//87 88//87 90//87
f 89//88 90//88 91//88
f 89//89 87//89 88//89
f 92//90 89//90 91//90
f 93//91 91//91 94//91
f 93//92 92//92 91//92
f 95//93 94//93 96//93
f 95//94 96//94 97//94
f 95//95 93//95 94//95
f 98//96 97//96 99//96
f 98//97 95//97 97//97
f 100//98 98//98 99//98
f 101//99 99//99 102//99
f 101//100 102//100 103//100
f 101//101 100//101 99//101
f 104//102 101//102 103//102
f 105//103 103//103 106//103
f 105//104 106//104 107//104
f 105//105 104//105 103//105
f 108//106 107//106 109//106
f 108//107 105//107 107//107
f 110//108 108//108 109//108
f 111//109 109//109 112//109
f 111//110 110//110 109//110
f 113//111 112//111 114//111
f 113//112 111//112 112//112
f 115//113 113//113 114//113
f 115//114 114//114 116//114
f 117//115 116//115 118//115
f 117//116 115//116 116//116
f 119//117 118//117 120//117
f 119//118 117//118 118//118
f 121//119 119//119 120//119
f 121//120 120//120 122//120
f 123//121 122//121 124//121
f 123//122 121//122 122//122
f 125//123 124//123 126//123
f 125//124 126//124 127//124
f 125//125 123//125 124//125
f 128//126 125//126 127//126
f 129//127 127//127 130//127
f 129//128 130//128 131//128
f 129//129 128//129 127//129
f 132//130 131//130 133//130
f 132//131 129//131 131//131
f 134//132 132//132 133//132
f 135//133 133//133 136//133
f 135//134 134//134 133//134
f 137//135 136//135 138//135
f 137//136 135//136 136//136
f 139//137 138//137 140//137
f 139//138 137//138 138//138
f 141//139 140//139 142//139
f 141//140 139//140 140//140
f 143//141 142//141 144//141
f 143//142 141//142 142//142
f 145//143 144//143 146//143
f 145//144 146//144 147//144
f 145//145 143//145 144//145
f 148//146 145//146 147//146
f 149//147 148//147 147//147
f 149//148 147//148 150//148
f 151//149 149//149 150//149
f 151//150 150//150 152//150
f 151//151 152//151 153//151
f 154//152 151//152 153//152
f 155//153 154//153 153//153
f 155//154 153//154 156//154
f 2//155 155//155 156//155
f 2//156 156//156 3//156
g MeshExport010
f 157//157 158//157 159//157
f 157//158 159//158 160//158
f 161//159 160//159 162//159
f 161//160 157//160 160//160
f 163//161 162//161 164//161
f 163//162 161//162 162//162
f 165//163 163//163 164//163
f 165//164 164//164 166//164
f 167//165 166//165 168//165
f 167//166 165//166 166//166
f 169//167 168//167 170//167
f 169//168 167//168 168//168
f 171//169 170//169 172//169
f 171//170 169//170 170//170
f 173//171 172//171 174//171
f 173//172 171//172 172//172
f 175//173 174//173 176//173
f 175//174 173//174 174//174
f 177//175 176//175 178//175
f 177//176 175//176 176//176
f 179//177 178//177 180//177
f 179//178 180//178 181//178
f 179//179 177//179 178//179
f 182//180 179//180 181//180
f 183//181 181//181 184//181
f 183//182 182//182 181//182
f 185//183 184//183 186//183
f 185//184 183//184 184//184
f 187//185 186//185 188//185
f 187//186 188//186 189//186
f 187//187 185//187 186//187
f 190//188 187//188 189//188
f 191//189 189//189 192//189
f 191//190 190//190 189//190
f 193//191 191//191 192//191
f 193//192 192//192 194//192
f 195//193 194//193 196//193
f 195//194 193//194 194//194
f 197//195 196//195 198//195
f 197//196 195//196 196//196
f 199//197 197//197 198//197
f 199//198 198//198 200//198
f 201//199 200//199 202//199
f 201//200 199//200 200//200
f 203//201 202//201 204//201
f 203//202 201//202 202//202
f 205//203 204//203 206//203
f 205//204 203//204 204//204
f 207//205 206//205 208//205
f 207//206 205//206 206//206
f 209//207 208//207 210//207
f 209//208 207//208 208//208
f 211//209 210//209 212//209
f 211//210 212//210 213//210
f 211//211 209//211 210//211
f 214//212 213//212 215//212
f 214//213 211//213 213//213
f 216//214 214//214 215//214
f 217//215 215//215 218//215
f 217//216 218//216 219//216
f 217//217 216//217 215//217
f 220//218 217//218 219//218
f 221//219 219//219 222//219
f 221//220 222//220 223//220
f 221//221 220//221 219//221
f 224//222 221//222 223//222
f 225//223 223//223 226//223
f 225//224 224//224 223//224
f 227//225 225//225 226//225
f 227//226 226//226 228//226
f 229//227 227//227 228//227
f 229//228 228//228 230//228
f 229//229 230//229 231//229
f 232//230 229//230 231//230
f 232//231 231//231 233//231
f 234//232 232//232 233//232
f 235//233 234//233 233//233
f 235//234 233//234 236//234
f 237//235 235//235 236//235
f 237//236 236//236 238//236
f 239//237 238//237 240//237
f 239//238 237//238 238//238
f 241//239 240//239 242//239
f 241//240 239//240 240//240
f 243//241 241//241 242//241
f 243//242 242//242 244//242
f 245//243 244//243 246//243
f 245//244 246//244 247//244
f 245//245 243//245 244//245
f 248//246 245//246 247//246
f 249//247 247//247 250//247
f 249//248 248//248 247//248
f 251//249 250//249 252//249
f 251//250 252//250 253//250
f 251//251 249//251 250//251
f 254//252 253//252 255//252
f 254//253 251//253 253//253
f 256//254 254//254 255//254
f 257//255 255//255 258//255
f 257//256 258//256 259//256
f 257//257 256//257 255//257
f 260//258 257//258 259//258
f 261//259 259//259 262//259
f 261//260 262//260 263//260
f 261//261 260//261 259//261
f 264//262 263//262 265//262
f 264//263 261//263 263//263
f 266//264 264//264 265//264
f 267//265 265//265 268//265
f 267//266 266//266 265//266
f 269//267 268//267 270//267
f 269//268 267//268 268//268
f 271//269 269//269 270//269
f 271//270 270//270 272//270
f 273//271 272//271 274//271
f 273//272 271//272 272//272
f 275//273 274//273 276//273
f 275//274 273//274 274//274
f 277//275 275//275 276//275
f 277//276 276//276 278//276
f 279//277 278//277 280//277
f 279//278 277//278 278//278
f 281//279 280//279 282//279
f 281//280 282//280 283//280
f 281//281 279//281 280//281
f 284//282 281//282 283//282
f 285//283 283//283 286//283
f 285//284 286//284 287//284
f 285//285 284//285 283//285
f 288//286 287//286 289//286
f 288//287 285//287 287//287
f 290//288 288//288 289//288
f 291//289 289//289 292//289
f 291//290 290//290 289//290
f 293//291 292//291 294//291
f 293//292 291//292 292//292
f 295//293 294//293 296//293
f 295//294 293//294 294//294
f 297//295 296//295 298//295
f 297//296 295//296 296//296
f 299//297 298//297 300//297
f 299//298 297//298 298//298
f 301//299 300//299 302//299
f 301//300 302//300 303//300
f 301//301 299//301 300//301
f 304//302 301//302 303//302
f 305//303 304//303 303//303
f 305//304 303//304 306//304
f 307//305 305//305 306//305
f 307//306 306//306 308//306
f 307//307 308//307 309//307
f 310//308 307//308 309//308
f 311//309 310//309 309//309
f 311//310 309//310 312//310
f 158//311 311//311 312//311
f 158//312 312//312 159//312
g MeshExport011
f 313//313 314//313 315//313
f 313//314 315//314 316//314
f 317//315 318//315 319//315
f 317//316 319//316 320//316
f 321//317 322//317 323//317
f 321//318 323//318 324//318
f 325//319 326//319 327//319
f 325//320 327//320 328//320
f 329//321 330//321 331//321
f 329//322 331//322 332//322
f 333//323 334//323 335//323
f 333//324 335//324 336//324
g MeshExport012
g MeshExport013
g MeshExport014
g MeshExport015
g MeshExport016
g MeshExport017
g MeshExport018
g MeshExport019
g MeshExport020
g MeshExport021
f 337//325 338//325 339//325
f 337//326 339//326 340//326
f 341//327 340//327 342//327
f 341//328 337//328 340//328
f 343//329 342//329 344//329
f 343//330 344//330 345//330
f 343//331 341//331 342//331
f 346//332 343//332 345//332
f 347//333 345//333 348//333
f 347//334 346//334 345//334
f 349//335 348//335 350//335
f 349//336 350//336 351//336
f 349//337 347//337 348//337
f 352//338 349//338 351//338
f 353//339 351//339 354//339
f 353//340 352//340 351//340
f 355//341 354//341 356//341
f 355//342 353//342 354//342
f 357//343 356//343 358//343
f 357//344 355//344 356//344
f 359//345 358//345 360//345
f 359//346 357//346 358//346
f 361//347 360//347 362//347
f 361//348 359//348 360//348
f 363//349 362//349 364//349
f 363//350 361//350 362//350
f 365//351 364//351 366//351
f 365//352 363//352 364//352
f 367//353 365//353 366//353
f 367//354 366//354 368//354
f 369//355 367//355 368//355
f 369//356 368//356 370//356
f 371//357 369//357 370//357
f 371//358 370//358 372//358
f 338//359 371//359 372//359
f 338//360 372//360 339//360
