# Created by FreeCAD <https://www.freecad.org>
v 894.539612 -914.400024 -50.188938
v 918.969788 0.000000 -57.140862
v 894.539490 0.000000 -50.190868
v 918.969788 -914.400024 -57.140862
v 894.539612 914.400024 -50.188938
v 918.969788 914.400024 -57.140862
v 894.105103 -914.400024 -51.715820
v 894.105103 0.000000 -51.717785
v 918.535278 -914.400024 -58.667744
v 918.535400 0.000000 -58.667774
v 894.105103 914.400024 -51.715820
v 918.535278 914.400024 -58.667744
v 894.539612 -914.400024 -50.188938
v 918.969788 0.000000 -57.140862
v 894.539490 0.000000 -50.190868
v 918.969788 -914.400024 -57.140862
v 894.539612 914.400024 -50.188938
v 918.969788 914.400024 -57.140862
v 894.105103 -914.400024 -51.715820
v 894.105103 0.000000 -51.717785
v 918.535278 -914.400024 -58.667744
v 918.535400 0.000000 -58.667774
v 894.105103 914.400024 -51.715820
v 918.535278 914.400024 -58.667744
vn 0.273626 0.000002 0.961836
vn 0.273697 0.000000 0.961816
vn 0.273626 -0.000002 0.961836
vn 0.273697 0.000000 0.961816
vn -0.961835 0.000001 0.273629
vn -0.961813 0.000000 0.273706
vn 0.000000 -1.000000 0.000000
vn -0.000000 -1.000000 0.000000
vn 0.961835 0.000000 -0.273630
vn 0.961813 -0.000000 -0.273706
vn -0.961835 -0.000001 0.273629
vn -0.961813 -0.000000 0.273706
vn 0.000000 1.000000 0.000000
vn 0.000000 1.000000 0.000000
vn 0.961835 0.000000 -0.273630
vn 0.961813 0.000000 -0.273706
vn -0.273625 0.000000 -0.961836
vn -0.273697 -0.000002 -0.961816
vn -0.273625 -0.000000 -0.961836
vn -0.273697 0.000002 -0.961816
vn 0.273626 0.000002 0.961836
vn 0.273697 0.000000 0.961816
vn 0.273626 -0.000002 0.961836
vn 0.273697 0.000000 0.961816
vn -0.961835 0.000001 0.273629
vn -0.961813 0.000000 0.273706
vn 0.000000 -1.000000 0.000000
vn -0.000000 -1.000000 0.000000
vn 0.961835 0.000000 -0.273630
vn 0.961813 -0.000000 -0.273706
vn -0.961835 -0.000001 0.273629
vn -0.961813 -0.000000 0.273706
vn 0.000000 1.000000 0.000000
vn 0.000000 1.000000 0.000000
vn 0.961835 0.000000 -0.273630
vn 0.961813 0.000000 -0.273706
vn -0.273625 0.000000 -0.961836
vn -0.273697 -0.000002 -0.961816
vn -0.273625 -0.000000 -0.961836
vn -0.273697 0.000002 -0.961816
g MeshExport007
f 1//1 2//1 3//1
f 1//2 4//2 2//2
f 2//3 5//3 3//3
f 6//4 5//4 2//4
f 7//5 3//5 8//5
f 7//6 1//6 3//6
f 9//7 1//7 7//7
f 4//8 1//8 9//8
f 4//9 10//9 2//9
f 4//10 9//10 10//10
f 3//11 11//11 8//11
f 5//12 11//12 3//12
f 5//13 12//13 11//13
f 5//14 6//14 12//14
f 10//15 6//15 2//15
f 12//16 6//16 10//16
f 9//17 8//17 10//17
f 9//18 7//18 8//18
f 8//19 12//19 10//19
f 11//20 12//20 8//20
g MeshExport008
g MeshExport009
g MeshExport010
g MeshExport011
g MeshExport012
g MeshExport013
g MeshExport014
g MeshExport015
f 13//21 14//21 15//21
f 13//22 16//22 14//22
f 14//23 17//23 15//23
f 18//24 17//24 14//24
f 19//25 15//25 20//25
f 19//26 13//26 15//26
f 21//27 13//27 19//27
f 16//28 13//28 21//28
f 16//29 22//29 14//29
f 16//30 21//30 22//30
f 15//31 23//31 20//31
f 17//32 23//32 15//32
f 17//33 24//33 23//33
f 17//34 18//34 24//34
f 22//35 18//35 14//35
f 24//36 18//36 22//36
f 21//37 20//37 22//37
f 21//38 19//38 20//38
f 20//39 24//39 22//39
f 23//40 24//40 20//40
