# Created by FreeCAD <https://www.freecad.org>
v 36.819050 609.599976 36.819050
v 36.819050 3962.399902 36.819050
v 33.916862 609.599976 39.732021
v 33.916862 3962.399902 39.732021
v 30.794718 609.599976 42.407894
v 30.794718 3962.399902 42.407894
v 27.471930 609.599976 44.830116
v 27.471930 3962.399902 44.830116
v 36.819050 3962.399902 -36.819050
v 39.887936 3962.399902 -33.469952
v 36.819050 609.599976 -36.819050
v 39.887936 609.599976 -33.469952
v 42.653248 3962.399902 -29.866125
v 42.653248 609.599976 -29.866125
v 45.093945 3962.399902 -26.035000
v 45.093945 609.599976 -26.035000
v 47.191448 3962.399902 -22.005733
v 47.191448 609.599976 -22.005733
v 48.929794 3962.399902 -17.808989
v 48.929794 609.599976 -17.808989
v 50.295757 3962.399902 -13.476707
v 50.295757 609.599976 -13.476707
v 51.278938 3962.399902 -9.041861
v 51.278938 609.599976 -9.041861
v 51.871857 609.599976 -4.538199
v 51.871857 3962.399902 -4.538199
v 52.070000 3962.399902 0.000000
v 52.070000 609.599976 0.000000
v 51.871857 609.599976 4.538199
v 51.871857 3962.399902 4.538199
v 51.278938 3962.399902 9.041861
v 51.278938 609.599976 9.041861
v 50.295757 3962.399902 13.476707
v 50.295757 609.599976 13.476707
v 48.929794 3962.399902 17.808989
v 48.929794 609.599976 17.808989
v 47.191448 3962.399902 22.005733
v 47.191448 609.599976 22.005733
v 45.093945 609.599976 26.035000
v 45.093945 3962.399902 26.035000
v 42.653248 609.599976 29.866125
v 42.653248 3962.399902 29.866125
v 39.887936 3962.399902 33.469952
v 39.887936 609.599976 33.469952
v 23.586449 3962.399902 46.990696
v 23.586449 609.599976 46.990696
v 19.532331 3962.399902 48.815308
v 19.532331 609.599976 48.815308
v 15.338564 609.599976 50.290897
v 15.338564 3962.399902 50.290897
v 11.035129 3962.399902 51.406925
v 11.035129 609.599976 51.406925
v 6.652795 3962.399902 52.155407
v 6.652795 609.599976 52.155407
v 2.222896 609.599976 52.530991
v 2.222896 3962.399902 52.530991
v -2.222896 3962.399902 52.530991
v -2.222896 609.599976 52.530991
v -6.652795 609.599976 52.155407
v -6.652795 3962.399902 52.155407
v -11.035129 3962.399902 51.406925
v -11.035129 609.599976 51.406925
v -15.338564 609.599976 50.290897
v -15.338564 3962.399902 50.290897
v -19.532331 3962.399902 48.815308
v -19.532331 609.599976 48.815308
v -23.586449 3962.399902 46.990696
v -23.586449 609.599976 46.990696
v -27.471930 3962.399902 44.830116
v -27.471930 609.599976 44.830116
v 27.471930 3962.399902 -44.830116
v 30.794718 3962.399902 -42.407894
v 27.471930 609.599976 -44.830116
v 30.794718 609.599976 -42.407894
v 33.916862 3962.399902 -39.732021
v 33.916862 609.599976 -39.732021
v -30.794718 3962.399902 42.407894
v -30.794718 609.599976 42.407894
v -33.916862 3962.399902 39.732021
v -33.916862 609.599976 39.732021
v -36.819050 609.599976 36.819050
v -36.819050 3962.399902 36.819050
v -27.471930 3962.399902 -44.830116
v -23.586449 3962.399902 -46.990696
v -27.471930 609.599976 -44.830116
v -23.586449 609.599976 -46.990696
v -19.532331 3962.399902 -48.815308
v -19.532331 609.599976 -48.815308
v -15.338564 609.599976 -50.290897
v -15.338564 3962.399902 -50.290897
v -11.035129 3962.399902 -51.406925
v -11.035129 609.599976 -51.406925
v -6.652795 3962.399902 -52.155407
v -6.652795 609.599976 -52.155407
v -2.222896 609.599976 -52.530991
v -2.222896 3962.399902 -52.530991
v 2.222896 3962.399902 -52.530991
v 2.222896 609.599976 -52.530991
v 6.652795 3962.399902 -52.155407
v 6.652795 609.599976 -52.155407
v 11.035129 609.599976 -51.406925
v 11.035129 3962.399902 -51.406925
v 15.338564 3962.399902 -50.290897
v 15.338564 609.599976 -50.290897
v 19.532331 609.599976 -48.815308
v 19.532331 3962.399902 -48.815308
v 23.586449 3962.399902 -46.990696
v 23.586449 609.599976 -46.990696
v -39.887936 3962.399902 33.469952
v -39.887936 609.599976 33.469952
v -42.653248 3962.399902 29.866125
v -42.653248 609.599976 29.866125
v -45.093945 3962.399902 26.035000
v -45.093945 609.599976 26.035000
v -47.191448 3962.399902 22.005733
v -47.191448 609.599976 22.005733
v -48.929794 3962.399902 17.808989
v -48.929794 609.599976 17.808989
v -50.295757 3962.399902 13.476707
v -50.295757 609.599976 13.476707
v -51.278938 3962.399902 9.041861
v -51.278938 609.599976 9.041861
v -51.871857 609.599976 4.538199
v -51.871857 3962.399902 4.538199
v -52.070000 3962.399902 0.000000
v -52.070000 609.599976 0.000000
v -51.871857 609.599976 -4.538199
v -51.871857 3962.399902 -4.538199
v -51.278938 3962.399902 -9.041861
v -51.278938 609.599976 -9.041861
v -50.295757 3962.399902 -13.476707
v -50.295757 609.599976 -13.476707
v -48.929794 3962.399902 -17.808989
v -48.929794 609.599976 -17.808989
v -47.191448 3962.399902 -22.005733
v -47.191448 609.599976 -22.005733
v -45.093945 609.599976 -26.035000
v -45.093945 3962.399902 -26.035000
v -42.653248 609.599976 -29.866125
v -42.653248 3962.399902 -29.866125
v -39.887936 3962.399902 -33.469952
v -39.887936 609.599976 -33.469952
v -36.819050 3962.399902 -36.819050
v -36.819050 609.599976 -36.819050
v -33.916862 3962.399902 -39.732021
v -33.916862 609.599976 -39.732021
v -30.794718 3962.399902 -42.407894
v -30.794718 609.599976 -42.407894
v 50.601212 3962.399902 4.489709
v 50.799999 3962.399902 0.000000
v 50.799999 609.599976 0.000000
v 50.601212 609.599976 4.489709
v 50.006397 609.599976 8.944281
v 50.006397 3962.399902 8.944281
v 49.020218 3962.399902 13.328851
v 49.020218 609.599976 13.328851
v 47.650387 609.599976 17.609104
v 47.650387 3962.399902 17.609104
v 45.907627 3962.399902 21.751543
v 45.907627 609.599976 21.751543
v 43.805580 3962.399902 25.723747
v 43.805580 609.599976 25.723747
v 41.360695 609.599976 29.494627
v 41.360695 3962.399902 29.494627
v 38.592102 609.599976 33.034672
v 38.592102 3962.399902 33.034672
v 35.521477 3962.399902 36.316174
v 35.521477 609.599976 36.316174
v 32.172848 3962.399902 39.313454
v 32.172848 609.599976 39.313454
v 28.572424 609.599976 42.003056
v 28.572424 3962.399902 42.003056
v 24.748381 3962.399902 44.363922
v 24.748381 609.599976 44.363922
v 20.730648 3962.399902 46.377583
v 20.730648 609.599976 46.377583
v 16.550669 3962.399902 48.028278
v 16.550669 609.599976 48.028278
v 12.241159 609.599976 49.303082
v 12.241159 3962.399902 49.303082
v 7.835846 609.599976 50.192028
v 7.835846 3962.399902 50.192028
v 3.369206 3962.399902 50.688148
v 3.369206 609.599976 50.688148
v -1.123802 3962.399902 50.787567
v -1.123802 609.599976 50.787567
v -5.608015 3962.399902 50.489506
v -5.608015 609.599976 50.489506
v -10.048338 3962.399902 49.796295
v -10.048338 609.599976 49.796295
v -14.410018 3962.399902 48.713360
v -14.410018 609.599976 48.713360
v -18.658920 3962.399902 47.249176
v -18.658920 609.599976 47.249176
v -22.761793 3962.399902 45.415203
v -22.761793 609.599976 45.415203
v -26.686522 3962.399902 43.225796
v -26.686522 609.599976 43.225796
v -30.402393 3962.399902 40.698090
v -30.402393 609.599976 40.698090
v -33.880325 3962.399902 37.851864
v -33.880325 609.599976 37.851864
v -37.093098 3962.399902 34.709396
v -37.093098 609.599976 34.709396
v -40.015564 3962.399902 31.295280
v -40.015564 609.599976 31.295280
v -42.624859 3962.399902 27.636236
v -42.624859 609.599976 27.636236
v -44.900551 3962.399902 23.760900
v -44.900551 609.599976 23.760900
v -46.824841 3962.399902 19.699606
v -46.824841 609.599976 19.699606
v -48.382660 3962.399902 15.484133
v -48.382660 609.599976 15.484133
v -49.561817 3962.399902 11.147476
v -49.561817 609.599976 11.147476
v -50.353088 3962.399902 6.723576
v -50.353088 609.599976 6.723576
v -50.750278 609.599976 2.247054
v -50.750278 3962.399902 2.247054
v -50.750278 3962.399902 -2.247054
v -50.750278 609.599976 -2.247054
v -50.353088 609.599976 -6.723576
v -50.353088 3962.399902 -6.723576
v -49.561817 3962.399902 -11.147476
v -49.561817 609.599976 -11.147476
v -48.382660 609.599976 -15.484133
v -48.382660 3962.399902 -15.484133
v -46.824841 3962.399902 -19.699606
v -46.824841 609.599976 -19.699606
v -44.900551 3962.399902 -23.760900
v -44.900551 609.599976 -23.760900
v -42.624859 3962.399902 -27.636236
v -42.624859 609.599976 -27.636236
v -40.015564 3962.399902 -31.295280
v -40.015564 609.599976 -31.295280
v -37.093098 3962.399902 -34.709396
v -37.093098 609.599976 -34.709396
v -33.880325 3962.399902 -37.851864
v -33.880325 609.599976 -37.851864
v -30.402393 609.599976 -40.698090
v -30.402393 3962.399902 -40.698090
v -26.686522 3962.399902 -43.225796
v -26.686522 609.599976 -43.225796
v -22.761793 609.599976 -45.415203
v -22.761793 3962.399902 -45.415203
v -18.658920 3962.399902 -47.249176
v -18.658920 609.599976 -47.249176
v -14.410018 3962.399902 -48.713360
v -14.410018 609.599976 -48.713360
v -10.048338 609.599976 -49.796295
v -10.048338 3962.399902 -49.796295
v -5.608015 3962.399902 -50.489506
v -5.608015 609.599976 -50.489506
v -1.123802 3962.399902 -50.787567
v -1.123802 609.599976 -50.787567
v 3.369206 3962.399902 -50.688148
v 3.369206 609.599976 -50.688148
v 7.835846 3962.399902 -50.192028
v 7.835846 609.599976 -50.192028
v 12.241159 609.599976 -49.303082
v 12.241159 3962.399902 -49.303082
v 16.550669 3962.399902 -48.028278
v 16.550669 609.599976 -48.028278
v 20.730648 3962.399902 -46.377583
v 20.730648 609.599976 -46.377583
v 24.748381 3962.399902 -44.363922
v 24.748381 609.599976 -44.363922
v 28.572424 609.599976 -42.003056
v 28.572424 3962.399902 -42.003056
v 32.172848 3962.399902 -39.313454
v 32.172848 609.599976 -39.313454
v 35.521477 3962.399902 -36.316174
v 35.521477 609.599976 -36.316174
v 38.592102 3962.399902 -33.034672
v 38.592102 609.599976 -33.034672
v 41.360695 3962.399902 -29.494627
v 41.360695 609.599976 -29.494627
v 43.805580 3962.399902 -25.723747
v 43.805580 609.599976 -25.723747
v 45.907627 3962.399902 -21.751543
v 45.907627 609.599976 -21.751543
v 47.650387 3962.399902 -17.609104
v 47.650387 609.599976 -17.609104
v 49.020218 3962.399902 -13.328851
v 49.020218 609.599976 -13.328851
v 50.006397 3962.399902 -8.944281
v 50.006397 609.599976 -8.944281
v 50.601212 3962.399902 -4.489709
v 50.601212 609.599976 -4.489709
v 36.819050 609.599976 36.819050
v 36.819050 3962.399902 36.819050
v 33.916862 609.599976 39.732021
v 33.916862 3962.399902 39.732021
v 30.794718 609.599976 42.407894
v 30.794718 3962.399902 42.407894
v 27.471930 609.599976 44.830116
v 27.471930 3962.399902 44.830116
v 36.819050 3962.399902 -36.819050
v 39.887936 3962.399902 -33.469952
v 36.819050 609.599976 -36.819050
v 39.887936 609.599976 -33.469952
v 42.653248 3962.399902 -29.866125
v 42.653248 609.599976 -29.866125
v 45.093945 3962.399902 -26.035000
v 45.093945 609.599976 -26.035000
v 47.191448 3962.399902 -22.005733
v 47.191448 609.599976 -22.005733
v 48.929794 3962.399902 -17.808989
v 48.929794 609.599976 -17.808989
v 50.295757 3962.399902 -13.476707
v 50.295757 609.599976 -13.476707
v 51.278938 3962.399902 -9.041861
v 51.278938 609.599976 -9.041861
v 51.871857 609.599976 -4.538199
v 51.871857 3962.399902 -4.538199
v 52.070000 3962.399902 0.000000
v 52.070000 609.599976 0.000000
v 51.871857 609.599976 4.538199
v 51.871857 3962.399902 4.538199
v 51.278938 3962.399902 9.041861
v 51.278938 609.599976 9.041861
v 50.295757 3962.399902 13.476707
v 50.295757 609.599976 13.476707
v 48.929794 3962.399902 17.808989
v 48.929794 609.599976 17.808989
v 47.191448 3962.399902 22.005733
v 47.191448 609.599976 22.005733
v 45.093945 609.599976 26.035000
v 45.093945 3962.399902 26.035000
v 42.653248 609.599976 29.866125
v 42.653248 3962.399902 29.866125
v 39.887936 3962.399902 33.469952
v 39.887936 609.599976 33.469952
v 23.586449 3962.399902 46.990696
v 23.586449 609.599976 46.990696
v 19.532331 3962.399902 48.815308
v 19.532331 609.599976 48.815308
v 15.338564 609.599976 50.290897
v 15.338564 3962.399902 50.290897
v 11.035129 3962.399902 51.406925
v 11.035129 609.599976 51.406925
v 6.652795 3962.399902 52.155407
v 6.652795 609.599976 52.155407
v 2.222896 609.599976 52.530991
v 2.222896 3962.399902 52.530991
v -2.222896 3962.399902 52.530991
v -2.222896 609.599976 52.530991
v -6.652795 609.599976 52.155407
v -6.652795 3962.399902 52.155407
v -11.035129 3962.399902 51.406925
v -11.035129 609.599976 51.406925
v -15.338564 609.599976 50.290897
v -15.338564 3962.399902 50.290897
v -19.532331 3962.399902 48.815308
v -19.532331 609.599976 48.815308
v -23.586449 3962.399902 46.990696
v -23.586449 609.599976 46.990696
v -27.471930 3962.399902 44.830116
v -27.471930 609.599976 44.830116
v 27.471930 3962.399902 -44.830116
v 30.794718 3962.399902 -42.407894
v 27.471930 609.599976 -44.830116
v 30.794718 609.599976 -42.407894
v 33.916862 3962.399902 -39.732021
v 33.916862 609.599976 -39.732021
v -30.794718 3962.399902 42.407894
v -30.794718 609.599976 42.407894
v -33.916862 3962.399902 39.732021
v -33.916862 609.599976 39.732021
v -36.819050 609.599976 36.819050
v -36.819050 3962.399902 36.819050
v -27.471930 3962.399902 -44.830116
v -23.586449 3962.399902 -46.990696
v -27.471930 609.599976 -44.830116
v -23.586449 609.599976 -46.990696
v -19.532331 3962.399902 -48.815308
v -19.532331 609.599976 -48.815308
v -15.338564 609.599976 -50.290897
v -15.338564 3962.399902 -50.290897
v -11.035129 3962.399902 -51.406925
v -11.035129 609.599976 -51.406925
v -6.652795 3962.399902 -52.155407
v -6.652795 609.599976 -52.155407
v -2.222896 609.599976 -52.530991
v -2.222896 3962.399902 -52.530991
v 2.222896 3962.399902 -52.530991
v 2.222896 609.599976 -52.530991
v 6.652795 3962.399902 -52.155407
v 6.652795 609.599976 -52.155407
v 11.035129 609.599976 -51.406925
v 11.035129 3962.399902 -51.406925
v 15.338564 3962.399902 -50.290897
v 15.338564 609.599976 -50.290897
v 19.532331 609.599976 -48.815308
v 19.532331 3962.399902 -48.815308
v 23.586449 3962.399902 -46.990696
v 23.586449 609.599976 -46.990696
v -39.887936 3962.399902 33.469952
v -39.887936 609.599976 33.469952
v -42.653248 3962.399902 29.866125
v -42.653248 609.599976 29.866125
v -45.093945 3962.399902 26.035000
v -45.093945 609.599976 26.035000
v -47.191448 3962.399902 22.005733
v -47.191448 609.599976 22.005733
v -48.929794 3962.399902 17.808989
v -48.929794 609.599976 17.808989
v -50.295757 3962.399902 13.476707
v -50.295757 609.599976 13.476707
v -51.278938 3962.399902 9.041861
v -51.278938 609.599976 9.041861
v -51.871857 609.599976 4.538199
v -51.871857 3962.399902 4.538199
v -52.070000 3962.399902 0.000000
v -52.070000 609.599976 0.000000
v -51.871857 609.599976 -4.538199
v -51.871857 3962.399902 -4.538199
v -51.278938 3962.399902 -9.041861
v -51.278938 609.599976 -9.041861
v -50.295757 3962.399902 -13.476707
v -50.295757 609.599976 -13.476707
v -48.929794 3962.399902 -17.808989
v -48.929794 609.599976 -17.808989
v -47.191448 3962.399902 -22.005733
v -47.191448 609.599976 -22.005733
v -45.093945 609.599976 -26.035000
v -45.093945 3962.399902 -26.035000
v -42.653248 609.599976 -29.866125
v -42.653248 3962.399902 -29.866125
v -39.887936 3962.399902 -33.469952
v -39.887936 609.599976 -33.469952
v -36.819050 3962.399902 -36.819050
v -36.819050 609.599976 -36.819050
v -33.916862 3962.399902 -39.732021
v -33.916862 609.599976 -39.732021
v -30.794718 3962.399902 -42.407894
v -30.794718 609.599976 -42.407894
v 50.601212 3962.399902 4.489709
v 50.799999 3962.399902 0.000000
v 50.799999 609.599976 0.000000
v 50.601212 609.599976 4.489709
v 50.006397 609.599976 8.944281
v 50.006397 3962.399902 8.944281
v 49.020218 3962.399902 13.328851
v 49.020218 609.599976 13.328851
v 47.650387 609.599976 17.609104
v 47.650387 3962.399902 17.609104
v 45.907627 3962.399902 21.751543
v 45.907627 609.599976 21.751543
v 43.805580 3962.399902 25.723747
v 43.805580 609.599976 25.723747
v 41.360695 609.599976 29.494627
v 41.360695 3962.399902 29.494627
v 38.592102 609.599976 33.034672
v 38.592102 3962.399902 33.034672
v 35.521477 3962.399902 36.316174
v 35.521477 609.599976 36.316174
v 32.172848 3962.399902 39.313454
v 32.172848 609.599976 39.313454
v 28.572424 609.599976 42.003056
v 28.572424 3962.399902 42.003056
v 24.748381 3962.399902 44.363922
v 24.748381 609.599976 44.363922
v 20.730648 3962.399902 46.377583
v 20.730648 609.599976 46.377583
v 16.550669 3962.399902 48.028278
v 16.550669 609.599976 48.028278
v 12.241159 609.599976 49.303082
v 12.241159 3962.399902 49.303082
v 7.835846 609.599976 50.192028
v 7.835846 3962.399902 50.192028
v 3.369206 3962.399902 50.688148
v 3.369206 609.599976 50.688148
v -1.123802 3962.399902 50.787567
v -1.123802 609.599976 50.787567
v -5.608015 3962.399902 50.489506
v -5.608015 609.599976 50.489506
v -10.048338 3962.399902 49.796295
v -10.048338 609.599976 49.796295
v -14.410018 3962.399902 48.713360
v -14.410018 609.599976 48.713360
v -18.658920 3962.399902 47.249176
v -18.658920 609.599976 47.249176
v -22.761793 3962.399902 45.415203
v -22.761793 609.599976 45.415203
v -26.686522 3962.399902 43.225796
v -26.686522 609.599976 43.225796
v -30.402393 3962.399902 40.698090
v -30.402393 609.599976 40.698090
v -33.880325 3962.399902 37.851864
v -33.880325 609.599976 37.851864
v -37.093098 3962.399902 34.709396
v -37.093098 609.599976 34.709396
v -40.015564 3962.399902 31.295280
v -40.015564 609.599976 31.295280
v -42.624859 3962.399902 27.636236
v -42.624859 609.599976 27.636236
v -44.900551 3962.399902 23.760900
v -44.900551 609.599976 23.760900
v -46.824841 3962.399902 19.699606
v -46.824841 609.599976 19.699606
v -48.382660 3962.399902 15.484133
v -48.382660 609.599976 15.484133
v -49.561817 3962.399902 11.147476
v -49.561817 609.599976 11.147476
v -50.353088 3962.399902 6.723576
v -50.353088 609.599976 6.723576
v -50.750278 609.599976 2.247054
v -50.750278 3962.399902 2.247054
v -50.750278 3962.399902 -2.247054
v -50.750278 609.599976 -2.247054
v -50.353088 609.599976 -6.723576
v -50.353088 3962.399902 -6.723576
v -49.561817 3962.399902 -11.147476
v -49.561817 609.599976 -11.147476
v -48.382660 609.599976 -15.484133
v -48.382660 3962.399902 -15.484133
v -46.824841 3962.399902 -19.699606
v -46.824841 609.599976 -19.699606
v -44.900551 3962.399902 -23.760900
v -44.900551 609.599976 -23.760900
v -42.624859 3962.399902 -27.636236
v -42.624859 609.599976 -27.636236
v -40.015564 3962.399902 -31.295280
v -40.015564 609.599976 -31.295280
v -37.093098 3962.399902 -34.709396
v -37.093098 609.599976 -34.709396
v -33.880325 3962.399902 -37.851864
v -33.880325 609.599976 -37.851864
v -30.402393 609.599976 -40.698090
v -30.402393 3962.399902 -40.698090
v -26.686522 3962.399902 -43.225796
v -26.686522 609.599976 -43.225796
v -22.761793 609.599976 -45.415203
v -22.761793 3962.399902 -45.415203
v -18.658920 3962.399902 -47.249176
v -18.658920 609.599976 -47.249176
v -14.410018 3962.399902 -48.713360
v -14.410018 609.599976 -48.713360
v -10.048338 609.599976 -49.796295
v -10.048338 3962.399902 -49.796295
v -5.608015 3962.399902 -50.489506
v -5.608015 609.599976 -50.489506
v -1.123802 3962.399902 -50.787567
v -1.123802 609.599976 -50.787567
v 3.369206 3962.399902 -50.688148
v 3.369206 609.599976 -50.688148
v 7.835846 3962.399902 -50.192028
v 7.835846 609.599976 -50.192028
v 12.241159 609.599976 -49.303082
v 12.241159 3962.399902 -49.303082
v 16.550669 3962.399902 -48.028278
v 16.550669 609.599976 -48.028278
v 20.730648 3962.399902 -46.377583
v 20.730648 609.599976 -46.377583
v 24.748381 3962.399902 -44.363922
v 24.748381 609.599976 -44.363922
v 28.572424 609.599976 -42.003056
v 28.572424 3962.399902 -42.003056
v 32.172848 3962.399902 -39.313454
v 32.172848 609.599976 -39.313454
v 35.521477 3962.399902 -36.316174
v 35.521477 609.599976 -36.316174
v 38.592102 3962.399902 -33.034672
v 38.592102 609.599976 -33.034672
v 41.360695 3962.399902 -29.494627
v 41.360695 609.599976 -29.494627
v 43.805580 3962.399902 -25.723747
v 43.805580 609.599976 -25.723747
v 45.907627 3962.399902 -21.751543
v 45.907627 609.599976 -21.751543
v 47.650387 3962.399902 -17.609104
v 47.650387 609.599976 -17.609104
v 49.020218 3962.399902 -13.328851
v 49.020218 609.599976 -13.328851
v 50.006397 3962.399902 -8.944281
v 50.006397 609.599976 -8.944281
v 50.601212 3962.399902 -4.489709
v 50.601212 609.599976 -4.489709
vn 0.708417 -0.000000 0.705794
vn 0.650756 -0.000000 0.759287
vn 0.708417 0.000000 0.705794
vn 0.589070 -0.000000 0.808082
vn 0.650756 0.000000 0.759287
vn 0.589070 0.000000 0.808082
vn 0.737277 0.000000 -0.675591
vn 0.737277 0.000000 -0.675591
vn 0.793353 0.000000 -0.608761
vn 0.793353 0.000000 -0.608761
vn 0.843391 0.000000 -0.537300
vn 0.843391 0.000000 -0.537300
vn 0.887011 0.000000 -0.461749
vn 0.887011 0.000000 -0.461749
vn 0.923880 0.000000 -0.382683
vn 0.923880 0.000000 -0.382683
vn 0.953717 0.000000 -0.300706
vn 0.953717 0.000000 -0.300706
vn 0.976296 0.000000 -0.216439
vn 0.991445 0.000000 -0.130526
vn 0.976296 0.000000 -0.216439
vn 0.991445 0.000000 -0.130526
vn 0.999048 0.000000 -0.043620
vn 0.999048 -0.000000 0.043620
vn 0.999048 0.000000 -0.043620
vn 0.999048 0.000000 0.043620
vn 0.991445 0.000000 0.130526
vn 0.991445 0.000000 0.130526
vn 0.976296 0.000000 0.216439
vn 0.976296 0.000000 0.216439
vn 0.953717 0.000000 0.300706
vn 0.953717 0.000000 0.300706
vn 0.923880 0.000000 0.382683
vn 0.887011 -0.000000 0.461749
vn 0.923880 0.000000 0.382683
vn 0.843391 -0.000000 0.537300
vn 0.887011 0.000000 0.461749
vn 0.843391 0.000000 0.537300
vn 0.793353 0.000000 0.608761
vn 0.793353 0.000000 0.608761
vn 0.737277 0.000000 0.675591
vn 0.737277 0.000000 0.675591
vn 0.485983 0.000000 0.873968
vn 0.485983 0.000000 0.873968
vn 0.410413 0.000000 0.911900
vn 0.331907 -0.000000 0.943312
vn 0.410413 0.000000 0.911900
vn 0.331907 0.000000 0.943312
vn 0.251030 0.000000 0.967979
vn 0.251030 0.000000 0.967979
vn 0.168357 0.000000 0.985726
vn 0.084481 -0.000000 0.996425
vn 0.168357 0.000000 0.985726
vn 0.084481 0.000000 0.996425
vn 0.000000 0.000000 1.000000
vn -0.084481 0.000000 0.996425
vn 0.000000 0.000000 1.000000
vn -0.084481 0.000000 0.996425
vn -0.168357 0.000000 0.985726
vn -0.251030 0.000000 0.967979
vn -0.168357 0.000000 0.985726
vn -0.251030 0.000000 0.967979
vn -0.331907 0.000000 0.943312
vn -0.331907 0.000000 0.943312
vn -0.410413 0.000000 0.911900
vn -0.410413 0.000000 0.911900
vn -0.485983 0.000000 0.873968
vn -0.485983 0.000000 0.873968
vn 0.589070 0.000000 -0.808082
vn 0.589070 0.000000 -0.808082
vn 0.650756 0.000000 -0.759287
vn 0.708417 0.000000 -0.705794
vn 0.650756 0.000000 -0.759287
vn 0.708417 0.000000 -0.705794
vn -0.589070 0.000000 0.808082
vn -0.589070 0.000000 0.808082
vn -0.650756 0.000000 0.759287
vn -0.708417 0.000000 0.705794
vn -0.650756 0.000000 0.759287
vn -0.708417 0.000000 0.705794
vn -0.485983 -0.000000 -0.873968
vn -0.485983 0.000000 -0.873968
vn -0.410413 0.000000 -0.911900
vn -0.331907 0.000000 -0.943312
vn -0.410413 -0.000000 -0.911900
vn -0.331907 0.000000 -0.943312
vn -0.251030 0.000000 -0.967979
vn -0.251030 -0.000000 -0.967979
vn -0.168357 0.000000 -0.985726
vn -0.084481 0.000000 -0.996425
vn -0.168357 -0.000000 -0.985726
vn -0.084481 0.000000 -0.996425
vn 0.000000 0.000000 -1.000000
vn 0.000000 0.000000 -1.000000
vn 0.084481 0.000000 -0.996425
vn 0.168357 0.000000 -0.985726
vn 0.084481 0.000000 -0.996425
vn 0.168357 0.000000 -0.985726
vn 0.251030 0.000000 -0.967979
vn 0.331907 0.000000 -0.943312
vn 0.251030 0.000000 -0.967979
vn 0.331907 0.000000 -0.943312
vn 0.410413 0.000000 -0.911900
vn 0.410413 0.000000 -0.911900
vn 0.485983 0.000000 -0.873968
vn 0.485983 0.000000 -0.873968
vn -0.737277 0.000000 0.675591
vn -0.737277 0.000000 0.675591
vn -0.793353 0.000000 0.608761
vn -0.793353 0.000000 0.608761
vn -0.843391 0.000000 0.537300
vn -0.843391 0.000000 0.537300
vn -0.887011 0.000000 0.461749
vn -0.887011 0.000000 0.461749
vn -0.923880 0.000000 0.382683
vn -0.923880 0.000000 0.382683
vn -0.953717 0.000000 0.300706
vn -0.953717 0.000000 0.300706
vn -0.976296 0.000000 0.216439
vn -0.991445 0.000000 0.130526
vn -0.976296 0.000000 0.216439
vn -0.991445 0.000000 0.130526
vn -0.999048 0.000000 0.043620
vn -0.999048 0.000000 -0.043620
vn -0.999048 0.000000 0.043620
vn -0.999048 0.000000 -0.043620
vn -0.991445 0.000000 -0.130526
vn -0.991445 -0.000000 -0.130526
vn -0.976296 0.000000 -0.216439
vn -0.976296 -0.000000 -0.216439
vn -0.953717 0.000000 -0.300706
vn -0.953717 -0.000000 -0.300706
vn -0.923880 0.000000 -0.382683
vn -0.887011 0.000000 -0.461749
vn -0.923880 -0.000000 -0.382683
vn -0.843391 0.000000 -0.537300
vn -0.887011 0.000000 -0.461749
vn -0.843391 0.000000 -0.537300
vn -0.793353 -0.000000 -0.608761
vn -0.793353 0.000000 -0.608761
vn -0.737277 -0.000000 -0.675591
vn -0.737277 0.000000 -0.675591
vn -0.708417 -0.000000 -0.705794
vn -0.708417 0.000000 -0.705794
vn -0.650756 0.000000 -0.759287
vn -0.650756 -0.000000 -0.759287
vn -0.589070 0.000000 -0.808082
vn -0.589070 -0.000000 -0.808082
vn -0.999021 0.000000 -0.044233
vn -0.999021 -0.000000 -0.044233
vn -0.991202 -0.000000 -0.132354
vn -0.991202 -0.000000 -0.132354
vn -0.975626 -0.000000 -0.219438
vn -0.952414 -0.000000 -0.304806
vn -0.975626 0.000000 -0.219438
vn -0.952414 -0.000000 -0.304806
vn -0.921749 -0.000000 -0.387788
vn -0.921749 0.000000 -0.387788
vn -0.883869 -0.000000 -0.467734
vn -0.839072 -0.000000 -0.544020
vn -0.883869 0.000000 -0.467734
vn -0.787708 -0.000000 -0.616049
vn -0.839072 -0.000000 -0.544020
vn -0.787708 -0.000000 -0.616049
vn -0.730179 -0.000000 -0.683256
vn -0.730179 0.000000 -0.683256
vn -0.666936 -0.000000 -0.745115
vn -0.598473 -0.000000 -0.801143
vn -0.666936 0.000000 -0.745115
vn -0.598473 -0.000000 -0.801143
vn -0.525325 -0.000000 -0.850902
vn -0.525325 0.000000 -0.850902
vn -0.448067 -0.000000 -0.894000
vn -0.448067 0.000000 -0.894000
vn -0.367302 0.000000 -0.930102
vn -0.367302 -0.000000 -0.930102
vn -0.283661 -0.000000 -0.958925
vn -0.283661 -0.000000 -0.958925
vn -0.197803 -0.000000 -0.980242
vn -0.197803 -0.000000 -0.980242
vn -0.110394 0.000000 -0.993888
vn -0.110394 -0.000000 -0.993888
vn -0.022122 -0.000000 -0.999755
vn -0.022122 0.000000 -0.999755
vn 0.066323 0.000000 -0.997798
vn 0.066323 0.000000 -0.997798
vn 0.154249 0.000000 -0.988032
vn 0.154249 0.000000 -0.988032
vn 0.240968 0.000000 -0.970533
vn 0.240968 0.000000 -0.970533
vn 0.325801 0.000000 -0.945438
vn 0.325801 0.000000 -0.945438
vn 0.408084 0.000000 -0.912945
vn 0.408084 0.000000 -0.912945
vn 0.487173 0.000000 -0.873306
vn 0.487173 0.000000 -0.873306
vn 0.562449 0.000000 -0.826832
vn 0.562449 0.000000 -0.826832
vn 0.633324 0.000000 -0.773887
vn 0.633324 0.000000 -0.773887
vn 0.699242 0.000000 -0.714885
vn 0.699242 0.000000 -0.714885
vn 0.759687 0.000000 -0.650289
vn 0.759687 0.000000 -0.650289
vn 0.814187 0.000000 -0.580603
vn 0.814187 0.000000 -0.580603
vn 0.862315 0.000000 -0.506372
vn 0.862315 0.000000 -0.506372
vn 0.903693 0.000000 -0.428181
vn 0.903693 0.000000 -0.428181
vn 0.938000 0.000000 -0.346636
vn 0.938000 0.000000 -0.346636
vn 0.964965 0.000000 -0.262379
vn 0.964965 0.000000 -0.262379
vn 0.984378 0.000000 -0.176069
vn 0.996087 0.000000 -0.088380
vn 0.984378 0.000000 -0.176069
vn 0.996087 0.000000 -0.088380
vn 1.000000 0.000000 0.000000
vn 0.996087 0.000000 0.088380
vn 1.000000 0.000000 -0.000000
vn 0.996087 0.000000 0.088380
vn 0.984378 0.000000 0.176069
vn 0.964965 0.000000 0.262379
vn 0.984378 0.000000 0.176069
vn 0.964965 0.000000 0.262379
vn 0.938000 0.000000 0.346636
vn 0.938000 0.000000 0.346636
vn 0.903693 0.000000 0.428181
vn 0.903693 0.000000 0.428181
vn 0.862315 0.000000 0.506372
vn 0.862315 0.000000 0.506372
vn 0.814187 0.000000 0.580603
vn 0.814187 0.000000 0.580603
vn 0.759687 0.000000 0.650289
vn 0.759687 0.000000 0.650289
vn 0.699242 0.000000 0.714885
vn 0.699242 0.000000 0.714885
vn 0.633324 0.000000 0.773887
vn 0.633324 0.000000 0.773887
vn 0.562449 0.000000 0.826832
vn 0.562449 0.000000 0.826832
vn 0.487173 0.000000 0.873306
vn 0.487173 0.000000 0.873306
vn 0.408084 0.000000 0.912945
vn 0.408084 0.000000 0.912945
vn 0.325801 0.000000 0.945438
vn 0.325801 0.000000 0.945438
vn 0.240968 0.000000 0.970533
vn 0.240968 0.000000 0.970533
vn 0.154249 0.000000 0.988032
vn 0.154249 0.000000 0.988032
vn 0.066323 0.000000 0.997798
vn 0.066323 0.000000 0.997798
vn -0.022122 0.000000 0.999755
vn -0.022122 0.000000 0.999755
vn -0.110394 0.000000 0.993888
vn -0.197803 0.000000 0.980242
vn -0.110394 0.000000 0.993888
vn -0.197803 0.000000 0.980242
vn -0.283661 0.000000 0.958925
vn -0.283661 0.000000 0.958925
vn -0.367302 0.000000 0.930102
vn -0.367302 0.000000 0.930102
vn -0.448067 0.000000 0.894000
vn -0.525325 0.000000 0.850902
vn -0.448067 0.000000 0.894000
vn -0.525325 0.000000 0.850902
vn -0.598473 0.000000 0.801143
vn -0.598473 0.000000 0.801143
vn -0.666936 0.000000 0.745115
vn -0.666936 0.000000 0.745115
vn -0.730179 0.000000 0.683256
vn -0.730179 0.000000 0.683256
vn -0.787708 0.000000 0.616049
vn -0.787708 0.000000 0.616049
vn -0.839072 0.000000 0.544020
vn -0.839072 0.000000 0.544020
vn -0.883869 0.000000 0.467734
vn -0.883869 0.000000 0.467734
vn -0.921749 0.000000 0.387788
vn -0.921749 0.000000 0.387788
vn -0.952414 0.000000 0.304806
vn -0.952414 0.000000 0.304806
vn -0.975626 0.000000 0.219438
vn -0.975626 0.000000 0.219438
vn -0.991202 0.000000 0.132354
vn -0.991202 0.000000 0.132354
vn -0.999021 0.000000 0.044233
vn -0.999021 0.000000 0.044233
vn 0.000000 1.000000 0.000000
vn 0.000000 1.000000 0.000000
vn 0.000000 1.000000 0.000000
vn 0.000000 1.000000 0.000000
vn 0.000000 1.000000 0.000000
vn 0.000000 1.000000 0.000000
vn 0.000000 1.000000 0.000000
vn 0.000000 1.000000 0.000000
vn 0.000000 1.000000 0.000000
vn 0.000000 1.000000 0.000000
vn 0.000000 1.000000 0.000000
vn 0.000000 1.000000 0.000000
vn 0.000000 1.000000 0.000000
vn 0.000000 1.000000 0.000000
vn 0.000000 1.000000 0.000000
vn 0.000000 1.000000 0.000000
vn 0.000000 1.000000 0.000000
vn 0.000000 1.000000 0.000000
vn 0.000000 1.000000 0.000000
vn 0.000000 1.000000 0.000000
vn 0.000000 1.000000 0.000000
vn 0.000000 1.000000 0.000000
vn 0.000000 1.000000 0.000000
vn 0.000000 1.000000 0.000000
vn 0.000000 1.000000 0.000000
vn 0.000000 1.000000 0.000000
vn 0.000000 1.000000 0.000000
vn 0.000000 1.000000 0.000000
vn 0.000000 1.000000 0.000000
vn 0.000000 1.000000 0.000000
vn 0.000000 1.000000 0.000000
vn 0.000000 1.000000 0.000000
vn 0.000000 1.000000 0.000000
vn 0.000000 1.000000 0.000000
vn 0.000000 1.000000 0.000000
vn 0.000000 1.000000 0.000000
vn 0.000000 1.000000 0.000000
vn 0.000000 1.000000 0.000000
vn 0.000000 1.000000 0.000000
vn 0.000000 1.000000 0.000000
vn 0.000000 1.000000 0.000000
vn 0.000000 1.000000 0.000000
vn 0.000000 1.000000 0.000000
vn 0.000000 1.000000 0.000000
vn 0.000000 1.000000 0.000000
vn 0.000000 1.000000 0.000000
vn 0.000000 1.000000 0.000000
vn 0.000000 1.000000 0.000000
vn 0.000000 1.000000 0.000000
vn 0.000000 1.000000 0.000000
vn 0.000000 1.000000 0.000000
vn 0.000000 1.000000 0.000000
vn 0.000000 1.000000 0.000000
vn 0.000000 1.000000 0.000000
vn 0.000000 1.000000 0.000000
vn 0.000000 1.000000 0.000000
vn 0.000000 1.000000 0.000000
vn 0.000000 1.000000 0.000000
vn 0.000000 1.000000 0.000000
vn 0.000000 1.000000 0.000000
vn 0.000000 1.000000 0.000000
vn 0.000000 1.000000 0.000000
vn 0.000000 1.000000 0.000000
vn 0.000000 1.000000 0.000000
vn 0.000000 1.000000 0.000000
vn 0.000000 1.000000 0.000000
vn 0.000000 1.000000 0.000000
vn 0.000000 1.000000 0.000000
vn 0.000000 1.000000 0.000000
vn 0.000000 1.000000 0.000000
vn 0.000000 1.000000 0.000000
vn 0.000000 1.000000 0.000000
vn 0.000000 1.000000 0.000000
vn 0.000000 1.000000 0.000000
vn 0.000000 1.000000 0.000000
vn 0.000000 1.000000 0.000000
vn 0.000000 1.000000 0.000000
vn 0.000000 1.000000 0.000000
vn 0.000000 1.000000 0.000000
vn 0.000000 1.000000 0.000000
vn 0.000000 1.000000 0.000000
vn 0.000000 1.000000 0.000000
vn 0.000000 1.000000 0.000000
vn 0.000000 1.000000 0.000000
vn 0.000000 1.000000 0.000000
vn 0.000000 1.000000 0.000000
vn 0.000000 1.000000 0.000000
vn 0.000000 1.000000 0.000000
vn 0.000000 1.000000 0.000000
vn 0.000000 1.000000 0.000000
vn 0.000000 1.000000 0.000000
vn 0.000000 1.000000 0.000000
vn 0.000000 1.000000 0.000000
vn 0.000000 1.000000 0.000000
vn 0.000000 1.000000 0.000000
vn 0.000000 1.000000 0.000000
vn 0.000000 1.000000 0.000000
vn 0.000000 1.000000 0.000000
vn 0.000000 1.000000 0.000000
vn 0.000000 1.000000 0.000000
vn 0.000000 1.000000 0.000000
vn 0.000000 1.000000 0.000000
vn 0.000000 1.000000 0.000000
vn 0.000000 1.000000 0.000000
vn 0.000000 1.000000 0.000000
vn 0.000000 1.000000 0.000000
vn 0.000000 1.000000 0.000000
vn 0.000000 1.000000 0.000000
vn 0.000000 1.000000 0.000000
vn 0.000000 1.000000 0.000000
vn 0.000000 1.000000 0.000000
vn 0.000000 1.000000 0.000000
vn 0.000000 1.000000 0.000000
vn 0.000000 1.000000 0.000000
vn 0.000000 1.000000 0.000000
vn 0.000000 1.000000 0.000000
vn 0.000000 1.000000 0.000000
vn 0.000000 1.000000 0.000000
vn 0.000000 1.000000 0.000000
vn 0.000000 1.000000 0.000000
vn 0.000000 1.000000 0.000000
vn 0.000000 1.000000 0.000000
vn 0.000000 1.000000 0.000000
vn 0.000000 1.000000 0.000000
vn 0.000000 1.000000 0.000000
vn 0.000000 1.000000 0.000000
vn 0.000000 1.000000 0.000000
vn 0.000000 1.000000 0.000000
vn 0.000000 1.000000 0.000000
vn 0.000000 1.000000 0.000000
vn 0.000000 1.000000 0.000000
vn 0.000000 1.000000 0.000000
vn 0.000000 1.000000 0.000000
vn 0.000000 1.000000 0.000000
vn 0.000000 1.000000 0.000000
vn 0.000000 1.000000 0.000000
vn 0.000000 1.000000 0.000000
vn 0.000000 1.000000 0.000000
vn 0.000000 1.000000 0.000000
vn 0.000000 1.000000 0.000000
vn 0.000000 1.000000 0.000000
vn 0.000000 1.000000 0.000000
vn 0.000000 1.000000 0.000000
vn 0.000000 1.000000 0.000000
vn 0.000000 1.000000 0.000000
vn 0.000000 -1.000000 0.000000
vn 0.000000 -1.000000 0.000000
vn 0.000000 -1.000000 0.000000
vn 0.000000 -1.000000 0.000000
vn 0.000000 -1.000000 0.000000
vn 0.000000 -1.000000 0.000000
vn 0.000000 -1.000000 0.000000
vn 0.000000 -1.000000 0.000000
vn 0.000000 -1.000000 0.000000
vn 0.000000 -1.000000 0.000000
vn 0.000000 -1.000000 0.000000
vn 0.000000 -1.000000 0.000000
vn 0.000000 -1.000000 0.000000
vn 0.000000 -1.000000 0.000000
vn 0.000000 -1.000000 0.000000
vn 0.000000 -1.000000 0.000000
vn 0.000000 -1.000000 0.000000
vn 0.000000 -1.000000 0.000000
vn 0.000000 -1.000000 0.000000
vn 0.000000 -1.000000 0.000000
vn 0.000000 -1.000000 0.000000
vn -0.000000 -1.000000 0.000000
vn 0.000000 -1.000000 0.000000
vn 0.000000 -1.000000 0.000000
vn 0.000000 -1.000000 0.000000
vn -0.000000 -1.000000 0.000000
vn 0.000000 -1.000000 0.000000
vn 0.000000 -1.000000 0.000000
vn 0.000000 -1.000000 0.000000
vn -0.000000 -1.000000 0.000000
vn 0.000000 -1.000000 0.000000
vn 0.000000 -1.000000 0.000000
vn 0.000000 -1.000000 0.000000
vn -0.000000 -1.000000 0.000000
vn 0.000000 -1.000000 0.000000
vn 0.000000 -1.000000 0.000000
vn 0.000000 -1.000000 0.000000
vn -0.000000 -1.000000 0.000000
vn 0.000000 -1.000000 0.000000
vn 0.000000 -1.000000 0.000000
vn 0.000000 -1.000000 0.000000
vn 0.000000 -1.000000 0.000000
vn -0.000000 -1.000000 0.000000
vn 0.000000 -1.000000 0.000000
vn 0.000000 -1.000000 0.000000
vn 0.000000 -1.000000 0.000000
vn -0.000000 -1.000000 0.000000
vn 0.000000 -1.000000 0.000000
vn 0.000000 -1.000000 0.000000
vn 0.000000 -1.000000 0.000000
vn -0.000000 -1.000000 0.000000
vn 0.000000 -1.000000 0.000000
vn 0.000000 -1.000000 0.000000
vn 0.000000 -1.000000 0.000000
vn -0.000000 -1.000000 0.000000
vn 0.000000 -1.000000 0.000000
vn 0.000000 -1.000000 0.000000
vn 0.000000 -1.000000 0.000000
vn -0.000000 -1.000000 0.000000
vn 0.000000 -1.000000 0.000000
vn 0.000000 -1.000000 0.000000
vn 0.000000 -1.000000 0.000000
vn -0.000000 -1.000000 0.000000
vn 0.000000 -1.000000 0.000000
vn 0.000000 -1.000000 0.000000
vn 0.000000 -1.000000 0.000000
vn -0.000000 -1.000000 0.000000
vn 0.000000 -1.000000 0.000000
vn 0.000000 -1.000000 0.000000
vn 0.000000 -1.000000 0.000000
vn 0.000000 -1.000000 0.000000
vn -0.000000 -1.000000 0.000000
vn 0.000000 -1.000000 0.000000
vn 0.000000 -1.000000 0.000000
vn -0.000000 -1.000000 0.000000
vn 0.000000 -1.000000 0.000000
vn 0.000000 -1.000000 0.000000
vn -0.000000 -1.000000 0.000000
vn 0.000000 -1.000000 0.000000
vn 0.000000 -1.000000 0.000000
vn 0.000000 -1.000000 0.000000
vn -0.000000 -1.000000 0.000000
vn 0.000000 -1.000000 0.000000
vn 0.000000 -1.000000 0.000000
vn 0.000000 -1.000000 0.000000
vn -0.000000 -1.000000 0.000000
vn 0.000000 -1.000000 0.000000
vn 0.000000 -1.000000 0.000000
vn 0.000000 -1.000000 0.000000
vn -0.000000 -1.000000 0.000000
vn 0.000000 -1.000000 0.000000
vn 0.000000 -1.000000 0.000000
vn 0.000000 -1.000000 0.000000
vn -0.000000 -1.000000 0.000000
vn 0.000000 -1.000000 0.000000
vn 0.000000 -1.000000 0.000000
vn 0.000000 -1.000000 0.000000
vn -0.000000 -1.000000 0.000000
vn 0.000000 -1.000000 0.000000
vn 0.000000 -1.000000 0.000000
vn 0.000000 -1.000000 0.000000
vn -0.000000 -1.000000 0.000000
vn 0.000000 -1.000000 0.000000
vn 0.000000 -1.000000 0.000000
vn 0.000000 -1.000000 0.000000
vn -0.000000 -1.000000 0.000000
vn 0.000000 -1.000000 0.000000
vn 0.000000 -1.000000 0.000000
vn 0.000000 -1.000000 0.000000
vn 0.000000 -1.000000 0.000000
vn -0.000000 -1.000000 0.000000
vn 0.000000 -1.000000 0.000000
vn 0.000000 -1.000000 0.000000
vn 0.000000 -1.000000 0.000000
vn -0.000000 -1.000000 0.000000
vn 0.000000 -1.000000 0.000000
vn 0.000000 -1.000000 0.000000
vn 0.000000 -1.000000 0.000000
vn -0.000000 -1.000000 0.000000
vn 0.000000 -1.000000 0.000000
vn 0.000000 -1.000000 0.000000
vn 0.000000 -1.000000 0.000000
vn 0.000000 -1.000000 0.000000
vn -0.000000 -1.000000 0.000000
vn 0.000000 -1.000000 0.000000
vn 0.000000 -1.000000 0.000000
vn 0.000000 -1.000000 0.000000
vn -0.000000 -1.000000 0.000000
vn 0.000000 -1.000000 0.000000
vn 0.000000 -1.000000 0.000000
vn -0.000000 -1.000000 0.000000
vn 0.000000 -1.000000 0.000000
vn 0.000000 -1.000000 0.000000
vn 0.000000 -1.000000 0.000000
vn -0.000000 -1.000000 0.000000
vn 0.000000 -1.000000 0.000000
vn 0.000000 -1.000000 0.000000
vn 0.000000 -1.000000 0.000000
vn -0.000000 -1.000000 0.000000
vn 0.000000 -1.000000 0.000000
vn -0.000000 -1.000000 0.000000
vn 0.000000 -1.000000 0.000000
vn 0.000000 -1.000000 0.000000
vn -0.000000 -1.000000 0.000000
vn 0.000000 -1.000000 0.000000
vn 0.708417 -0.000000 0.705794
vn 0.650756 -0.000000 0.759287
vn 0.708417 0.000000 0.705794
vn 0.589070 -0.000000 0.808082
vn 0.650756 0.000000 0.759287
vn 0.589070 0.000000 0.808082
vn 0.737277 0.000000 -0.675591
vn 0.737277 0.000000 -0.675591
vn 0.793353 0.000000 -0.608761
vn 0.793353 0.000000 -0.608761
vn 0.843391 0.000000 -0.537300
vn 0.843391 0.000000 -0.537300
vn 0.887011 0.000000 -0.461749
vn 0.887011 0.000000 -0.461749
vn 0.923880 0.000000 -0.382683
vn 0.923880 0.000000 -0.382683
vn 0.953717 0.000000 -0.300706
vn 0.953717 0.000000 -0.300706
vn 0.976296 0.000000 -0.216439
vn 0.991445 0.000000 -0.130526
vn 0.976296 0.000000 -0.216439
vn 0.991445 0.000000 -0.130526
vn 0.999048 0.000000 -0.043620
vn 0.999048 -0.000000 0.043620
vn 0.999048 0.000000 -0.043620
vn 0.999048 0.000000 0.043620
vn 0.991445 0.000000 0.130526
vn 0.991445 0.000000 0.130526
vn 0.976296 0.000000 0.216439
vn 0.976296 0.000000 0.216439
vn 0.953717 0.000000 0.300706
vn 0.953717 0.000000 0.300706
vn 0.923880 0.000000 0.382683
vn 0.887011 -0.000000 0.461749
vn 0.923880 0.000000 0.382683
vn 0.843391 -0.000000 0.537300
vn 0.887011 0.000000 0.461749
vn 0.843391 0.000000 0.537300
vn 0.793353 0.000000 0.608761
vn 0.793353 0.000000 0.608761
vn 0.737277 0.000000 0.675591
vn 0.737277 0.000000 0.675591
vn 0.485983 0.000000 0.873968
vn 0.485983 0.000000 0.873968
vn 0.410413 0.000000 0.911900
vn 0.331907 -0.000000 0.943312
vn 0.410413 0.000000 0.911900
vn 0.331907 0.000000 0.943312
vn 0.251030 0.000000 0.967979
vn 0.251030 0.000000 0.967979
vn 0.168357 0.000000 0.985726
vn 0.084481 -0.000000 0.996425
vn 0.168357 0.000000 0.985726
vn 0.084481 0.000000 0.996425
vn 0.000000 0.000000 1.000000
vn -0.084481 0.000000 0.996425
vn 0.000000 0.000000 1.000000
vn -0.084481 0.000000 0.996425
vn -0.168357 0.000000 0.985726
vn -0.251030 0.000000 0.967979
vn -0.168357 0.000000 0.985726
vn -0.251030 0.000000 0.967979
vn -0.331907 0.000000 0.943312
vn -0.331907 0.000000 0.943312
vn -0.410413 0.000000 0.911900
vn -0.410413 0.000000 0.911900
vn -0.485983 0.000000 0.873968
vn -0.485983 0.000000 0.873968
vn 0.589070 0.000000 -0.808082
vn 0.589070 0.000000 -0.808082
vn 0.650756 0.000000 -0.759287
vn 0.708417 0.000000 -0.705794
vn 0.650756 0.000000 -0.759287
vn 0.708417 0.000000 -0.705794
vn -0.589070 0.000000 0.808082
vn -0.589070 0.000000 0.808082
vn -0.650756 0.000000 0.759287
vn -0.708417 0.000000 0.705794
vn -0.650756 0.000000 0.759287
vn -0.708417 0.000000 0.705794
vn -0.485983 -0.000000 -0.873968
vn -0.485983 0.000000 -0.873968
vn -0.410413 0.000000 -0.911900
vn -0.331907 0.000000 -0.943312
vn -0.410413 -0.000000 -0.911900
vn -0.331907 0.000000 -0.943312
vn -0.251030 0.000000 -0.967979
vn -0.251030 -0.000000 -0.967979
vn -0.168357 0.000000 -0.985726
vn -0.084481 0.000000 -0.996425
vn -0.168357 -0.000000 -0.985726
vn -0.084481 0.000000 -0.996425
vn 0.000000 0.000000 -1.000000
vn 0.000000 0.000000 -1.000000
vn 0.084481 0.000000 -0.996425
vn 0.168357 0.000000 -0.985726
vn 0.084481 0.000000 -0.996425
vn 0.168357 0.000000 -0.985726
vn 0.251030 0.000000 -0.967979
vn 0.331907 0.000000 -0.943312
vn 0.251030 0.000000 -0.967979
vn 0.331907 0.000000 -0.943312
vn 0.410413 0.000000 -0.911900
vn 0.410413 0.000000 -0.911900
vn 0.485983 0.000000 -0.873968
vn 0.485983 0.000000 -0.873968
vn -0.737277 0.000000 0.675591
vn -0.737277 0.000000 0.675591
vn -0.793353 0.000000 0.608761
vn -0.793353 0.000000 0.608761
vn -0.843391 0.000000 0.537300
vn -0.843391 0.000000 0.537300
vn -0.887011 0.000000 0.461749
vn -0.887011 0.000000 0.461749
vn -0.923880 0.000000 0.382683
vn -0.923880 0.000000 0.382683
vn -0.953717 0.000000 0.300706
vn -0.953717 0.000000 0.300706
vn -0.976296 0.000000 0.216439
vn -0.991445 0.000000 0.130526
vn -0.976296 0.000000 0.216439
vn -0.991445 0.000000 0.130526
vn -0.999048 0.000000 0.043620
vn -0.999048 0.000000 -0.043620
vn -0.999048 0.000000 0.043620
vn -0.999048 0.000000 -0.043620
vn -0.991445 0.000000 -0.130526
vn -0.991445 -0.000000 -0.130526
vn -0.976296 0.000000 -0.216439
vn -0.976296 -0.000000 -0.216439
vn -0.953717 0.000000 -0.300706
vn -0.953717 -0.000000 -0.300706
vn -0.923880 0.000000 -0.382683
vn -0.887011 0.000000 -0.461749
vn -0.923880 -0.000000 -0.382683
vn -0.843391 0.000000 -0.537300
vn -0.887011 0.000000 -0.461749
vn -0.843391 0.000000 -0.537300
vn -0.793353 -0.000000 -0.608761
vn -0.793353 0.000000 -0.608761
vn -0.737277 -0.000000 -0.675591
vn -0.737277 0.000000 -0.675591
vn -0.708417 -0.000000 -0.705794
vn -0.708417 0.000000 -0.705794
vn -0.650756 0.000000 -0.759287
vn -0.650756 -0.000000 -0.759287
vn -0.589070 0.000000 -0.808082
vn -0.589070 -0.000000 -0.808082
vn -0.999021 0.000000 -0.044233
vn -0.999021 -0.000000 -0.044233
vn -0.991202 -0.000000 -0.132354
vn -0.991202 -0.000000 -0.132354
vn -0.975626 -0.000000 -0.219438
vn -0.952414 -0.000000 -0.304806
vn -0.975626 0.000000 -0.219438
vn -0.952414 -0.000000 -0.304806
vn -0.921749 -0.000000 -0.387788
vn -0.921749 0.000000 -0.387788
vn -0.883869 -0.000000 -0.467734
vn -0.839072 -0.000000 -0.544020
vn -0.883869 0.000000 -0.467734
vn -0.787708 -0.000000 -0.616049
vn -0.839072 -0.000000 -0.544020
vn -0.787708 -0.000000 -0.616049
vn -0.730179 -0.000000 -0.683256
vn -0.730179 0.000000 -0.683256
vn -0.666936 -0.000000 -0.745115
vn -0.598473 -0.000000 -0.801143
vn -0.666936 0.000000 -0.745115
vn -0.598473 -0.000000 -0.801143
vn -0.525325 -0.000000 -0.850902
vn -0.525325 0.000000 -0.850902
vn -0.448067 -0.000000 -0.894000
vn -0.448067 0.000000 -0.894000
vn -0.367302 0.000000 -0.930102
vn -0.367302 -0.000000 -0.930102
vn -0.283661 -0.000000 -0.958925
vn -0.283661 -0.000000 -0.958925
vn -0.197803 -0.000000 -0.980242
vn -0.197803 -0.000000 -0.980242
vn -0.110394 0.000000 -0.993888
vn -0.110394 -0.000000 -0.993888
vn -0.022122 -0.000000 -0.999755
vn -0.022122 0.000000 -0.999755
vn 0.066323 0.000000 -0.997798
vn 0.066323 0.000000 -0.997798
vn 0.154249 0.000000 -0.988032
vn 0.154249 0.000000 -0.988032
vn 0.240968 0.000000 -0.970533
vn 0.240968 0.000000 -0.970533
vn 0.325801 0.000000 -0.945438
vn 0.325801 0.000000 -0.945438
vn 0.408084 0.000000 -0.912945
vn 0.408084 0.000000 -0.912945
vn 0.487173 0.000000 -0.873306
vn 0.487173 0.000000 -0.873306
vn 0.562449 0.000000 -0.826832
vn 0.562449 0.000000 -0.826832
vn 0.633324 0.000000 -0.773887
vn 0.633324 0.000000 -0.773887
vn 0.699242 0.000000 -0.714885
vn 0.699242 0.000000 -0.714885
vn 0.759687 0.000000 -0.650289
vn 0.759687 0.000000 -0.650289
vn 0.814187 0.000000 -0.580603
vn 0.814187 0.000000 -0.580603
vn 0.862315 0.000000 -0.506372
vn 0.862315 0.000000 -0.506372
vn 0.903693 0.000000 -0.428181
vn 0.903693 0.000000 -0.428181
vn 0.938000 0.000000 -0.346636
vn 0.938000 0.000000 -0.346636
vn 0.964965 0.000000 -0.262379
vn 0.964965 0.000000 -0.262379
vn 0.984378 0.000000 -0.176069
vn 0.996087 0.000000 -0.088380
vn 0.984378 0.000000 -0.176069
vn 0.996087 0.000000 -0.088380
vn 1.000000 0.000000 0.000000
vn 0.996087 0.000000 0.088380
vn 1.000000 0.000000 -0.000000
vn 0.996087 0.000000 0.088380
vn 0.984378 0.000000 0.176069
vn 0.964965 0.000000 0.262379
vn 0.984378 0.000000 0.176069
vn 0.964965 0.000000 0.262379
vn 0.938000 0.000000 0.346636
vn 0.938000 0.000000 0.346636
vn 0.903693 0.000000 0.428181
vn 0.903693 0.000000 0.428181
vn 0.862315 0.000000 0.506372
vn 0.862315 0.000000 0.506372
vn 0.814187 0.000000 0.580603
vn 0.814187 0.000000 0.580603
vn 0.759687 0.000000 0.650289
vn 0.759687 0.000000 0.650289
vn 0.699242 0.000000 0.714885
vn 0.699242 0.000000 0.714885
vn 0.633324 0.000000 0.773887
vn 0.633324 0.000000 0.773887
vn 0.562449 0.000000 0.826832
vn 0.562449 0.000000 0.826832
vn 0.487173 0.000000 0.873306
vn 0.487173 0.000000 0.873306
vn 0.408084 0.000000 0.912945
vn 0.408084 0.000000 0.912945
vn 0.325801 0.000000 0.945438
vn 0.325801 0.000000 0.945438
vn 0.240968 0.000000 0.970533
vn 0.240968 0.000000 0.970533
vn 0.154249 0.000000 0.988032
vn 0.154249 0.000000 0.988032
vn 0.066323 0.000000 0.997798
vn 0.066323 0.000000 0.997798
vn -0.022122 0.000000 0.999755
vn -0.022122 0.000000 0.999755
vn -0.110394 0.000000 0.993888
vn -0.197803 0.000000 0.980242
vn -0.110394 0.000000 0.993888
vn -0.197803 0.000000 0.980242
vn -0.283661 0.000000 0.958925
vn -0.283661 0.000000 0.958925
vn -0.367302 0.000000 0.930102
vn -0.367302 0.000000 0.930102
vn -0.448067 0.000000 0.894000
vn -0.525325 0.000000 0.850902
vn -0.448067 0.000000 0.894000
vn -0.525325 0.000000 0.850902
vn -0.598473 0.000000 0.801143
vn -0.598473 0.000000 0.801143
vn -0.666936 0.000000 0.745115
vn -0.666936 0.000000 0.745115
vn -0.730179 0.000000 0.683256
vn -0.730179 0.000000 0.683256
vn -0.787708 0.000000 0.616049
vn -0.787708 0.000000 0.616049
vn -0.839072 0.000000 0.544020
vn -0.839072 0.000000 0.544020
vn -0.883869 0.000000 0.467734
vn -0.883869 0.000000 0.467734
vn -0.921749 0.000000 0.387788
vn -0.921749 0.000000 0.387788
vn -0.952414 0.000000 0.304806
vn -0.952414 0.000000 0.304806
vn -0.975626 0.000000 0.219438
vn -0.975626 0.000000 0.219438
vn -0.991202 0.000000 0.132354
vn -0.991202 0.000000 0.132354
vn -0.999021 0.000000 0.044233
vn -0.999021 0.000000 0.044233
vn 0.000000 1.000000 0.000000
vn 0.000000 1.000000 0.000000
vn 0.000000 1.000000 0.000000
vn 0.000000 1.000000 0.000000
vn 0.000000 1.000000 0.000000
vn 0.000000 1.000000 0.000000
vn 0.000000 1.000000 0.000000
vn 0.000000 1.000000 0.000000
vn 0.000000 1.000000 0.000000
vn 0.000000 1.000000 0.000000
vn 0.000000 1.000000 0.000000
vn 0.000000 1.000000 0.000000
vn 0.000000 1.000000 0.000000
vn 0.000000 1.000000 0.000000
vn 0.000000 1.000000 0.000000
vn 0.000000 1.000000 0.000000
vn 0.000000 1.000000 0.000000
vn 0.000000 1.000000 0.000000
vn 0.000000 1.000000 0.000000
vn 0.000000 1.000000 0.000000
vn 0.000000 1.000000 0.000000
vn 0.000000 1.000000 0.000000
vn 0.000000 1.000000 0.000000
vn 0.000000 1.000000 0.000000
vn 0.000000 1.000000 0.000000
vn 0.000000 1.000000 0.000000
vn 0.000000 1.000000 0.000000
vn 0.000000 1.000000 0.000000
vn 0.000000 1.000000 0.000000
vn 0.000000 1.000000 0.000000
vn 0.000000 1.000000 0.000000
vn 0.000000 1.000000 0.000000
vn 0.000000 1.000000 0.000000
vn 0.000000 1.000000 0.000000
vn 0.000000 1.000000 0.000000
vn 0.000000 1.000000 0.000000
vn 0.000000 1.000000 0.000000
vn 0.000000 1.000000 0.000000
vn 0.000000 1.000000 0.000000
vn 0.000000 1.000000 0.000000
vn 0.000000 1.000000 0.000000
vn 0.000000 1.000000 0.000000
vn 0.000000 1.000000 0.000000
vn 0.000000 1.000000 0.000000
vn 0.000000 1.000000 0.000000
vn 0.000000 1.000000 0.000000
vn 0.000000 1.000000 0.000000
vn 0.000000 1.000000 0.000000
vn 0.000000 1.000000 0.000000
vn 0.000000 1.000000 0.000000
vn 0.000000 1.000000 0.000000
vn 0.000000 1.000000 0.000000
vn 0.000000 1.000000 0.000000
vn 0.000000 1.000000 0.000000
vn 0.000000 1.000000 0.000000
vn 0.000000 1.000000 0.000000
vn 0.000000 1.000000 0.000000
vn 0.000000 1.000000 0.000000
vn 0.000000 1.000000 0.000000
vn 0.000000 1.000000 0.000000
vn 0.000000 1.000000 0.000000
vn 0.000000 1.000000 0.000000
vn 0.000000 1.000000 0.000000
vn 0.000000 1.000000 0.000000
vn 0.000000 1.000000 0.000000
vn 0.000000 1.000000 0.000000
vn 0.000000 1.000000 0.000000
vn 0.000000 1.000000 0.000000
vn 0.000000 1.000000 0.000000
vn 0.000000 1.000000 0.000000
vn 0.000000 1.000000 0.000000
vn 0.000000 1.000000 0.000000
vn 0.000000 1.000000 0.000000
vn 0.000000 1.000000 0.000000
vn 0.000000 1.000000 0.000000
vn 0.000000 1.000000 0.000000
vn 0.000000 1.000000 0.000000
vn 0.000000 1.000000 0.000000
vn 0.000000 1.000000 0.000000
vn 0.000000 1.000000 0.000000
vn 0.000000 1.000000 0.000000
vn 0.000000 1.000000 0.000000
vn 0.000000 1.000000 0.000000
vn 0.000000 1.000000 0.000000
vn 0.000000 1.000000 0.000000
vn 0.000000 1.000000 0.000000
vn 0.000000 1.000000 0.000000
vn 0.000000 1.000000 0.000000
vn 0.000000 1.000000 0.000000
vn 0.000000 1.000000 0.000000
vn 0.000000 1.000000 0.000000
vn 0.000000 1.000000 0.000000
vn 0.000000 1.000000 0.000000
vn 0.000000 1.000000 0.000000
vn 0.000000 1.000000 0.000000
vn 0.000000 1.000000 0.000000
vn 0.000000 1.000000 0.000000
vn 0.000000 1.000000 0.000000
vn 0.000000 1.000000 0.000000
vn 0.000000 1.000000 0.000000
vn 0.000000 1.000000 0.000000
vn 0.000000 1.000000 0.000000
vn 0.000000 1.000000 0.000000
vn 0.000000 1.000000 0.000000
vn 0.000000 1.000000 0.000000
vn 0.000000 1.000000 0.000000
vn 0.000000 1.000000 0.000000
vn 0.000000 1.000000 0.000000
vn 0.000000 1.000000 0.000000
vn 0.000000 1.000000 0.000000
vn 0.000000 1.000000 0.000000
vn 0.000000 1.000000 0.000000
vn 0.000000 1.000000 0.000000
vn 0.000000 1.000000 0.000000
vn 0.000000 1.000000 0.000000
vn 0.000000 1.000000 0.000000
vn 0.000000 1.000000 0.000000
vn 0.000000 1.000000 0.000000
vn 0.000000 1.000000 0.000000
vn 0.000000 1.000000 0.000000
vn 0.000000 1.000000 0.000000
vn 0.000000 1.000000 0.000000
vn 0.000000 1.000000 0.000000
vn 0.000000 1.000000 0.000000
vn 0.000000 1.000000 0.000000
vn 0.000000 1.000000 0.000000
vn 0.000000 1.000000 0.000000
vn 0.000000 1.000000 0.000000
vn 0.000000 1.000000 0.000000
vn 0.000000 1.000000 0.000000
vn 0.000000 1.000000 0.000000
vn 0.000000 1.000000 0.000000
vn 0.000000 1.000000 0.000000
vn 0.000000 1.000000 0.000000
vn 0.000000 1.000000 0.000000
vn 0.000000 1.000000 0.000000
vn 0.000000 1.000000 0.000000
vn 0.000000 1.000000 0.000000
vn 0.000000 1.000000 0.000000
vn 0.000000 1.000000 0.000000
vn 0.000000 1.000000 0.000000
vn 0.000000 1.000000 0.000000
vn 0.000000 1.000000 0.000000
vn 0.000000 1.000000 0.000000
vn 0.000000 1.000000 0.000000
vn 0.000000 -1.000000 0.000000
vn 0.000000 -1.000000 0.000000
vn 0.000000 -1.000000 0.000000
vn 0.000000 -1.000000 0.000000
vn 0.000000 -1.000000 0.000000
vn 0.000000 -1.000000 0.000000
vn 0.000000 -1.000000 0.000000
vn 0.000000 -1.000000 0.000000
vn 0.000000 -1.000000 0.000000
vn 0.000000 -1.000000 0.000000
vn 0.000000 -1.000000 0.000000
vn 0.000000 -1.000000 0.000000
vn 0.000000 -1.000000 0.000000
vn 0.000000 -1.000000 0.000000
vn 0.000000 -1.000000 0.000000
vn 0.000000 -1.000000 0.000000
vn 0.000000 -1.000000 0.000000
vn 0.000000 -1.000000 0.000000
vn 0.000000 -1.000000 0.000000
vn 0.000000 -1.000000 0.000000
vn 0.000000 -1.000000 0.000000
vn -0.000000 -1.000000 0.000000
vn 0.000000 -1.000000 0.000000
vn 0.000000 -1.000000 0.000000
vn 0.000000 -1.000000 0.000000
vn -0.000000 -1.000000 0.000000
vn 0.000000 -1.000000 0.000000
vn 0.000000 -1.000000 0.000000
vn 0.000000 -1.000000 0.000000
vn -0.000000 -1.000000 0.000000
vn 0.000000 -1.000000 0.000000
vn 0.000000 -1.000000 0.000000
vn 0.000000 -1.000000 0.000000
vn -0.000000 -1.000000 0.000000
vn 0.000000 -1.000000 0.000000
vn 0.000000 -1.000000 0.000000
vn 0.000000 -1.000000 0.000000
vn -0.000000 -1.000000 0.000000
vn 0.000000 -1.000000 0.000000
vn 0.000000 -1.000000 0.000000
vn 0.000000 -1.000000 0.000000
vn 0.000000 -1.000000 0.000000
vn -0.000000 -1.000000 0.000000
vn 0.000000 -1.000000 0.000000
vn 0.000000 -1.000000 0.000000
vn 0.000000 -1.000000 0.000000
vn -0.000000 -1.000000 0.000000
vn 0.000000 -1.000000 0.000000
vn 0.000000 -1.000000 0.000000
vn 0.000000 -1.000000 0.000000
vn -0.000000 -1.000000 0.000000
vn 0.000000 -1.000000 0.000000
vn 0.000000 -1.000000 0.000000
vn 0.000000 -1.000000 0.000000
vn -0.000000 -1.000000 0.000000
vn 0.000000 -1.000000 0.000000
vn 0.000000 -1.000000 0.000000
vn 0.000000 -1.000000 0.000000
vn -0.000000 -1.000000 0.000000
vn 0.000000 -1.000000 0.000000
vn 0.000000 -1.000000 0.000000
vn 0.000000 -1.000000 0.000000
vn -0.000000 -1.000000 0.000000
vn 0.000000 -1.000000 0.000000
vn 0.000000 -1.000000 0.000000
vn 0.000000 -1.000000 0.000000
vn -0.000000 -1.000000 0.000000
vn 0.000000 -1.000000 0.000000
vn 0.000000 -1.000000 0.000000
vn 0.000000 -1.000000 0.000000
vn 0.000000 -1.000000 0.000000
vn -0.000000 -1.000000 0.000000
vn 0.000000 -1.000000 0.000000
vn 0.000000 -1.000000 0.000000
vn -0.000000 -1.000000 0.000000
vn 0.000000 -1.000000 0.000000
vn 0.000000 -1.000000 0.000000
vn -0.000000 -1.000000 0.000000
vn 0.000000 -1.000000 0.000000
vn 0.000000 -1.000000 0.000000
vn 0.000000 -1.000000 0.000000
vn -0.000000 -1.000000 0.000000
vn 0.000000 -1.000000 0.000000
vn 0.000000 -1.000000 0.000000
vn 0.000000 -1.000000 0.000000
vn -0.000000 -1.000000 0.000000
vn 0.000000 -1.000000 0.000000
vn 0.000000 -1.000000 0.000000
vn 0.000000 -1.000000 0.000000
vn -0.000000 -1.000000 0.000000
vn 0.000000 -1.000000 0.000000
vn 0.000000 -1.000000 0.000000
vn 0.000000 -1.000000 0.000000
vn -0.000000 -1.000000 0.000000
vn 0.000000 -1.000000 0.000000
vn 0.000000 -1.000000 0.000000
vn 0.000000 -1.000000 0.000000
vn -0.000000 -1.000000 0.000000
vn 0.000000 -1.000000 0.000000
vn 0.000000 -1.000000 0.000000
vn 0.000000 -1.000000 0.000000
vn -0.000000 -1.000000 0.000000
vn 0.000000 -1.000000 0.000000
vn 0.000000 -1.000000 0.000000
vn 0.000000 -1.000000 0.000000
vn -0.000000 -1.000000 0.000000
vn 0.000000 -1.000000 0.000000
vn 0.000000 -1.000000 0.000000
vn 0.000000 -1.000000 0.000000
vn 0.000000 -1.000000 0.000000
vn -0.000000 -1.000000 0.000000
vn 0.000000 -1.000000 0.000000
vn 0.000000 -1.000000 0.000000
vn 0.000000 -1.000000 0.000000
vn -0.000000 -1.000000 0.000000
vn 0.000000 -1.000000 0.000000
vn 0.000000 -1.000000 0.000000
vn 0.000000 -1.000000 0.000000
vn -0.000000 -1.000000 0.000000
vn 0.000000 -1.000000 0.000000
vn 0.000000 -1.000000 0.000000
vn 0.000000 -1.000000 0.000000
vn 0.000000 -1.000000 0.000000
vn -0.000000 -1.000000 0.000000
vn 0.000000 -1.000000 0.000000
vn 0.000000 -1.000000 0.000000
vn 0.000000 -1.000000 0.000000
vn -0.000000 -1.000000 0.000000
vn 0.000000 -1.000000 0.000000
vn 0.000000 -1.000000 0.000000
vn -0.000000 -1.000000 0.000000
vn 0.000000 -1.000000 0.000000
vn 0.000000 -1.000000 0.000000
vn 0.000000 -1.000000 0.000000
vn -0.000000 -1.000000 0.000000
vn 0.000000 -1.000000 0.000000
vn 0.000000 -1.000000 0.000000
vn 0.000000 -1.000000 0.000000
vn -0.000000 -1.000000 0.000000
vn 0.000000 -1.000000 0.000000
vn -0.000000 -1.000000 0.000000
vn 0.000000 -1.000000 0.000000
vn 0.000000 -1.000000 0.000000
vn -0.000000 -1.000000 0.000000
vn 0.000000 -1.000000 0.000000
g MeshExport007
f 1//1 2//1 3//1
f 3//2 4//2 5//2
f 2//3 4//3 3//3
f 5//4 6//4 7//4
f 4//5 6//5 5//5
f 6//6 8//6 7//6
f 9//7 10//7 11//7
f 11//8 10//8 12//8
f 12//9 13//9 14//9
f 10//10 13//10 12//10
f 14//11 15//11 16//11
f 13//12 15//12 14//12
f 16//13 17//13 18//13
f 15//14 17//14 16//14
f 18//15 19//15 20//15
f 17//16 19//16 18//16
f 20//17 21//17 22//17
f 19//18 21//18 20//18
f 22//19 23//19 24//19
f 24//20 23//20 25//20
f 21//21 23//21 22//21
f 23//22 26//22 25//22
f 25//23 27//23 28//23
f 28//24 27//24 29//24
f 26//25 27//25 25//25
f 27//26 30//26 29//26
f 29//27 31//27 32//27
f 30//28 31//28 29//28
f 32//29 33//29 34//29
f 31//30 33//30 32//30
f 34//31 35//31 36//31
f 33//32 35//32 34//32
f 36//33 37//33 38//33
f 38//34 37//34 39//34
f 35//35 37//35 36//35
f 39//36 40//36 41//36
f 37//37 40//37 39//37
f 40//38 42//38 41//38
f 42//39 43//39 41//39
f 41//40 43//40 44//40
f 43//41 2//41 44//41
f 44//42 2//42 1//42
f 8//43 45//43 7//43
f 7//44 45//44 46//44
f 46//45 47//45 48//45
f 48//46 47//46 49//46
f 45//47 47//47 46//47
f 47//48 50//48 49//48
f 49//49 51//49 52//49
f 50//50 51//50 49//50
f 52//51 53//51 54//51
f 54//52 53//52 55//52
f 51//53 53//53 52//53
f 53//54 56//54 55//54
f 55//55 57//55 58//55
f 58//56 57//56 59//56
f 56//57 57//57 55//57
f 57//58 60//58 59//58
f 59//59 61//59 62//59
f 62//60 61//60 63//60
f 60//61 61//61 59//61
f 61//62 64//62 63//62
f 63//63 65//63 66//63
f 64//64 65//64 63//64
f 66//65 67//65 68//65
f 65//66 67//66 66//66
f 68//67 69//67 70//67
f 67//68 69//68 68//68
f 71//69 72//69 73//69
f 73//70 72//70 74//70
f 74//71 75//71 76//71
f 76//72 75//72 11//72
f 72//73 75//73 74//73
f 75//74 9//74 11//74
f 69//75 77//75 70//75
f 70//76 77//76 78//76
f 78//77 79//77 80//77
f 80//78 79//78 81//78
f 77//79 79//79 78//79
f 79//80 82//80 81//80
f 83//81 84//81 85//81
f 85//82 84//82 86//82
f 86//83 87//83 88//83
f 88//84 87//84 89//84
f 84//85 87//85 86//85
f 87//86 90//86 89//86
f 89//87 91//87 92//87
f 90//88 91//88 89//88
f 92//89 93//89 94//89
f 94//90 93//90 95//90
f 91//91 93//91 92//91
f 93//92 96//92 95//92
f 95//93 97//93 98//93
f 96//94 97//94 95//94
f 98//95 99//95 100//95
f 100//96 99//96 101//96
f 97//97 99//97 98//97
f 99//98 102//98 101//98
f 101//99 103//99 104//99
f 104//100 103//100 105//100
f 102//101 103//101 101//101
f 103//102 106//102 105//102
f 105//103 107//103 108//103
f 106//104 107//104 105//104
f 108//105 71//105 73//105
f 107//106 71//106 108//106
f 82//107 109//107 81//107
f 81//108 109//108 110//108
f 110//109 111//109 112//109
f 109//110 111//110 110//110
f 112//111 113//111 114//111
f 111//112 113//112 112//112
f 114//113 115//113 116//113
f 113//114 115//114 114//114
f 116//115 117//115 118//115
f 115//116 117//116 116//116
f 118//117 119//117 120//117
f 117//118 119//118 118//118
f 120//119 121//119 122//119
f 122//120 121//120 123//120
f 119//121 121//121 120//121
f 121//122 124//122 123//122
f 123//123 125//123 126//123
f 126//124 125//124 127//124
f 124//125 125//125 123//125
f 125//126 128//126 127//126
f 127//127 129//127 130//127
f 128//128 129//128 127//128
f 130//129 131//129 132//129
f 129//130 131//130 130//130
f 132//131 133//131 134//131
f 131//132 133//132 132//132
f 134//133 135//133 136//133
f 136//134 135//134 137//134
f 133//135 135//135 134//135
f 137//136 138//136 139//136
f 135//137 138//137 137//137
f 138//138 140//138 139//138
f 140//139 141//139 139//139
f 139//140 141//140 142//140
f 141//141 143//141 142//141
f 142//142 143//142 144//142
f 143//143 145//143 144//143
f 144//144 145//144 146//144
f 146//145 147//145 148//145
f 145//146 147//146 146//146
f 148//147 83//147 85//147
f 147//148 83//148 148//148
f 149//149 150//149 151//149
f 149//150 151//150 152//150
f 149//151 152//151 153//151
f 154//152 149//152 153//152
f 155//153 153//153 156//153
f 155//154 156//154 157//154
f 155//155 154//155 153//155
f 158//156 155//156 157//156
f 159//157 157//157 160//157
f 159//158 158//158 157//158
f 161//159 160//159 162//159
f 161//160 162//160 163//160
f 161//161 159//161 160//161
f 164//162 163//162 165//162
f 164//163 161//163 163//163
f 166//164 164//164 165//164
f 167//165 165//165 168//165
f 167//166 166//166 165//166
f 169//167 168//167 170//167
f 169//168 170//168 171//168
f 169//169 167//169 168//169
f 172//170 169//170 171//170
f 173//171 171//171 174//171
f 173//172 172//172 171//172
f 175//173 174//173 176//173
f 175//174 173//174 174//174
f 177//175 175//175 176//175
f 177//176 176//176 178//176
f 177//177 178//177 179//177
f 180//178 177//178 179//178
f 180//179 179//179 181//179
f 182//180 180//180 181//180
f 183//181 182//181 181//181
f 183//182 181//182 184//182
f 185//183 184//183 186//183
f 185//184 183//184 184//184
f 187//185 185//185 186//185
f 187//186 186//186 188//186
f 189//187 188//187 190//187
f 189//188 187//188 188//188
f 191//189 190//189 192//189
f 191//190 189//190 190//190
f 193//191 192//191 194//191
f 193//192 191//192 192//192
f 195//193 194//193 196//193
f 195//194 193//194 194//194
f 197//195 196//195 198//195
f 197//196 195//196 196//196
f 199//197 198//197 200//197
f 199//198 197//198 198//198
f 201//199 200//199 202//199
f 201//200 199//200 200//200
f 203//201 202//201 204//201
f 203//202 201//202 202//202
f 205//203 204//203 206//203
f 205//204 203//204 204//204
f 207//205 206//205 208//205
f 207//206 205//206 206//206
f 209//207 208//207 210//207
f 209//208 207//208 208//208
f 211//209 210//209 212//209
f 211//210 209//210 210//210
f 213//211 212//211 214//211
f 213//212 211//212 212//212
f 215//213 214//213 216//213
f 215//214 213//214 214//214
f 217//215 216//215 218//215
f 217//216 218//216 219//216
f 217//217 215//217 216//217
f 220//218 217//218 219//218
f 221//219 219//219 222//219
f 221//220 222//220 223//220
f 221//221 220//221 219//221
f 224//222 221//222 223//222
f 225//223 223//223 226//223
f 225//224 226//224 227//224
f 225//225 224//225 223//225
f 228//226 225//226 227//226
f 229//227 228//227 227//227
f 229//228 227//228 230//228
f 231//229 229//229 230//229
f 231//230 230//230 232//230
f 233//231 231//231 232//231
f 233//232 232//232 234//232
f 235//233 233//233 234//233
f 235//234 234//234 236//234
f 237//235 235//235 236//235
f 237//236 236//236 238//236
f 239//237 237//237 238//237
f 239//238 238//238 240//238
f 239//239 240//239 241//239
f 242//240 239//240 241//240
f 243//241 242//241 241//241
f 243//242 241//242 244//242
f 243//243 244//243 245//243
f 246//244 243//244 245//244
f 247//245 246//245 245//245
f 247//246 245//246 248//246
f 249//247 247//247 248//247
f 249//248 248//248 250//248
f 249//249 250//249 251//249
f 252//250 249//250 251//250
f 253//251 251//251 254//251
f 253//252 252//252 251//252
f 255//253 254//253 256//253
f 255//254 253//254 254//254
f 257//255 256//255 258//255
f 257//256 255//256 256//256
f 259//257 258//257 260//257
f 259//258 260//258 261//258
f 259//259 257//259 258//259
f 262//260 259//260 261//260
f 263//261 261//261 264//261
f 263//262 262//262 261//262
f 265//263 264//263 266//263
f 265//264 263//264 264//264
f 267//265 266//265 268//265
f 267//266 268//266 269//266
f 267//267 265//267 266//267
f 270//268 267//268 269//268
f 271//269 269//269 272//269
f 271//270 270//270 269//270
f 273//271 272//271 274//271
f 273//272 271//272 272//272
f 275//273 274//273 276//273
f 275//274 273//274 274//274
f 277//275 275//275 276//275
f 277//276 276//276 278//276
f 279//277 277//277 278//277
f 279//278 278//278 280//278
f 281//279 279//279 280//279
f 281//280 280//280 282//280
f 283//281 281//281 282//281
f 283//282 282//282 284//282
f 285//283 283//283 284//283
f 285//284 284//284 286//284
f 287//285 285//285 286//285
f 287//286 286//286 288//286
f 289//287 287//287 288//287
f 289//288 288//288 290//288
f 150//289 289//289 290//289
f 150//290 290//290 151//290
f 237//291 143//291 141//291
f 239//292 145//292 143//292
f 239//293 143//293 237//293
f 235//294 141//294 140//294
f 235//295 237//295 141//295
f 242//296 147//296 145//296
f 242//297 145//297 239//297
f 233//298 140//298 138//298
f 233//299 235//299 140//299
f 243//300 83//300 147//300
f 243//301 147//301 242//301
f 231//302 138//302 135//302
f 231//303 233//303 138//303
f 246//304 84//304 83//304
f 246//305 87//305 84//305
f 246//306 83//306 243//306
f 229//307 135//307 133//307
f 229//308 231//308 135//308
f 247//309 87//309 246//309
f 90//310 87//310 247//310
f 228//311 229//311 133//311
f 131//312 228//312 133//312
f 249//313 90//313 247//313
f 91//314 90//314 249//314
f 225//315 228//315 131//315
f 129//316 225//316 131//316
f 252//317 91//317 249//317
f 93//318 91//318 252//318
f 224//319 225//319 129//319
f 128//320 224//320 129//320
f 253//321 93//321 252//321
f 96//322 93//322 253//322
f 221//323 224//323 128//323
f 125//324 221//324 128//324
f 255//325 96//325 253//325
f 97//326 96//326 255//326
f 220//327 221//327 125//327
f 124//328 220//328 125//328
f 257//329 97//329 255//329
f 99//330 97//330 257//330
f 217//331 220//331 124//331
f 259//332 99//332 257//332
f 121//333 217//333 124//333
f 102//334 99//334 259//334
f 215//335 217//335 121//335
f 262//336 102//336 259//336
f 119//337 215//337 121//337
f 103//338 102//338 262//338
f 213//339 215//339 119//339
f 263//340 103//340 262//340
f 117//341 213//341 119//341
f 106//342 103//342 263//342
f 211//343 213//343 117//343
f 265//344 106//344 263//344
f 115//345 211//345 117//345
f 107//346 106//346 265//346
f 209//347 211//347 115//347
f 267//348 107//348 265//348
f 113//349 209//349 115//349
f 71//350 107//350 267//350
f 207//351 209//351 113//351
f 270//352 71//352 267//352
f 111//353 207//353 113//353
f 72//354 71//354 270//354
f 205//355 207//355 111//355
f 271//356 72//356 270//356
f 109//357 205//357 111//357
f 75//358 72//358 271//358
f 203//359 205//359 109//359
f 273//360 75//360 271//360
f 9//361 75//361 273//361
f 82//362 203//362 109//362
f 201//363 203//363 82//363
f 275//364 9//364 273//364
f 79//365 201//365 82//365
f 10//366 9//366 275//366
f 199//367 201//367 79//367
f 77//368 199//368 79//368
f 277//369 10//369 275//369
f 13//370 10//370 277//370
f 197//371 199//371 77//371
f 69//372 197//372 77//372
f 279//373 13//373 277//373
f 15//374 13//374 279//374
f 195//375 197//375 69//375
f 67//376 195//376 69//376
f 281//377 15//377 279//377
f 17//378 15//378 281//378
f 65//379 195//379 67//379
f 65//380 193//380 195//380
f 283//381 17//381 281//381
f 19//382 17//382 283//382
f 64//383 193//383 65//383
f 64//384 191//384 193//384
f 285//385 19//385 283//385
f 21//386 19//386 285//386
f 61//387 191//387 64//387
f 61//388 189//388 191//388
f 287//389 21//389 285//389
f 23//390 21//390 287//390
f 60//391 189//391 61//391
f 60//392 187//392 189//392
f 289//393 23//393 287//393
f 26//394 23//394 289//394
f 57//395 187//395 60//395
f 57//396 185//396 187//396
f 150//397 26//397 289//397
f 27//398 26//398 150//398
f 56//399 185//399 57//399
f 56//400 183//400 185//400
f 30//401 27//401 150//401
f 30//402 150//402 149//402
f 53//403 183//403 56//403
f 53//404 182//404 183//404
f 31//405 30//405 149//405
f 31//406 149//406 154//406
f 51//407 182//407 53//407
f 51//408 180//408 182//408
f 33//409 154//409 155//409
f 33//410 31//410 154//410
f 50//411 180//411 51//411
f 50//412 177//412 180//412
f 35//413 155//413 158//413
f 35//414 33//414 155//414
f 47//415 175//415 177//415
f 47//416 177//416 50//416
f 37//417 35//417 158//417
f 37//418 158//418 159//418
f 45//419 173//419 175//419
f 45//420 175//420 47//420
f 40//421 37//421 159//421
f 40//422 159//422 161//422
f 8//423 173//423 45//423
f 8//424 172//424 173//424
f 42//425 40//425 161//425
f 42//426 161//426 164//426
f 6//427 172//427 8//427
f 6//428 169//428 172//428
f 43//429 42//429 164//429
f 43//430 164//430 166//430
f 2//431 43//431 166//431
f 2//432 166//432 167//432
f 4//433 169//433 6//433
f 4//434 2//434 167//434
f 4//435 167//435 169//435
f 144//436 238//436 142//436
f 146//437 240//437 144//437
f 144//438 240//438 238//438
f 142//439 236//439 139//439
f 238//440 236//440 142//440
f 148//441 241//441 146//441
f 146//442 241//442 240//442
f 139//443 234//443 137//443
f 236//444 234//444 139//444
f 85//445 244//445 148//445
f 148//446 244//446 241//446
f 137//447 232//447 136//447
f 234//448 232//448 137//448
f 86//449 245//449 85//449
f 88//450 245//450 86//450
f 85//451 245//451 244//451
f 136//452 230//452 134//452
f 232//453 230//453 136//453
f 88//454 248//454 245//454
f 88//455 89//455 248//455
f 230//456 227//456 134//456
f 227//457 132//457 134//457
f 89//458 250//458 248//458
f 89//459 92//459 250//459
f 227//460 226//460 132//460
f 226//461 130//461 132//461
f 92//462 251//462 250//462
f 92//463 94//463 251//463
f 226//464 223//464 130//464
f 223//465 127//465 130//465
f 94//466 254//466 251//466
f 94//467 95//467 254//467
f 223//468 222//468 127//468
f 222//469 126//469 127//469
f 95//470 256//470 254//470
f 95//471 98//471 256//471
f 222//472 219//472 126//472
f 219//473 123//473 126//473
f 98//474 258//474 256//474
f 98//475 100//475 258//475
f 219//476 218//476 123//476
f 100//477 260//477 258//477
f 218//478 122//478 123//478
f 100//479 101//479 260//479
f 218//480 216//480 122//480
f 101//481 261//481 260//481
f 216//482 120//482 122//482
f 101//483 104//483 261//483
f 216//484 214//484 120//484
f 104//485 264//485 261//485
f 214//486 118//486 120//486
f 104//487 105//487 264//487
f 214//488 212//488 118//488
f 105//489 266//489 264//489
f 212//490 116//490 118//490
f 105//491 108//491 266//491
f 212//492 210//492 116//492
f 108//493 268//493 266//493
f 210//494 114//494 116//494
f 108//495 73//495 268//495
f 210//496 208//496 114//496
f 73//497 269//497 268//497
f 208//498 112//498 114//498
f 73//499 74//499 269//499
f 208//500 206//500 112//500
f 74//501 272//501 269//501
f 206//502 110//502 112//502
f 74//503 76//503 272//503
f 206//504 204//504 110//504
f 76//505 274//505 272//505
f 76//506 11//506 274//506
f 204//507 81//507 110//507
f 204//508 202//508 81//508
f 11//509 276//509 274//509
f 202//510 80//510 81//510
f 11//511 12//511 276//511
f 202//512 200//512 80//512
f 200//513 78//513 80//513
f 12//514 278//514 276//514
f 12//515 14//515 278//515
f 200//516 198//516 78//516
f 198//517 70//517 78//517
f 14//518 280//518 278//518
f 14//519 16//519 280//519
f 198//520 196//520 70//520
f 196//521 68//521 70//521
f 16//522 282//522 280//522
f 16//523 18//523 282//523
f 196//524 66//524 68//524
f 194//525 66//525 196//525
f 18//526 284//526 282//526
f 18//527 20//527 284//527
f 194//528 63//528 66//528
f 192//529 63//529 194//529
f 20//530 286//530 284//530
f 20//531 22//531 286//531
f 192//532 62//532 63//532
f 190//533 62//533 192//533
f 22//534 288//534 286//534
f 22//535 24//535 288//535
f 190//536 59//536 62//536
f 188//537 59//537 190//537
f 24//538 290//538 288//538
f 24//539 25//539 290//539
f 188//540 58//540 59//540
f 186//541 58//541 188//541
f 25//542 151//542 290//542
f 25//543 28//543 151//543
f 186//544 55//544 58//544
f 184//545 55//545 186//545
f 28//546 29//546 151//546
f 151//547 29//547 152//547
f 184//548 54//548 55//548
f 181//549 54//549 184//549
f 29//550 32//550 152//550
f 152//551 32//551 153//551
f 181//552 52//552 54//552
f 179//553 52//553 181//553
f 32//554 34//554 153//554
f 153//555 34//555 156//555
f 179//556 49//556 52//556
f 178//557 49//557 179//557
f 156//558 36//558 157//558
f 34//559 36//559 156//559
f 176//560 48//560 178//560
f 178//561 48//561 49//561
f 157//562 38//562 160//562
f 36//563 38//563 157//563
f 174//564 46//564 176//564
f 176//565 46//565 48//565
f 38//566 39//566 160//566
f 160//567 39//567 162//567
f 174//568 7//568 46//568
f 171//569 7//569 174//569
f 39//570 41//570 162//570
f 162//571 41//571 163//571
f 171//572 5//572 7//572
f 170//573 5//573 171//573
f 41//574 44//574 163//574
f 163//575 44//575 165//575
f 44//576 1//576 165//576
f 165//577 1//577 168//577
f 170//578 3//578 5//578
f 1//579 3//579 168//579
f 168//580 3//580 170//580
g MeshExport008
g MeshExport009
g MeshExport010
g MeshExport011
g MeshExport012
g MeshExport013
g MeshExport014
g MeshExport015
f 291//581 292//581 293//581
f 293//582 294//582 295//582
f 292//583 294//583 293//583
f 295//584 296//584 297//584
f 294//585 296//585 295//585
f 296//586 298//586 297//586
f 299//587 300//587 301//587
f 301//588 300//588 302//588
f 302//589 303//589 304//589
f 300//590 303//590 302//590
f 304//591 305//591 306//591
f 303//592 305//592 304//592
f 306//593 307//593 308//593
f 305//594 307//594 306//594
f 308//595 309//595 310//595
f 307//596 309//596 308//596
f 310//597 311//597 312//597
f 309//598 311//598 310//598
f 312//599 313//599 314//599
f 314//600 313//600 315//600
f 311//601 313//601 312//601
f 313//602 316//602 315//602
f 315//603 317//603 318//603
f 318//604 317//604 319//604
f 316//605 317//605 315//605
f 317//606 320//606 319//606
f 319//607 321//607 322//607
f 320//608 321//608 319//608
f 322//609 323//609 324//609
f 321//610 323//610 322//610
f 324//611 325//611 326//611
f 323//612 325//612 324//612
f 326//613 327//613 328//613
f 328//614 327//614 329//614
f 325//615 327//615 326//615
f 329//616 330//616 331//616
f 327//617 330//617 329//617
f 330//618 332//618 331//618
f 332//619 333//619 331//619
f 331//620 333//620 334//620
f 333//621 292//621 334//621
f 334//622 292//622 291//622
f 298//623 335//623 297//623
f 297//624 335//624 336//624
f 336//625 337//625 338//625
f 338//626 337//626 339//626
f 335//627 337//627 336//627
f 337//628 340//628 339//628
f 339//629 341//629 342//629
f 340//630 341//630 339//630
f 342//631 343//631 344//631
f 344//632 343//632 345//632
f 341//633 343//633 342//633
f 343//634 346//634 345//634
f 345//635 347//635 348//635
f 348//636 347//636 349//636
f 346//637 347//637 345//637
f 347//638 350//638 349//638
f 349//639 351//639 352//639
f 352//640 351//640 353//640
f 350//641 351//641 349//641
f 351//642 354//642 353//642
f 353//643 355//643 356//643
f 354//644 355//644 353//644
f 356//645 357//645 358//645
f 355//646 357//646 356//646
f 358//647 359//647 360//647
f 357//648 359//648 358//648
f 361//649 362//649 363//649
f 363//650 362//650 364//650
f 364//651 365//651 366//651
f 366//652 365//652 301//652
f 362//653 365//653 364//653
f 365//654 299//654 301//654
f 359//655 367//655 360//655
f 360//656 367//656 368//656
f 368//657 369//657 370//657
f 370//658 369//658 371//658
f 367//659 369//659 368//659
f 369//660 372//660 371//660
f 373//661 374//661 375//661
f 375//662 374//662 376//662
f 376//663 377//663 378//663
f 378//664 377//664 379//664
f 374//665 377//665 376//665
f 377//666 380//666 379//666
f 379//667 381//667 382//667
f 380//668 381//668 379//668
f 382//669 383//669 384//669
f 384//670 383//670 385//670
f 381//671 383//671 382//671
f 383//672 386//672 385//672
f 385//673 387//673 388//673
f 386//674 387//674 385//674
f 388//675 389//675 390//675
f 390//676 389//676 391//676
f 387//677 389//677 388//677
f 389//678 392//678 391//678
f 391//679 393//679 394//679
f 394//680 393//680 395//680
f 392//681 393//681 391//681
f 393//682 396//682 395//682
f 395//683 397//683 398//683
f 396//684 397//684 395//684
f 398//685 361//685 363//685
f 397//686 361//686 398//686
f 372//687 399//687 371//687
f 371//688 399//688 400//688
f 400//689 401//689 402//689
f 399//690 401//690 400//690
f 402//691 403//691 404//691
f 401//692 403//692 402//692
f 404//693 405//693 406//693
f 403//694 405//694 404//694
f 406//695 407//695 408//695
f 405//696 407//696 406//696
f 408//697 409//697 410//697
f 407//698 409//698 408//698
f 410//699 411//699 412//699
f 412//700 411//700 413//700
f 409//701 411//701 410//701
f 411//702 414//702 413//702
f 413//703 415//703 416//703
f 416//704 415//704 417//704
f 414//705 415//705 413//705
f 415//706 418//706 417//706
f 417//707 419//707 420//707
f 418//708 419//708 417//708
f 420//709 421//709 422//709
f 419//710 421//710 420//710
f 422//711 423//711 424//711
f 421//712 423//712 422//712
f 424//713 425//713 426//713
f 426//714 425//714 427//714
f 423//715 425//715 424//715
f 427//716 428//716 429//716
f 425//717 428//717 427//717
f 428//718 430//718 429//718
f 430//719 431//719 429//719
f 429//720 431//720 432//720
f 431//721 433//721 432//721
f 432//722 433//722 434//722
f 433//723 435//723 434//723
f 434//724 435//724 436//724
f 436//725 437//725 438//725
f 435//726 437//726 436//726
f 438//727 373//727 375//727
f 437//728 373//728 438//728
f 439//729 440//729 441//729
f 439//730 441//730 442//730
f 439//731 442//731 443//731
f 444//732 439//732 443//732
f 445//733 443//733 446//733
f 445//734 446//734 447//734
f 445//735 444//735 443//735
f 448//736 445//736 447//736
f 449//737 447//737 450//737
f 449//738 448//738 447//738
f 451//739 450//739 452//739
f 451//740 452//740 453//740
f 451//741 449//741 450//741
f 454//742 453//742 455//742
f 454//743 451//743 453//743
f 456//744 454//744 455//744
f 457//745 455//745 458//745
f 457//746 456//746 455//746
f 459//747 458//747 460//747
f 459//748 460//748 461//748
f 459//749 457//749 458//749
f 462//750 459//750 461//750
f 463//751 461//751 464//751
f 463//752 462//752 461//752
f 465//753 464//753 466//753
f 465//754 463//754 464//754
f 467//755 465//755 466//755
f 467//756 466//756 468//756
f 467//757 468//757 469//757
f 470//758 467//758 469//758
f 470//759 469//759 471//759
f 472//760 470//760 471//760
f 473//761 472//761 471//761
f 473//762 471//762 474//762
f 475//763 474//763 476//763
f 475//764 473//764 474//764
f 477//765 475//765 476//765
f 477//766 476//766 478//766
f 479//767 478//767 480//767
f 479//768 477//768 478//768
f 481//769 480//769 482//769
f 481//770 479//770 480//770
f 483//771 482//771 484//771
f 483//772 481//772 482//772
f 485//773 484//773 486//773
f 485//774 483//774 484//774
f 487//775 486//775 488//775
f 487//776 485//776 486//776
f 489//777 488//777 490//777
f 489//778 487//778 488//778
f 491//779 490//779 492//779
f 491//780 489//780 490//780
f 493//781 492//781 494//781
f 493//782 491//782 492//782
f 495//783 494//783 496//783
f 495//784 493//784 494//784
f 497//785 496//785 498//785
f 497//786 495//786 496//786
f 499//787 498//787 500//787
f 499//788 497//788 498//788
f 501//789 500//789 502//789
f 501//790 499//790 500//790
f 503//791 502//791 504//791
f 503//792 501//792 502//792
f 505//793 504//793 506//793
f 505//794 503//794 504//794
f 507//795 506//795 508//795
f 507//796 508//796 509//796
f 507//797 505//797 506//797
f 510//798 507//798 509//798
f 511//799 509//799 512//799
f 511//800 512//800 513//800
f 511//801 510//801 509//801
f 514//802 511//802 513//802
f 515//803 513//803 516//803
f 515//804 516//804 517//804
f 515//805 514//805 513//805
f 518//806 515//806 517//806
f 519//807 518//807 517//807
f 519//808 517//808 520//808
f 521//809 519//809 520//809
f 521//810 520//810 522//810
f 523//811 521//811 522//811
f 523//812 522//812 524//812
f 525//813 523//813 524//813
f 525//814 524//814 526//814
f 527//815 525//815 526//815
f 527//816 526//816 528//816
f 529//817 527//817 528//817
f 529//818 528//818 530//818
f 529//819 530//819 531//819
f 532//820 529//820 531//820
f 533//821 532//821 531//821
f 533//822 531//822 534//822
f 533//823 534//823 535//823
f 536//824 533//824 535//824
f 537//825 536//825 535//825
f 537//826 535//826 538//826
f 539//827 537//827 538//827
f 539//828 538//828 540//828
f 539//829 540//829 541//829
f 542//830 539//830 541//830
f 543//831 541//831 544//831
f 543//832 542//832 541//832
f 545//833 544//833 546//833
f 545//834 543//834 544//834
f 547//835 546//835 548//835
f 547//836 545//836 546//836
f 549//837 548//837 550//837
f 549//838 550//838 551//838
f 549//839 547//839 548//839
f 552//840 549//840 551//840
f 553//841 551//841 554//841
f 553//842 552//842 551//842
f 555//843 554//843 556//843
f 555//844 553//844 554//844
f 557//845 556//845 558//845
f 557//846 558//846 559//846
f 557//847 555//847 556//847
f 560//848 557//848 559//848
f 561//849 559//849 562//849
f 561//850 560//850 559//850
f 563//851 562//851 564//851
f 563//852 561//852 562//852
f 565//853 564//853 566//853
f 565//854 563//854 564//854
f 567//855 565//855 566//855
f 567//856 566//856 568//856
f 569//857 567//857 568//857
f 569//858 568//858 570//858
f 571//859 569//859 570//859
f 571//860 570//860 572//860
f 573//861 571//861 572//861
f 573//862 572//862 574//862
f 575//863 573//863 574//863
f 575//864 574//864 576//864
f 577//865 575//865 576//865
f 577//866 576//866 578//866
f 579//867 577//867 578//867
f 579//868 578//868 580//868
f 440//869 579//869 580//869
f 440//870 580//870 441//870
f 527//871 433//871 431//871
f 529//872 435//872 433//872
f 529//873 433//873 527//873
f 525//874 431//874 430//874
f 525//875 527//875 431//875
f 532//876 437//876 435//876
f 532//877 435//877 529//877
f 523//878 430//878 428//878
f 523//879 525//879 430//879
f 533//880 373//880 437//880
f 533//881 437//881 532//881
f 521//882 428//882 425//882
f 521//883 523//883 428//883
f 536//884 374//884 373//884
f 536//885 377//885 374//885
f 536//886 373//886 533//886
f 519//887 425//887 423//887
f 519//888 521//888 425//888
f 537//889 377//889 536//889
f 380//890 377//890 537//890
f 518//891 519//891 423//891
f 421//892 518//892 423//892
f 539//893 380//893 537//893
f 381//894 380//894 539//894
f 515//895 518//895 421//895
f 419//896 515//896 421//896
f 542//897 381//897 539//897
f 383//898 381//898 542//898
f 514//899 515//899 419//899
f 418//900 514//900 419//900
f 543//901 383//901 542//901
f 386//902 383//902 543//902
f 511//903 514//903 418//903
f 415//904 511//904 418//904
f 545//905 386//905 543//905
f 387//906 386//906 545//906
f 510//907 511//907 415//907
f 414//908 510//908 415//908
f 547//909 387//909 545//909
f 389//910 387//910 547//910
f 507//911 510//911 414//911
f 549//912 389//912 547//912
f 411//913 507//913 414//913
f 392//914 389//914 549//914
f 505//915 507//915 411//915
f 552//916 392//916 549//916
f 409//917 505//917 411//917
f 393//918 392//918 552//918
f 503//919 505//919 409//919
f 553//920 393//920 552//920
f 407//921 503//921 409//921
f 396//922 393//922 553//922
f 501//923 503//923 407//923
f 555//924 396//924 553//924
f 405//925 501//925 407//925
f 397//926 396//926 555//926
f 499//927 501//927 405//927
f 557//928 397//928 555//928
f 403//929 499//929 405//929
f 361//930 397//930 557//930
f 497//931 499//931 403//931
f 560//932 361//932 557//932
f 401//933 497//933 403//933
f 362//934 361//934 560//934
f 495//935 497//935 401//935
f 561//936 362//936 560//936
f 399//937 495//937 401//937
f 365//938 362//938 561//938
f 493//939 495//939 399//939
f 563//940 365//940 561//940
f 299//941 365//941 563//941
f 372//942 493//942 399//942
f 491//943 493//943 372//943
f 565//944 299//944 563//944
f 369//945 491//945 372//945
f 300//946 299//946 565//946
f 489//947 491//947 369//947
f 367//948 489//948 369//948
f 567//949 300//949 565//949
f 303//950 300//950 567//950
f 487//951 489//951 367//951
f 359//952 487//952 367//952
f 569//953 303//953 567//953
f 305//954 303//954 569//954
f 485//955 487//955 359//955
f 357//956 485//956 359//956
f 571//957 305//957 569//957
f 307//958 305//958 571//958
f 355//959 485//959 357//959
f 355//960 483//960 485//960
f 573//961 307//961 571//961
f 309//962 307//962 573//962
f 354//963 483//963 355//963
f 354//964 481//964 483//964
f 575//965 309//965 573//965
f 311//966 309//966 575//966
f 351//967 481//967 354//967
f 351//968 479//968 481//968
f 577//969 311//969 575//969
f 313//970 311//970 577//970
f 350//971 479//971 351//971
f 350//972 477//972 479//972
f 579//973 313//973 577//973
f 316//974 313//974 579//974
f 347//975 477//975 350//975
f 347//976 475//976 477//976
f 440//977 316//977 579//977
f 317//978 316//978 440//978
f 346//979 475//979 347//979
f 346//980 473//980 475//980
f 320//981 317//981 440//981
f 320//982 440//982 439//982
f 343//983 473//983 346//983
f 343//984 472//984 473//984
f 321//985 320//985 439//985
f 321//986 439//986 444//986
f 341//987 472//987 343//987
f 341//988 470//988 472//988
f 323//989 444//989 445//989
f 323//990 321//990 444//990
f 340//991 470//991 341//991
f 340//992 467//992 470//992
f 325//993 445//993 448//993
f 325//994 323//994 445//994
f 337//995 465//995 467//995
f 337//996 467//996 340//996
f 327//997 325//997 448//997
f 327//998 448//998 449//998
f 335//999 463//999 465//999
f 335//1000 465//1000 337//1000
f 330//1001 327//1001 449//1001
f 330//1002 449//1002 451//1002
f 298//1003 463//1003 335//1003
f 298//1004 462//1004 463//1004
f 332//1005 330//1005 451//1005
f 332//1006 451//1006 454//1006
f 296//1007 462//1007 298//1007
f 296//1008 459//1008 462//1008
f 333//1009 332//1009 454//1009
f 333//1010 454//1010 456//1010
f 292//1011 333//1011 456//1011
f 292//1012 456//1012 457//1012
f 294//1013 459//1013 296//1013
f 294//1014 292//1014 457//1014
f 294//1015 457//1015 459//1015
f 434//1016 528//1016 432//1016
f 436//1017 530//1017 434//1017
f 434//1018 530//1018 528//1018
f 432//1019 526//1019 429//1019
f 528//1020 526//1020 432//1020
f 438//1021 531//1021 436//1021
f 436//1022 531//1022 530//1022
f 429//1023 524//1023 427//1023
f 526//1024 524//1024 429//1024
f 375//1025 534//1025 438//1025
f 438//1026 534//1026 531//1026
f 427//1027 522//1027 426//1027
f 524//1028 522//1028 427//1028
f 376//1029 535//1029 375//1029
f 378//1030 535//1030 376//1030
f 375//1031 535//1031 534//1031
f 426//1032 520//1032 424//1032
f 522//1033 520//1033 426//1033
f 378//1034 538//1034 535//1034
f 378//1035 379//1035 538//1035
f 520//1036 517//1036 424//1036
f 517//1037 422//1037 424//1037
f 379//1038 540//1038 538//1038
f 379//1039 382//1039 540//1039
f 517//1040 516//1040 422//1040
f 516//1041 420//1041 422//1041
f 382//1042 541//1042 540//1042
f 382//1043 384//1043 541//1043
f 516//1044 513//1044 420//1044
f 513//1045 417//1045 420//1045
f 384//1046 544//1046 541//1046
f 384//1047 385//1047 544//1047
f 513//1048 512//1048 417//1048
f 512//1049 416//1049 417//1049
f 385//1050 546//1050 544//1050
f 385//1051 388//1051 546//1051
f 512//1052 509//1052 416//1052
f 509//1053 413//1053 416//1053
f 388//1054 548//1054 546//1054
f 388//1055 390//1055 548//1055
f 509//1056 508//1056 413//1056
f 390//1057 550//1057 548//1057
f 508//1058 412//1058 413//1058
f 390//1059 391//1059 550//1059
f 508//1060 506//1060 412//1060
f 391//1061 551//1061 550//1061
f 506//1062 410//1062 412//1062
f 391//1063 394//1063 551//1063
f 506//1064 504//1064 410//1064
f 394//1065 554//1065 551//1065
f 504//1066 408//1066 410//1066
f 394//1067 395//1067 554//1067
f 504//1068 502//1068 408//1068
f 395//1069 556//1069 554//1069
f 502//1070 406//1070 408//1070
f 395//1071 398//1071 556//1071
f 502//1072 500//1072 406//1072
f 398//1073 558//1073 556//1073
f 500//1074 404//1074 406//1074
f 398//1075 363//1075 558//1075
f 500//1076 498//1076 404//1076
f 363//1077 559//1077 558//1077
f 498//1078 402//1078 404//1078
f 363//1079 364//1079 559//1079
f 498//1080 496//1080 402//1080
f 364//1081 562//1081 559//1081
f 496//1082 400//1082 402//1082
f 364//1083 366//1083 562//1083
f 496//1084 494//1084 400//1084
f 366//1085 564//1085 562//1085
f 366//1086 301//1086 564//1086
f 494//1087 371//1087 400//1087
f 494//1088 492//1088 371//1088
f 301//1089 566//1089 564//1089
f 492//1090 370//1090 371//1090
f 301//1091 302//1091 566//1091
f 492//1092 490//1092 370//1092
f 490//1093 368//1093 370//1093
f 302//1094 568//1094 566//1094
f 302//1095 304//1095 568//1095
f 490//1096 488//1096 368//1096
f 488//1097 360//1097 368//1097
f 304//1098 570//1098 568//1098
f 304//1099 306//1099 570//1099
f 488//1100 486//1100 360//1100
f 486//1101 358//1101 360//1101
f 306//1102 572//1102 570//1102
f 306//1103 308//1103 572//1103
f 486//1104 356//1104 358//1104
f 484//1105 356//1105 486//1105
f 308//1106 574//1106 572//1106
f 308//1107 310//1107 574//1107
f 484//1108 353//1108 356//1108
f 482//1109 353//1109 484//1109
f 310//1110 576//1110 574//1110
f 310//1111 312//1111 576//1111
f 482//1112 352//1112 353//1112
f 480//1113 352//1113 482//1113
f 312//1114 578//1114 576//1114
f 312//1115 314//1115 578//1115
f 480//1116 349//1116 352//1116
f 478//1117 349//1117 480//1117
f 314//1118 580//1118 578//1118
f 314//1119 315//1119 580//1119
f 478//1120 348//1120 349//1120
f 476//1121 348//1121 478//1121
f 315//1122 441//1122 580//1122
f 315//1123 318//1123 441//1123
f 476//1124 345//1124 348//1124
f 474//1125 345//1125 476//1125
f 318//1126 319//1126 441//1126
f 441//1127 319//1127 442//1127
f 474//1128 344//1128 345//1128
f 471//1129 344//1129 474//1129
f 319//1130 322//1130 442//1130
f 442//1131 322//1131 443//1131
f 471//1132 342//1132 344//1132
f 469//1133 342//1133 471//1133
f 322//1134 324//1134 443//1134
f 443//1135 324//1135 446//1135
f 469//1136 339//1136 342//1136
f 468//1137 339//1137 469//1137
f 446//1138 326//1138 447//1138
f 324//1139 326//1139 446//1139
f 466//1140 338//1140 468//1140
f 468//1141 338//1141 339//1141
f 447//1142 328//1142 450//1142
f 326//1143 328//1143 447//1143
f 464//1144 336//1144 466//1144
f 466//1145 336//1145 338//1145
f 328//1146 329//1146 450//1146
f 450//1147 329//1147 452//1147
f 464//1148 297//1148 336//1148
f 461//1149 297//1149 464//1149
f 329//1150 331//1150 452//1150
f 452//1151 331//1151 453//1151
f 461//1152 295//1152 297//1152
f 460//1153 295//1153 461//1153
f 331//1154 334//1154 453//1154
f 453//1155 334//1155 455//1155
f 334//1156 291//1156 455//1156
f 455//1157 291//1157 458//1157
f 460//1158 293//1158 295//1158
f 291//1159 293//1159 458//1159
f 458//1160 293//1160 460//1160
