# Created by FreeCAD <https://www.freecad.org>
v 38.395622 -548.385986 -73.196831
v 32.012119 -546.571716 -73.518570
v 38.395622 -545.083984 -73.196831
v 0.926139 -545.083984 -74.980576
v 0.926139 -548.385986 -74.980576
v 32.012119 -546.934570 -73.518570
v 32.012119 -547.297424 -73.518570
v 32.012119 -547.660278 -73.518570
v 32.012119 -548.023132 -73.518570
v -3.036736 -546.571716 -75.153687
v -3.036736 -546.934570 -75.153687
v -3.036736 -547.297424 -75.153687
v -3.036736 -547.660278 -75.153687
v -3.036736 -548.023132 -75.153687
v -24.027628 -545.483154 -76.016281
v -36.497913 -545.083984 -76.483765
v -24.027628 -545.846008 -76.016281
v -24.027628 -546.208862 -76.016281
v -24.027628 -546.571716 -76.016281
v -36.497913 -548.385986 -76.483765
v -24.027628 -546.934570 -76.016281
v -24.027628 -547.297424 -76.016281
v -24.027628 -547.660278 -76.016281
v -24.027628 -548.023132 -76.016281
v -33.916862 -548.385986 -39.732021
v -60.491875 -548.385986 -34.924999
v -36.819050 -548.385986 -36.819050
v -39.887936 -548.385986 -33.469952
v -30.794718 -548.385986 -42.407894
v -42.653248 -548.385986 -29.866125
v -27.471930 -548.385986 -44.830116
v -45.093945 -548.385986 -26.035000
v -62.932674 -548.385986 -30.306780
v -23.586449 -548.385986 -46.990696
v -47.191448 -548.385986 -22.005733
v -65.021530 -548.385986 -25.519070
v -19.532331 -548.385986 -48.815308
v -48.929794 -548.385986 -17.808989
v -66.746758 -548.385986 -20.588650
v -15.338564 -548.385986 -50.290897
v -50.295757 -548.385986 -13.476707
v -68.098717 -548.385986 -15.543087
v -11.035129 -548.385986 -51.406925
v -51.278938 -548.385986 -9.041861
v -69.069832 -548.385986 -10.410603
v -6.652795 -548.385986 -52.155407
v -51.871857 -548.385986 -4.538199
v -69.654686 -548.385986 -5.219897
v -2.222896 -548.385986 -52.530991
v -52.070000 -548.385986 0.000000
v -69.849998 -548.385986 0.000000
v -69.654686 -548.385986 5.219897
v 2.222896 -548.385986 -52.530991
v -51.871857 -548.385986 4.538199
v -69.069832 -548.385986 10.410603
v 6.652795 -548.385986 -52.155407
v -51.278938 -548.385986 9.041861
v -68.098717 -548.385986 15.543087
v 11.035129 -548.385986 -51.406925
v -50.295757 -548.385986 13.476707
v -66.746758 -548.385986 20.588650
v 15.338564 -548.385986 -50.290897
v -48.929794 -548.385986 17.808989
v -65.021530 -548.385986 25.519070
v 19.532331 -548.385986 -48.815308
v -47.191448 -548.385986 22.005733
v -62.932674 -548.385986 30.306780
v 23.586449 -548.385986 -46.990696
v -45.093945 -548.385986 26.035000
v -60.491875 -548.385986 34.924999
v 27.471930 -548.385986 -44.830116
v -42.653248 -548.385986 29.866125
v 30.794718 -548.385986 -42.407894
v -39.887936 -548.385986 33.469952
v 33.916862 -548.385986 -39.732021
v -36.819050 -548.385986 36.819050
v -33.916862 -548.385986 39.732021
v 36.819050 -548.385986 -36.819050
v 60.491875 -548.385986 -34.924999
v 39.887936 -548.385986 -33.469952
v 42.653248 -548.385986 -29.866125
v 45.093945 -548.385986 -26.035000
v 62.932674 -548.385986 -30.306780
v 47.191448 -548.385986 -22.005733
v -38.609764 -548.385986 72.825928
v -19.532331 -548.385986 48.815308
v -23.586449 -548.385986 46.990696
v -27.471930 -548.385986 44.830116
v -30.794718 -548.385986 42.407894
v 65.021530 -548.385986 -25.519070
v 48.929794 -548.385986 -17.808989
v 66.746758 -548.385986 -20.588650
v 50.295757 -548.385986 -13.476707
v 68.098717 -548.385986 -15.543087
v 51.278938 -548.385986 -9.041861
v 69.069832 -548.385986 -10.410603
v 51.871857 -548.385986 -4.538199
v -2.222896 -548.385986 52.530991
v -13.728546 -548.385986 74.422043
v -6.652795 -548.385986 52.155407
v -11.035129 -548.385986 51.406925
v -15.338564 -548.385986 50.290897
v 69.654686 -548.385986 -5.219897
v 52.070000 -548.385986 -0.000000
v 69.849998 -548.385986 0.000000
v 69.654686 -548.385986 5.219897
v 51.871857 -548.385986 4.538199
v 69.069832 -548.385986 10.410603
v 51.278938 -548.385986 9.041861
v 68.098717 -548.385986 15.543087
v 50.295757 -548.385986 13.476707
v 19.532331 -548.385986 48.815308
v 11.364845 -548.385986 75.638748
v 15.338564 -548.385986 50.290897
v 11.035129 -548.385986 51.406925
v 6.652795 -548.385986 52.155407
v 2.222896 -548.385986 52.530991
v 66.746758 -548.385986 20.588650
v 48.929794 -548.385986 17.808989
v 65.021530 -548.385986 25.519070
v 47.191448 -548.385986 22.005733
v 62.932674 -548.385986 30.306780
v 45.093945 -548.385986 26.035000
v 60.491875 -548.385986 34.924999
v 42.653248 -548.385986 29.866125
v 39.887936 -548.385986 33.469952
v 36.819050 -548.385986 36.819050
v 33.916862 -548.385986 39.732021
v 36.504162 -548.385986 76.472939
v 30.794718 -548.385986 42.407894
v 27.471930 -548.385986 44.830116
v 23.586449 -548.385986 46.990696
v -60.491875 -545.083984 -34.924999
v -33.916862 -545.083984 -39.732021
v -36.819050 -545.083984 -36.819050
v -39.887936 -545.083984 -33.469952
v -30.794718 -545.083984 -42.407894
v -42.653248 -545.083984 -29.866125
v -27.471930 -545.083984 -44.830116
v -45.093945 -545.083984 -26.035000
v -62.932674 -545.083984 -30.306780
v -23.586449 -545.083984 -46.990696
v -47.191448 -545.083984 -22.005733
v -65.021530 -545.083984 -25.519070
v -19.532331 -545.083984 -48.815308
v -48.929794 -545.083984 -17.808989
v -66.746758 -545.083984 -20.588650
v -15.338564 -545.083984 -50.290897
v -50.295757 -545.083984 -13.476707
v -68.098717 -545.083984 -15.543087
v -11.035129 -545.083984 -51.406925
v -51.278938 -545.083984 -9.041861
v -69.069832 -545.083984 -10.410603
v -6.652795 -545.083984 -52.155407
v -51.871857 -545.083984 -4.538199
v -69.654686 -545.083984 -5.219897
v -2.222896 -545.083984 -52.530991
v -52.070000 -545.083984 0.000000
v -69.849998 -545.083984 0.000000
v -69.654686 -545.083984 5.219897
v 2.222896 -545.083984 -52.530991
v -51.871857 -545.083984 4.538199
v -69.069832 -545.083984 10.410603
v 6.652795 -545.083984 -52.155407
v -51.278938 -545.083984 9.041861
v -68.098717 -545.083984 15.543087
v 11.035129 -545.083984 -51.406925
v -50.295757 -545.083984 13.476707
v -66.746758 -545.083984 20.588650
v 15.338564 -545.083984 -50.290897
v -48.929794 -545.083984 17.808989
v -65.021530 -545.083984 25.519070
v 19.532331 -545.083984 -48.815308
v -47.191448 -545.083984 22.005733
v -62.932674 -545.083984 30.306780
v 23.586449 -545.083984 -46.990696
v -45.093945 -545.083984 26.035000
v -60.491875 -545.083984 34.924999
v 27.471930 -545.083984 -44.830116
v -42.653248 -545.083984 29.866125
v 30.794718 -545.083984 -42.407894
v -39.887936 -545.083984 33.469952
v 33.916862 -545.083984 -39.732021
v -36.819050 -545.083984 36.819050
v -33.916862 -545.083984 39.732021
v 60.491875 -545.083984 -34.924999
v 36.819050 -545.083984 -36.819050
v 39.887936 -545.083984 -33.469952
v 42.653248 -545.083984 -29.866125
v 45.093945 -545.083984 -26.035000
v 62.932674 -545.083984 -30.306780
v 47.191448 -545.083984 -22.005733
v -38.609764 -545.083984 72.825928
v -19.532331 -545.083984 48.815308
v -23.586449 -545.083984 46.990696
v -27.471930 -545.083984 44.830116
v -30.794718 -545.083984 42.407894
v 65.021530 -545.083984 -25.519070
v 48.929794 -545.083984 -17.808989
v 66.746758 -545.083984 -20.588650
v 50.295757 -545.083984 -13.476707
v 68.098717 -545.083984 -15.543087
v 51.278938 -545.083984 -9.041861
v 69.069832 -545.083984 -10.410603
v 51.871857 -545.083984 -4.538199
v -13.728546 -545.083984 74.422043
v -2.222896 -545.083984 52.530991
v -6.652795 -545.083984 52.155407
v -11.035129 -545.083984 51.406925
v -15.338564 -545.083984 50.290897
v 69.654686 -545.083984 -5.219897
v 52.070000 -545.083984 -0.000000
v 69.849998 -545.083984 0.000000
v 69.654686 -545.083984 5.219897
v 51.871857 -545.083984 4.538199
v 69.069832 -545.083984 10.410603
v 51.278938 -545.083984 9.041861
v 68.098717 -545.083984 15.543087
v 50.295757 -545.083984 13.476707
v 11.364845 -545.083984 75.638748
v 19.532331 -545.083984 48.815308
v 15.338564 -545.083984 50.290897
v 11.035129 -545.083984 51.406925
v 6.652795 -545.083984 52.155407
v 2.222896 -545.083984 52.530991
v 66.746758 -545.083984 20.588650
v 48.929794 -545.083984 17.808989
v 65.021530 -545.083984 25.519070
v 47.191448 -545.083984 22.005733
v 62.932674 -545.083984 30.306780
v 45.093945 -545.083984 26.035000
v 60.491875 -545.083984 34.924999
v 42.653248 -545.083984 29.866125
v 39.887936 -545.083984 33.469952
v 36.819050 -545.083984 36.819050
v 33.916862 -545.083984 39.732021
v 36.504162 -545.083984 76.472939
v 30.794718 -545.083984 42.407894
v 27.471930 -545.083984 44.830116
v 23.586449 -545.083984 46.990696
v -28.048620 -545.829590 73.551743
v -28.048620 -546.184692 73.551743
v -28.048620 -546.539734 73.551743
v -28.048620 -546.894775 73.551743
v -28.048620 -547.249817 73.551743
v -28.048620 -547.604858 73.551743
v -28.048620 -547.959961 73.551743
v 6.327869 -546.539734 75.425545
v 6.327869 -546.894775 75.425545
v 6.327869 -547.249817 75.425545
v 6.327869 -547.604858 75.425545
v 6.327869 -547.959961 75.425545
v 20.681637 -545.829590 75.992393
v 20.681637 -546.184692 75.992393
v 20.681637 -546.539734 75.992393
v 20.681637 -546.894775 75.992393
v 20.681637 -547.249817 75.992393
v 20.681637 -547.604858 75.992393
v 20.681637 -547.959961 75.992393
v 38.395622 -548.385986 -73.196831
v 32.012119 -546.571716 -73.518570
v 38.395622 -545.083984 -73.196831
v 0.926139 -545.083984 -74.980576
v 0.926139 -548.385986 -74.980576
v 32.012119 -546.934570 -73.518570
v 32.012119 -547.297424 -73.518570
v 32.012119 -547.660278 -73.518570
v 32.012119 -548.023132 -73.518570
v -3.036736 -546.571716 -75.153687
v -3.036736 -546.934570 -75.153687
v -3.036736 -547.297424 -75.153687
v -3.036736 -547.660278 -75.153687
v -3.036736 -548.023132 -75.153687
v -24.027628 -545.483154 -76.016281
v -36.497913 -545.083984 -76.483765
v -24.027628 -545.846008 -76.016281
v -24.027628 -546.208862 -76.016281
v -24.027628 -546.571716 -76.016281
v -36.497913 -548.385986 -76.483765
v -24.027628 -546.934570 -76.016281
v -24.027628 -547.297424 -76.016281
v -24.027628 -547.660278 -76.016281
v -24.027628 -548.023132 -76.016281
v -33.916862 -548.385986 -39.732021
v -60.491875 -548.385986 -34.924999
v -36.819050 -548.385986 -36.819050
v -39.887936 -548.385986 -33.469952
v -30.794718 -548.385986 -42.407894
v -42.653248 -548.385986 -29.866125
v -27.471930 -548.385986 -44.830116
v -45.093945 -548.385986 -26.035000
v -62.932674 -548.385986 -30.306780
v -23.586449 -548.385986 -46.990696
v -47.191448 -548.385986 -22.005733
v -65.021530 -548.385986 -25.519070
v -19.532331 -548.385986 -48.815308
v -48.929794 -548.385986 -17.808989
v -66.746758 -548.385986 -20.588650
v -15.338564 -548.385986 -50.290897
v -50.295757 -548.385986 -13.476707
v -68.098717 -548.385986 -15.543087
v -11.035129 -548.385986 -51.406925
v -51.278938 -548.385986 -9.041861
v -69.069832 -548.385986 -10.410603
v -6.652795 -548.385986 -52.155407
v -51.871857 -548.385986 -4.538199
v -69.654686 -548.385986 -5.219897
v -2.222896 -548.385986 -52.530991
v -52.070000 -548.385986 0.000000
v -69.849998 -548.385986 0.000000
v -69.654686 -548.385986 5.219897
v 2.222896 -548.385986 -52.530991
v -51.871857 -548.385986 4.538199
v -69.069832 -548.385986 10.410603
v 6.652795 -548.385986 -52.155407
v -51.278938 -548.385986 9.041861
v -68.098717 -548.385986 15.543087
v 11.035129 -548.385986 -51.406925
v -50.295757 -548.385986 13.476707
v -66.746758 -548.385986 20.588650
v 15.338564 -548.385986 -50.290897
v -48.929794 -548.385986 17.808989
v -65.021530 -548.385986 25.519070
v 19.532331 -548.385986 -48.815308
v -47.191448 -548.385986 22.005733
v -62.932674 -548.385986 30.306780
v 23.586449 -548.385986 -46.990696
v -45.093945 -548.385986 26.035000
v -60.491875 -548.385986 34.924999
v 27.471930 -548.385986 -44.830116
v -42.653248 -548.385986 29.866125
v 30.794718 -548.385986 -42.407894
v -39.887936 -548.385986 33.469952
v 33.916862 -548.385986 -39.732021
v -36.819050 -548.385986 36.819050
v -33.916862 -548.385986 39.732021
v 36.819050 -548.385986 -36.819050
v 60.491875 -548.385986 -34.924999
v 39.887936 -548.385986 -33.469952
v 42.653248 -548.385986 -29.866125
v 45.093945 -548.385986 -26.035000
v 62.932674 -548.385986 -30.306780
v 47.191448 -548.385986 -22.005733
v -38.609764 -548.385986 72.825928
v -19.532331 -548.385986 48.815308
v -23.586449 -548.385986 46.990696
v -27.471930 -548.385986 44.830116
v -30.794718 -548.385986 42.407894
v 65.021530 -548.385986 -25.519070
v 48.929794 -548.385986 -17.808989
v 66.746758 -548.385986 -20.588650
v 50.295757 -548.385986 -13.476707
v 68.098717 -548.385986 -15.543087
v 51.278938 -548.385986 -9.041861
v 69.069832 -548.385986 -10.410603
v 51.871857 -548.385986 -4.538199
v -2.222896 -548.385986 52.530991
v -13.728546 -548.385986 74.422043
v -6.652795 -548.385986 52.155407
v -11.035129 -548.385986 51.406925
v -15.338564 -548.385986 50.290897
v 69.654686 -548.385986 -5.219897
v 52.070000 -548.385986 -0.000000
v 69.849998 -548.385986 0.000000
v 69.654686 -548.385986 5.219897
v 51.871857 -548.385986 4.538199
v 69.069832 -548.385986 10.410603
v 51.278938 -548.385986 9.041861
v 68.098717 -548.385986 15.543087
v 50.295757 -548.385986 13.476707
v 19.532331 -548.385986 48.815308
v 11.364845 -548.385986 75.638748
v 15.338564 -548.385986 50.290897
v 11.035129 -548.385986 51.406925
v 6.652795 -548.385986 52.155407
v 2.222896 -548.385986 52.530991
v 66.746758 -548.385986 20.588650
v 48.929794 -548.385986 17.808989
v 65.021530 -548.385986 25.519070
v 47.191448 -548.385986 22.005733
v 62.932674 -548.385986 30.306780
v 45.093945 -548.385986 26.035000
v 60.491875 -548.385986 34.924999
v 42.653248 -548.385986 29.866125
v 39.887936 -548.385986 33.469952
v 36.819050 -548.385986 36.819050
v 33.916862 -548.385986 39.732021
v 36.504162 -548.385986 76.472939
v 30.794718 -548.385986 42.407894
v 27.471930 -548.385986 44.830116
v 23.586449 -548.385986 46.990696
v -60.491875 -545.083984 -34.924999
v -33.916862 -545.083984 -39.732021
v -36.819050 -545.083984 -36.819050
v -39.887936 -545.083984 -33.469952
v -30.794718 -545.083984 -42.407894
v -42.653248 -545.083984 -29.866125
v -27.471930 -545.083984 -44.830116
v -45.093945 -545.083984 -26.035000
v -62.932674 -545.083984 -30.306780
v -23.586449 -545.083984 -46.990696
v -47.191448 -545.083984 -22.005733
v -65.021530 -545.083984 -25.519070
v -19.532331 -545.083984 -48.815308
v -48.929794 -545.083984 -17.808989
v -66.746758 -545.083984 -20.588650
v -15.338564 -545.083984 -50.290897
v -50.295757 -545.083984 -13.476707
v -68.098717 -545.083984 -15.543087
v -11.035129 -545.083984 -51.406925
v -51.278938 -545.083984 -9.041861
v -69.069832 -545.083984 -10.410603
v -6.652795 -545.083984 -52.155407
v -51.871857 -545.083984 -4.538199
v -69.654686 -545.083984 -5.219897
v -2.222896 -545.083984 -52.530991
v -52.070000 -545.083984 0.000000
v -69.849998 -545.083984 0.000000
v -69.654686 -545.083984 5.219897
v 2.222896 -545.083984 -52.530991
v -51.871857 -545.083984 4.538199
v -69.069832 -545.083984 10.410603
v 6.652795 -545.083984 -52.155407
v -51.278938 -545.083984 9.041861
v -68.098717 -545.083984 15.543087
v 11.035129 -545.083984 -51.406925
v -50.295757 -545.083984 13.476707
v -66.746758 -545.083984 20.588650
v 15.338564 -545.083984 -50.290897
v -48.929794 -545.083984 17.808989
v -65.021530 -545.083984 25.519070
v 19.532331 -545.083984 -48.815308
v -47.191448 -545.083984 22.005733
v -62.932674 -545.083984 30.306780
v 23.586449 -545.083984 -46.990696
v -45.093945 -545.083984 26.035000
v -60.491875 -545.083984 34.924999
v 27.471930 -545.083984 -44.830116
v -42.653248 -545.083984 29.866125
v 30.794718 -545.083984 -42.407894
v -39.887936 -545.083984 33.469952
v 33.916862 -545.083984 -39.732021
v -36.819050 -545.083984 36.819050
v -33.916862 -545.083984 39.732021
v 60.491875 -545.083984 -34.924999
v 36.819050 -545.083984 -36.819050
v 39.887936 -545.083984 -33.469952
v 42.653248 -545.083984 -29.866125
v 45.093945 -545.083984 -26.035000
v 62.932674 -545.083984 -30.306780
v 47.191448 -545.083984 -22.005733
v -38.609764 -545.083984 72.825928
v -19.532331 -545.083984 48.815308
v -23.586449 -545.083984 46.990696
v -27.471930 -545.083984 44.830116
v -30.794718 -545.083984 42.407894
v 65.021530 -545.083984 -25.519070
v 48.929794 -545.083984 -17.808989
v 66.746758 -545.083984 -20.588650
v 50.295757 -545.083984 -13.476707
v 68.098717 -545.083984 -15.543087
v 51.278938 -545.083984 -9.041861
v 69.069832 -545.083984 -10.410603
v 51.871857 -545.083984 -4.538199
v -13.728546 -545.083984 74.422043
v -2.222896 -545.083984 52.530991
v -6.652795 -545.083984 52.155407
v -11.035129 -545.083984 51.406925
v -15.338564 -545.083984 50.290897
v 69.654686 -545.083984 -5.219897
v 52.070000 -545.083984 -0.000000
v 69.849998 -545.083984 0.000000
v 69.654686 -545.083984 5.219897
v 51.871857 -545.083984 4.538199
v 69.069832 -545.083984 10.410603
v 51.278938 -545.083984 9.041861
v 68.098717 -545.083984 15.543087
v 50.295757 -545.083984 13.476707
v 11.364845 -545.083984 75.638748
v 19.532331 -545.083984 48.815308
v 15.338564 -545.083984 50.290897
v 11.035129 -545.083984 51.406925
v 6.652795 -545.083984 52.155407
v 2.222896 -545.083984 52.530991
v 66.746758 -545.083984 20.588650
v 48.929794 -545.083984 17.808989
v 65.021530 -545.083984 25.519070
v 47.191448 -545.083984 22.005733
v 62.932674 -545.083984 30.306780
v 45.093945 -545.083984 26.035000
v 60.491875 -545.083984 34.924999
v 42.653248 -545.083984 29.866125
v 39.887936 -545.083984 33.469952
v 36.819050 -545.083984 36.819050
v 33.916862 -545.083984 39.732021
v 36.504162 -545.083984 76.472939
v 30.794718 -545.083984 42.407894
v 27.471930 -545.083984 44.830116
v 23.586449 -545.083984 46.990696
v -28.048620 -545.829590 73.551743
v -28.048620 -546.184692 73.551743
v -28.048620 -546.539734 73.551743
v -28.048620 -546.894775 73.551743
v -28.048620 -547.249817 73.551743
v -28.048620 -547.604858 73.551743
v -28.048620 -547.959961 73.551743
v 6.327869 -546.539734 75.425545
v 6.327869 -546.894775 75.425545
v 6.327869 -547.249817 75.425545
v 6.327869 -547.604858 75.425545
v 6.327869 -547.959961 75.425545
v 20.681637 -545.829590 75.992393
v 20.681637 -546.184692 75.992393
v 20.681637 -546.539734 75.992393
v 20.681637 -546.894775 75.992393
v 20.681637 -547.249817 75.992393
v 20.681637 -547.604858 75.992393
v 20.681637 -547.959961 75.992393
vn 0.050338 0.000000 -0.998732
vn 0.047548 0.011984 -0.998797
vn 0.046979 0.000000 -0.998896
vn 0.050338 0.000000 -0.998732
vn 0.046979 0.000000 -0.998896
vn 0.046979 0.000000 -0.998896
vn 0.050338 0.000000 -0.998732
vn 0.046979 0.000000 -0.998896
vn 0.050338 0.000000 -0.998732
vn 0.047494 -0.049081 -0.997665
vn 0.046979 0.000000 -0.998896
vn 0.050338 0.000000 -0.998732
vn 0.043642 0.000000 -0.999047
vn 0.043642 0.000000 -0.999047
vn 0.043642 0.000000 -0.999047
vn 0.043642 0.000000 -0.999047
vn 0.043642 0.000000 -0.999047
vn 0.039994 0.083323 -0.995720
vn 0.041372 0.006055 -0.999126
vn 0.037461 0.000000 -0.999298
vn 0.041059 0.000000 -0.999157
vn 0.041059 0.000000 -0.999157
vn 0.037461 0.000000 -0.999298
vn 0.037461 0.000000 -0.999298
vn 0.041059 0.000000 -0.999157
vn 0.037461 0.000000 -0.999298
vn 0.041059 0.000000 -0.999157
vn 0.041059 0.000000 -0.999157
vn 0.041059 0.000000 -0.999157
vn 0.037461 0.000000 -0.999298
vn 0.041059 0.000000 -0.999157
vn 0.037461 0.000000 -0.999298
vn 0.041059 0.000000 -0.999157
vn 0.041059 0.000000 -0.999157
vn 0.041059 0.000000 -0.999157
vn 0.037461 0.000000 -0.999298
vn 0.039965 -0.091595 -0.994994
vn 0.041043 -0.028245 -0.998758
vn 0.037461 0.000000 -0.999298
vn 0.041059 0.000000 -0.999157
vn 0.000000 -1.000000 0.000000
vn 0.000000 -1.000000 0.000000
vn 0.000000 -1.000000 0.000000
vn 0.000000 -1.000000 0.000000
vn -0.000000 -1.000000 0.000000
vn 0.000000 -1.000000 0.000000
vn -0.000000 -1.000000 0.000000
vn 0.000000 -1.000000 0.000000
vn 0.000000 -1.000000 0.000000
vn -0.000000 -1.000000 0.000000
vn 0.000000 -1.000000 0.000000
vn 0.000000 -1.000000 0.000000
vn -0.000000 -1.000000 0.000000
vn 0.000000 -1.000000 0.000000
vn 0.000000 -1.000000 0.000000
vn -0.000000 -1.000000 0.000000
vn 0.000000 -1.000000 0.000000
vn 0.000000 -1.000000 0.000000
vn -0.000000 -1.000000 0.000000
vn -0.000000 -1.000000 0.000000
vn 0.000000 -1.000000 0.000000
vn 0.000000 -1.000000 0.000000
vn -0.000000 -1.000000 0.000000
vn 0.000000 -1.000000 0.000000
vn 0.000000 -1.000000 0.000000
vn -0.000000 -1.000000 0.000000
vn 0.000000 -1.000000 0.000000
vn 0.000000 -1.000000 0.000000
vn 0.000000 -1.000000 0.000000
vn 0.000000 -1.000000 0.000000
vn 0.000000 -1.000000 0.000000
vn 0.000000 -1.000000 0.000000
vn 0.000000 -1.000000 0.000000
vn 0.000000 -1.000000 0.000000
vn 0.000000 -1.000000 0.000000
vn 0.000000 -1.000000 0.000000
vn 0.000000 -1.000000 0.000000
vn 0.000000 -1.000000 0.000000
vn 0.000000 -1.000000 0.000000
vn 0.000000 -1.000000 0.000000
vn 0.000000 -1.000000 0.000000
vn 0.000000 -1.000000 0.000000
vn 0.000000 -1.000000 0.000000
vn 0.000000 -1.000000 0.000000
vn 0.000000 -1.000000 0.000000
vn 0.000000 -1.000000 0.000000
vn 0.000000 -1.000000 0.000000
vn 0.000000 -1.000000 0.000000
vn 0.000000 -1.000000 0.000000
vn 0.000000 -1.000000 0.000000
vn 0.000000 -1.000000 0.000000
vn 0.000000 -1.000000 0.000000
vn 0.000000 -1.000000 0.000000
vn -0.000000 -1.000000 0.000000
vn 0.000000 -1.000000 0.000000
vn 0.000000 -1.000000 0.000000
vn 0.000000 -1.000000 0.000000
vn 0.000000 -1.000000 0.000000
vn 0.000000 -1.000000 0.000000
vn 0.000000 -1.000000 0.000000
vn 0.000000 -1.000000 0.000000
vn -0.000000 -1.000000 0.000000
vn -0.000000 -1.000000 0.000000
vn -0.000000 -1.000000 0.000000
vn -0.000000 -1.000000 0.000000
vn -0.000000 -1.000000 0.000000
vn 0.000000 -1.000000 0.000000
vn 0.000000 -1.000000 0.000000
vn 0.000000 -1.000000 0.000000
vn 0.000000 -1.000000 0.000000
vn 0.000000 -1.000000 0.000000
vn 0.000000 -1.000000 0.000000
vn 0.000000 -1.000000 0.000000
vn 0.000000 -1.000000 0.000000
vn -0.000000 -1.000000 0.000000
vn -0.000000 -1.000000 0.000000
vn 0.000000 -1.000000 0.000000
vn -0.000000 -1.000000 0.000000
vn -0.000000 -1.000000 0.000000
vn 0.000000 -1.000000 0.000000
vn 0.000000 -1.000000 0.000000
vn 0.000000 -1.000000 0.000000
vn 0.000000 -1.000000 0.000000
vn -0.000000 -1.000000 0.000000
vn -0.000000 -1.000000 0.000000
vn 0.000000 -1.000000 0.000000
vn 0.000000 -1.000000 0.000000
vn -0.000000 -1.000000 0.000000
vn 0.000000 -1.000000 0.000000
vn 0.000000 -1.000000 0.000000
vn 0.000000 -1.000000 0.000000
vn 0.000000 -1.000000 0.000000
vn 0.000000 -1.000000 0.000000
vn 0.000000 -1.000000 0.000000
vn 0.000000 -1.000000 0.000000
vn -0.000000 -1.000000 0.000000
vn 0.000000 -1.000000 0.000000
vn -0.000000 -1.000000 0.000000
vn -0.000000 -1.000000 0.000000
vn 0.000000 -1.000000 0.000000
vn 0.000000 -1.000000 0.000000
vn 0.000000 -1.000000 0.000000
vn 0.000000 -1.000000 0.000000
vn 0.000000 -1.000000 0.000000
vn -0.000000 -1.000000 0.000000
vn 0.000000 -1.000000 0.000000
vn 0.000000 -1.000000 0.000000
vn 0.000000 -1.000000 0.000000
vn 0.000000 -1.000000 0.000000
vn 0.000000 -1.000000 0.000000
vn 0.000000 -1.000000 0.000000
vn -0.866025 -0.000000 -0.500000
vn -0.866025 0.000000 -0.500000
vn 0.000000 1.000000 0.000000
vn 0.000000 1.000000 0.000000
vn 0.000000 1.000000 0.000000
vn 0.000000 1.000000 0.000000
vn 0.000000 1.000000 0.000000
vn 0.000000 1.000000 0.000000
vn 0.000000 1.000000 0.000000
vn 0.000000 1.000000 0.000000
vn 0.000000 1.000000 0.000000
vn 0.000000 1.000000 0.000000
vn 0.000000 1.000000 0.000000
vn 0.000000 1.000000 0.000000
vn 0.000000 1.000000 0.000000
vn 0.000000 1.000000 0.000000
vn 0.000000 1.000000 0.000000
vn 0.000000 1.000000 0.000000
vn 0.000000 1.000000 0.000000
vn 0.000000 1.000000 0.000000
vn 0.000000 1.000000 0.000000
vn 0.000000 1.000000 0.000000
vn 0.000000 1.000000 0.000000
vn 0.000000 1.000000 0.000000
vn 0.000000 1.000000 0.000000
vn 0.000000 1.000000 0.000000
vn 0.000000 1.000000 0.000000
vn 0.000000 1.000000 0.000000
vn 0.000000 1.000000 0.000000
vn 0.000000 1.000000 0.000000
vn 0.000000 1.000000 0.000000
vn 0.000000 1.000000 0.000000
vn 0.000000 1.000000 0.000000
vn 0.000000 1.000000 0.000000
vn 0.000000 1.000000 0.000000
vn 0.000000 1.000000 0.000000
vn 0.000000 1.000000 0.000000
vn 0.000000 1.000000 0.000000
vn 0.000000 1.000000 0.000000
vn 0.000000 1.000000 0.000000
vn 0.000000 1.000000 0.000000
vn 0.000000 1.000000 0.000000
vn 0.000000 1.000000 0.000000
vn 0.000000 1.000000 0.000000
vn 0.000000 1.000000 0.000000
vn 0.000000 1.000000 0.000000
vn 0.000000 1.000000 0.000000
vn 0.000000 1.000000 0.000000
vn 0.000000 1.000000 0.000000
vn 0.000000 1.000000 0.000000
vn 0.000000 1.000000 0.000000
vn 0.000000 1.000000 0.000000
vn 0.000000 1.000000 0.000000
vn 0.000000 1.000000 0.000000
vn 0.000000 1.000000 0.000000
vn 0.000000 1.000000 0.000000
vn 0.000000 1.000000 0.000000
vn 0.000000 1.000000 0.000000
vn 0.000000 1.000000 0.000000
vn 0.000000 1.000000 0.000000
vn 0.000000 1.000000 0.000000
vn 0.000000 1.000000 0.000000
vn 0.000000 1.000000 0.000000
vn 0.000000 1.000000 0.000000
vn 0.000000 1.000000 0.000000
vn 0.000000 1.000000 0.000000
vn 0.000000 1.000000 0.000000
vn 0.000000 1.000000 0.000000
vn 0.000000 1.000000 0.000000
vn 0.000000 1.000000 0.000000
vn 0.000000 1.000000 0.000000
vn 0.000000 1.000000 0.000000
vn 0.000000 1.000000 0.000000
vn 0.000000 1.000000 0.000000
vn 0.000000 1.000000 0.000000
vn 0.000000 1.000000 0.000000
vn 0.000000 1.000000 0.000000
vn 0.000000 1.000000 0.000000
vn 0.000000 1.000000 0.000000
vn 0.000000 1.000000 0.000000
vn 0.000000 1.000000 0.000000
vn 0.000000 1.000000 0.000000
vn 0.000000 1.000000 0.000000
vn 0.000000 1.000000 0.000000
vn 0.000000 1.000000 0.000000
vn 0.000000 1.000000 0.000000
vn 0.000000 1.000000 0.000000
vn 0.000000 1.000000 0.000000
vn 0.000000 1.000000 0.000000
vn 0.000000 1.000000 0.000000
vn 0.000000 1.000000 0.000000
vn 0.000000 1.000000 0.000000
vn 0.000000 1.000000 0.000000
vn 0.000000 1.000000 0.000000
vn 0.000000 1.000000 0.000000
vn 0.000000 1.000000 0.000000
vn 0.000000 1.000000 0.000000
vn 0.000000 1.000000 0.000000
vn 0.000000 1.000000 0.000000
vn 0.000000 1.000000 0.000000
vn 0.000000 1.000000 0.000000
vn 0.000000 1.000000 0.000000
vn 0.000000 1.000000 0.000000
vn 0.000000 1.000000 0.000000
vn 0.000000 1.000000 0.000000
vn 0.000000 1.000000 0.000000
vn 0.000000 1.000000 0.000000
vn 0.000000 1.000000 0.000000
vn 0.000000 1.000000 0.000000
vn 0.000000 1.000000 0.000000
vn 0.000000 1.000000 0.000000
vn 0.000000 1.000000 0.000000
vn 0.000000 1.000000 0.000000
vn 0.866025 0.000000 -0.500000
vn 0.866025 0.000000 -0.500000
vn 0.884115 0.000000 -0.467269
vn 0.884115 0.000000 -0.467269
vn 0.943883 0.000000 -0.330279
vn 0.916562 0.000000 -0.399892
vn 0.916562 0.000000 -0.399892
vn 0.965926 0.000000 -0.258820
vn 0.943883 0.000000 -0.330279
vn 0.965926 0.000000 -0.258820
vn 0.982567 0.000000 -0.185911
vn 0.982567 0.000000 -0.185911
vn 0.993712 0.000000 -0.111965
vn 0.993712 0.000000 -0.111965
vn 0.999301 0.000000 -0.037391
vn 0.999301 0.000000 -0.037391
vn 0.999301 0.000000 0.037391
vn 0.999301 0.000000 0.037391
vn 0.993712 0.000000 0.111965
vn 0.993712 0.000000 0.111965
vn 0.982567 0.000000 0.185911
vn 0.982567 0.000000 0.185911
vn 0.965926 0.000000 0.258820
vn 0.965926 0.000000 0.258820
vn 0.916562 -0.000000 0.399892
vn 0.943883 0.000000 0.330279
vn 0.943883 0.000000 0.330279
vn 0.916562 0.000000 0.399892
vn 0.884115 0.000000 0.467269
vn 0.884115 0.000000 0.467269
vn 0.866025 0.000000 0.500000
vn 0.866025 0.000000 0.500000
vn -0.063884 0.064544 0.995868
vn -0.068563 0.000000 0.997647
vn -0.060663 0.000000 0.998158
vn -0.068563 0.000000 0.997647
vn -0.060663 0.000000 0.998158
vn -0.068563 0.000000 0.997647
vn -0.060663 0.000000 0.998158
vn -0.068563 0.000000 0.997647
vn -0.060663 0.000000 0.998158
vn -0.060663 0.000000 0.998158
vn -0.068563 0.000000 0.997647
vn -0.060663 0.000000 0.998158
vn -0.068563 0.000000 0.997647
vn -0.063612 -0.112479 0.991616
vn -0.060663 0.000000 0.998158
vn -0.068563 0.000000 0.997647
vn -0.048419 0.021282 0.998600
vn -0.049971 0.000000 0.998751
vn -0.042290 0.000000 0.999105
vn -0.049971 0.000000 0.998751
vn -0.042290 0.000000 0.999105
vn -0.042290 0.000000 0.999105
vn -0.049971 0.000000 0.998751
vn -0.042290 0.000000 0.999105
vn -0.049971 0.000000 0.998751
vn -0.048303 -0.072547 0.996195
vn -0.042290 0.000000 0.999105
vn -0.049971 0.000000 0.998751
vn -0.033106 0.059530 0.997677
vn -0.037931 0.000000 0.999280
vn -0.030357 0.000000 0.999539
vn -0.030357 0.000000 0.999539
vn -0.037931 0.000000 0.999280
vn -0.030357 0.000000 0.999539
vn -0.037931 0.000000 0.999280
vn -0.030357 0.000000 0.999539
vn -0.037931 0.000000 0.999280
vn -0.037931 0.000000 0.999280
vn -0.030357 0.000000 0.999539
vn -0.030357 0.000000 0.999539
vn -0.037931 0.000000 0.999280
vn -0.032985 -0.103807 0.994050
vn -0.030357 0.000000 0.999539
vn -0.037931 0.000000 0.999280
vn -0.866025 0.000000 0.500000
vn -0.866025 0.000000 0.500000
vn -0.884115 0.000000 0.467269
vn -0.916562 0.000000 0.399892
vn -0.884115 0.000000 0.467269
vn -0.943883 0.000000 0.330279
vn -0.916562 0.000000 0.399892
vn -0.965926 0.000000 0.258820
vn -0.943883 0.000000 0.330279
vn -0.982567 0.000000 0.185911
vn -0.965926 0.000000 0.258820
vn -0.993712 0.000000 0.111965
vn -0.982567 0.000000 0.185911
vn -0.999301 0.000000 0.037391
vn -0.993712 0.000000 0.111965
vn -0.999301 -0.000000 -0.037391
vn -0.999301 0.000000 0.037391
vn -0.993712 0.000000 -0.111965
vn -0.999301 0.000000 -0.037391
vn -0.982567 0.000000 -0.185911
vn -0.993712 0.000000 -0.111965
vn -0.982567 0.000000 -0.185911
vn -0.943883 0.000000 -0.330279
vn -0.965926 0.000000 -0.258820
vn -0.965926 -0.000000 -0.258820
vn -0.916562 0.000000 -0.399892
vn -0.943883 0.000000 -0.330279
vn -0.884115 0.000000 -0.467269
vn -0.916562 0.000000 -0.399892
vn -0.884115 0.000000 -0.467269
vn -0.737277 0.000000 0.675591
vn -0.737277 0.000000 0.675591
vn -0.793353 0.000000 0.608761
vn -0.793353 0.000000 0.608761
vn -0.843391 0.000000 0.537300
vn -0.843391 0.000000 0.537300
vn -0.887011 0.000000 0.461749
vn -0.887011 0.000000 0.461749
vn -0.923880 0.000000 0.382683
vn -0.953717 0.000000 0.300706
vn -0.923880 0.000000 0.382683
vn -0.953717 0.000000 0.300706
vn -0.976296 0.000000 0.216439
vn -0.976296 0.000000 0.216439
vn -0.991445 0.000000 0.130526
vn -0.999048 0.000000 0.043620
vn -0.991445 0.000000 0.130526
vn -0.999048 0.000000 0.043620
vn -0.999048 0.000000 -0.043620
vn -0.999048 -0.000000 -0.043620
vn -0.991445 0.000000 -0.130526
vn -0.991445 0.000000 -0.130526
vn -0.976296 0.000000 -0.216439
vn -0.976296 0.000000 -0.216439
vn -0.953717 0.000000 -0.300706
vn -0.953717 0.000000 -0.300706
vn -0.923880 0.000000 -0.382683
vn -0.923880 0.000000 -0.382683
vn -0.887011 0.000000 -0.461749
vn -0.887011 0.000000 -0.461749
vn -0.843391 0.000000 -0.537300
vn -0.843391 0.000000 -0.537300
vn -0.793353 0.000000 -0.608761
vn -0.793353 0.000000 -0.608761
vn -0.737277 -0.000000 -0.675591
vn -0.737277 0.000000 -0.675591
vn -0.589070 0.000000 0.808082
vn -0.589070 0.000000 0.808082
vn -0.650756 0.000000 0.759287
vn -0.650756 0.000000 0.759287
vn -0.708417 0.000000 0.705794
vn -0.708417 0.000000 0.705794
vn 0.485983 0.000000 0.873968
vn 0.485983 0.000000 0.873968
vn 0.410413 0.000000 0.911900
vn 0.410413 -0.000000 0.911900
vn 0.331907 0.000000 0.943312
vn 0.331907 -0.000000 0.943312
vn 0.251030 0.000000 0.967979
vn 0.251030 -0.000000 0.967979
vn 0.168357 0.000000 0.985726
vn 0.084481 0.000000 0.996425
vn 0.168357 -0.000000 0.985726
vn 0.084481 0.000000 0.996425
vn -0.000000 0.000000 1.000000
vn 0.000000 0.000000 1.000000
vn -0.084481 0.000000 0.996425
vn -0.168357 0.000000 0.985726
vn -0.084481 0.000000 0.996425
vn -0.168357 0.000000 0.985726
vn -0.251030 0.000000 0.967979
vn -0.251030 0.000000 0.967979
vn -0.331907 0.000000 0.943312
vn -0.331907 0.000000 0.943312
vn -0.410413 0.000000 0.911900
vn -0.410413 0.000000 0.911900
vn -0.485983 0.000000 0.873968
vn -0.485983 0.000000 0.873968
vn 0.708417 0.000000 0.705794
vn 0.708417 0.000000 0.705794
vn 0.650756 0.000000 0.759287
vn 0.650756 -0.000000 0.759287
vn 0.589070 0.000000 0.808082
vn 0.589070 -0.000000 0.808082
vn 0.737277 0.000000 -0.675591
vn 0.737277 0.000000 -0.675591
vn 0.793353 0.000000 -0.608761
vn 0.793353 0.000000 -0.608761
vn 0.843391 0.000000 -0.537300
vn 0.887011 0.000000 -0.461749
vn 0.843391 0.000000 -0.537300
vn 0.887011 0.000000 -0.461749
vn 0.923880 0.000000 -0.382683
vn 0.953717 0.000000 -0.300706
vn 0.923880 0.000000 -0.382683
vn 0.953717 0.000000 -0.300706
vn 0.976296 0.000000 -0.216439
vn 0.976296 0.000000 -0.216439
vn 0.991445 0.000000 -0.130526
vn 0.991445 0.000000 -0.130526
vn 0.999048 0.000000 -0.043620
vn 0.999048 0.000000 -0.043620
vn 0.999048 0.000000 0.043620
vn 0.991445 0.000000 0.130526
vn 0.999048 0.000000 0.043620
vn 0.991445 0.000000 0.130526
vn 0.976296 0.000000 0.216439
vn 0.976296 -0.000000 0.216439
vn 0.953717 0.000000 0.300706
vn 0.923880 0.000000 0.382683
vn 0.953717 -0.000000 0.300706
vn 0.923880 0.000000 0.382683
vn 0.887011 -0.000000 0.461749
vn 0.887011 0.000000 0.461749
vn 0.843391 -0.000000 0.537300
vn 0.843391 0.000000 0.537300
vn 0.793353 -0.000000 0.608761
vn 0.793353 0.000000 0.608761
vn 0.737277 -0.000000 0.675591
vn 0.737277 0.000000 0.675591
vn 0.589070 0.000000 -0.808082
vn 0.589070 0.000000 -0.808082
vn 0.650756 0.000000 -0.759287
vn 0.708417 0.000000 -0.705794
vn 0.650756 0.000000 -0.759287
vn 0.708417 0.000000 -0.705794
vn -0.485983 0.000000 -0.873968
vn -0.485983 0.000000 -0.873968
vn -0.410413 0.000000 -0.911900
vn -0.410413 0.000000 -0.911900
vn -0.331907 0.000000 -0.943312
vn -0.251030 -0.000000 -0.967979
vn -0.331907 0.000000 -0.943312
vn -0.251030 0.000000 -0.967979
vn -0.168357 0.000000 -0.985726
vn -0.084481 -0.000000 -0.996425
vn -0.168357 0.000000 -0.985726
vn -0.084481 0.000000 -0.996425
vn -0.000000 0.000000 -1.000000
vn 0.000000 0.000000 -1.000000
vn 0.084481 0.000000 -0.996425
vn 0.084481 0.000000 -0.996425
vn 0.168357 0.000000 -0.985726
vn 0.168357 0.000000 -0.985726
vn 0.251030 0.000000 -0.967979
vn 0.251030 0.000000 -0.967979
vn 0.331907 0.000000 -0.943312
vn 0.331907 0.000000 -0.943312
vn 0.410413 0.000000 -0.911900
vn 0.485983 0.000000 -0.873968
vn 0.410413 0.000000 -0.911900
vn 0.485983 0.000000 -0.873968
vn -0.708417 0.000000 -0.705794
vn -0.708417 0.000000 -0.705794
vn -0.650756 -0.000000 -0.759287
vn -0.589070 -0.000000 -0.808082
vn -0.650756 0.000000 -0.759287
vn -0.589070 0.000000 -0.808082
vn 0.050338 0.000000 -0.998732
vn 0.047548 0.011984 -0.998797
vn 0.046979 0.000000 -0.998896
vn 0.050338 0.000000 -0.998732
vn 0.046979 0.000000 -0.998896
vn 0.046979 0.000000 -0.998896
vn 0.050338 0.000000 -0.998732
vn 0.046979 0.000000 -0.998896
vn 0.050338 0.000000 -0.998732
vn 0.047494 -0.049081 -0.997665
vn 0.046979 0.000000 -0.998896
vn 0.050338 0.000000 -0.998732
vn 0.043642 0.000000 -0.999047
vn 0.043642 0.000000 -0.999047
vn 0.043642 0.000000 -0.999047
vn 0.043642 0.000000 -0.999047
vn 0.043642 0.000000 -0.999047
vn 0.039994 0.083323 -0.995720
vn 0.041372 0.006055 -0.999126
vn 0.037461 0.000000 -0.999298
vn 0.041059 0.000000 -0.999157
vn 0.041059 0.000000 -0.999157
vn 0.037461 0.000000 -0.999298
vn 0.037461 0.000000 -0.999298
vn 0.041059 0.000000 -0.999157
vn 0.037461 0.000000 -0.999298
vn 0.041059 0.000000 -0.999157
vn 0.041059 0.000000 -0.999157
vn 0.041059 0.000000 -0.999157
vn 0.037461 0.000000 -0.999298
vn 0.041059 0.000000 -0.999157
vn 0.037461 0.000000 -0.999298
vn 0.041059 0.000000 -0.999157
vn 0.041059 0.000000 -0.999157
vn 0.041059 0.000000 -0.999157
vn 0.037461 0.000000 -0.999298
vn 0.039965 -0.091595 -0.994994
vn 0.041043 -0.028245 -0.998758
vn 0.037461 0.000000 -0.999298
vn 0.041059 0.000000 -0.999157
vn 0.000000 -1.000000 0.000000
vn 0.000000 -1.000000 0.000000
vn 0.000000 -1.000000 0.000000
vn 0.000000 -1.000000 0.000000
vn -0.000000 -1.000000 0.000000
vn 0.000000 -1.000000 0.000000
vn -0.000000 -1.000000 0.000000
vn 0.000000 -1.000000 0.000000
vn 0.000000 -1.000000 0.000000
vn -0.000000 -1.000000 0.000000
vn 0.000000 -1.000000 0.000000
vn 0.000000 -1.000000 0.000000
vn -0.000000 -1.000000 0.000000
vn 0.000000 -1.000000 0.000000
vn 0.000000 -1.000000 0.000000
vn -0.000000 -1.000000 0.000000
vn 0.000000 -1.000000 0.000000
vn 0.000000 -1.000000 0.000000
vn -0.000000 -1.000000 0.000000
vn -0.000000 -1.000000 0.000000
vn 0.000000 -1.000000 0.000000
vn 0.000000 -1.000000 0.000000
vn -0.000000 -1.000000 0.000000
vn 0.000000 -1.000000 0.000000
vn 0.000000 -1.000000 0.000000
vn -0.000000 -1.000000 0.000000
vn 0.000000 -1.000000 0.000000
vn 0.000000 -1.000000 0.000000
vn 0.000000 -1.000000 0.000000
vn 0.000000 -1.000000 0.000000
vn 0.000000 -1.000000 0.000000
vn 0.000000 -1.000000 0.000000
vn 0.000000 -1.000000 0.000000
vn 0.000000 -1.000000 0.000000
vn 0.000000 -1.000000 0.000000
vn 0.000000 -1.000000 0.000000
vn 0.000000 -1.000000 0.000000
vn 0.000000 -1.000000 0.000000
vn 0.000000 -1.000000 0.000000
vn 0.000000 -1.000000 0.000000
vn 0.000000 -1.000000 0.000000
vn 0.000000 -1.000000 0.000000
vn 0.000000 -1.000000 0.000000
vn 0.000000 -1.000000 0.000000
vn 0.000000 -1.000000 0.000000
vn 0.000000 -1.000000 0.000000
vn 0.000000 -1.000000 0.000000
vn 0.000000 -1.000000 0.000000
vn 0.000000 -1.000000 0.000000
vn 0.000000 -1.000000 0.000000
vn 0.000000 -1.000000 0.000000
vn 0.000000 -1.000000 0.000000
vn 0.000000 -1.000000 0.000000
vn -0.000000 -1.000000 0.000000
vn 0.000000 -1.000000 0.000000
vn 0.000000 -1.000000 0.000000
vn 0.000000 -1.000000 0.000000
vn 0.000000 -1.000000 0.000000
vn 0.000000 -1.000000 0.000000
vn 0.000000 -1.000000 0.000000
vn 0.000000 -1.000000 0.000000
vn -0.000000 -1.000000 0.000000
vn -0.000000 -1.000000 0.000000
vn -0.000000 -1.000000 0.000000
vn -0.000000 -1.000000 0.000000
vn -0.000000 -1.000000 0.000000
vn 0.000000 -1.000000 0.000000
vn 0.000000 -1.000000 0.000000
vn 0.000000 -1.000000 0.000000
vn 0.000000 -1.000000 0.000000
vn 0.000000 -1.000000 0.000000
vn 0.000000 -1.000000 0.000000
vn 0.000000 -1.000000 0.000000
vn 0.000000 -1.000000 0.000000
vn -0.000000 -1.000000 0.000000
vn -0.000000 -1.000000 0.000000
vn 0.000000 -1.000000 0.000000
vn -0.000000 -1.000000 0.000000
vn -0.000000 -1.000000 0.000000
vn 0.000000 -1.000000 0.000000
vn 0.000000 -1.000000 0.000000
vn 0.000000 -1.000000 0.000000
vn 0.000000 -1.000000 0.000000
vn -0.000000 -1.000000 0.000000
vn -0.000000 -1.000000 0.000000
vn 0.000000 -1.000000 0.000000
vn 0.000000 -1.000000 0.000000
vn -0.000000 -1.000000 0.000000
vn 0.000000 -1.000000 0.000000
vn 0.000000 -1.000000 0.000000
vn 0.000000 -1.000000 0.000000
vn 0.000000 -1.000000 0.000000
vn 0.000000 -1.000000 0.000000
vn 0.000000 -1.000000 0.000000
vn 0.000000 -1.000000 0.000000
vn -0.000000 -1.000000 0.000000
vn 0.000000 -1.000000 0.000000
vn -0.000000 -1.000000 0.000000
vn -0.000000 -1.000000 0.000000
vn 0.000000 -1.000000 0.000000
vn 0.000000 -1.000000 0.000000
vn 0.000000 -1.000000 0.000000
vn 0.000000 -1.000000 0.000000
vn 0.000000 -1.000000 0.000000
vn -0.000000 -1.000000 0.000000
vn 0.000000 -1.000000 0.000000
vn 0.000000 -1.000000 0.000000
vn 0.000000 -1.000000 0.000000
vn 0.000000 -1.000000 0.000000
vn 0.000000 -1.000000 0.000000
vn 0.000000 -1.000000 0.000000
vn -0.866025 -0.000000 -0.500000
vn -0.866025 0.000000 -0.500000
vn 0.000000 1.000000 0.000000
vn 0.000000 1.000000 0.000000
vn 0.000000 1.000000 0.000000
vn 0.000000 1.000000 0.000000
vn 0.000000 1.000000 0.000000
vn 0.000000 1.000000 0.000000
vn 0.000000 1.000000 0.000000
vn 0.000000 1.000000 0.000000
vn 0.000000 1.000000 0.000000
vn 0.000000 1.000000 0.000000
vn 0.000000 1.000000 0.000000
vn 0.000000 1.000000 0.000000
vn 0.000000 1.000000 0.000000
vn 0.000000 1.000000 0.000000
vn 0.000000 1.000000 0.000000
vn 0.000000 1.000000 0.000000
vn 0.000000 1.000000 0.000000
vn 0.000000 1.000000 0.000000
vn 0.000000 1.000000 0.000000
vn 0.000000 1.000000 0.000000
vn 0.000000 1.000000 0.000000
vn 0.000000 1.000000 0.000000
vn 0.000000 1.000000 0.000000
vn 0.000000 1.000000 0.000000
vn 0.000000 1.000000 0.000000
vn 0.000000 1.000000 0.000000
vn 0.000000 1.000000 0.000000
vn 0.000000 1.000000 0.000000
vn 0.000000 1.000000 0.000000
vn 0.000000 1.000000 0.000000
vn 0.000000 1.000000 0.000000
vn 0.000000 1.000000 0.000000
vn 0.000000 1.000000 0.000000
vn 0.000000 1.000000 0.000000
vn 0.000000 1.000000 0.000000
vn 0.000000 1.000000 0.000000
vn 0.000000 1.000000 0.000000
vn 0.000000 1.000000 0.000000
vn 0.000000 1.000000 0.000000
vn 0.000000 1.000000 0.000000
vn 0.000000 1.000000 0.000000
vn 0.000000 1.000000 0.000000
vn 0.000000 1.000000 0.000000
vn 0.000000 1.000000 0.000000
vn 0.000000 1.000000 0.000000
vn 0.000000 1.000000 0.000000
vn 0.000000 1.000000 0.000000
vn 0.000000 1.000000 0.000000
vn 0.000000 1.000000 0.000000
vn 0.000000 1.000000 0.000000
vn 0.000000 1.000000 0.000000
vn 0.000000 1.000000 0.000000
vn 0.000000 1.000000 0.000000
vn 0.000000 1.000000 0.000000
vn 0.000000 1.000000 0.000000
vn 0.000000 1.000000 0.000000
vn 0.000000 1.000000 0.000000
vn 0.000000 1.000000 0.000000
vn 0.000000 1.000000 0.000000
vn 0.000000 1.000000 0.000000
vn 0.000000 1.000000 0.000000
vn 0.000000 1.000000 0.000000
vn 0.000000 1.000000 0.000000
vn 0.000000 1.000000 0.000000
vn 0.000000 1.000000 0.000000
vn 0.000000 1.000000 0.000000
vn 0.000000 1.000000 0.000000
vn 0.000000 1.000000 0.000000
vn 0.000000 1.000000 0.000000
vn 0.000000 1.000000 0.000000
vn 0.000000 1.000000 0.000000
vn 0.000000 1.000000 0.000000
vn 0.000000 1.000000 0.000000
vn 0.000000 1.000000 0.000000
vn 0.000000 1.000000 0.000000
vn 0.000000 1.000000 0.000000
vn 0.000000 1.000000 0.000000
vn 0.000000 1.000000 0.000000
vn 0.000000 1.000000 0.000000
vn 0.000000 1.000000 0.000000
vn 0.000000 1.000000 0.000000
vn 0.000000 1.000000 0.000000
vn 0.000000 1.000000 0.000000
vn 0.000000 1.000000 0.000000
vn 0.000000 1.000000 0.000000
vn 0.000000 1.000000 0.000000
vn 0.000000 1.000000 0.000000
vn 0.000000 1.000000 0.000000
vn 0.000000 1.000000 0.000000
vn 0.000000 1.000000 0.000000
vn 0.000000 1.000000 0.000000
vn 0.000000 1.000000 0.000000
vn 0.000000 1.000000 0.000000
vn 0.000000 1.000000 0.000000
vn 0.000000 1.000000 0.000000
vn 0.000000 1.000000 0.000000
vn 0.000000 1.000000 0.000000
vn 0.000000 1.000000 0.000000
vn 0.000000 1.000000 0.000000
vn 0.000000 1.000000 0.000000
vn 0.000000 1.000000 0.000000
vn 0.000000 1.000000 0.000000
vn 0.000000 1.000000 0.000000
vn 0.000000 1.000000 0.000000
vn 0.000000 1.000000 0.000000
vn 0.000000 1.000000 0.000000
vn 0.000000 1.000000 0.000000
vn 0.000000 1.000000 0.000000
vn 0.000000 1.000000 0.000000
vn 0.000000 1.000000 0.000000
vn 0.000000 1.000000 0.000000
vn 0.866025 0.000000 -0.500000
vn 0.866025 0.000000 -0.500000
vn 0.884115 0.000000 -0.467269
vn 0.884115 0.000000 -0.467269
vn 0.943883 0.000000 -0.330279
vn 0.916562 0.000000 -0.399892
vn 0.916562 0.000000 -0.399892
vn 0.965926 0.000000 -0.258820
vn 0.943883 0.000000 -0.330279
vn 0.965926 0.000000 -0.258820
vn 0.982567 0.000000 -0.185911
vn 0.982567 0.000000 -0.185911
vn 0.993712 0.000000 -0.111965
vn 0.993712 0.000000 -0.111965
vn 0.999301 0.000000 -0.037391
vn 0.999301 0.000000 -0.037391
vn 0.999301 0.000000 0.037391
vn 0.999301 0.000000 0.037391
vn 0.993712 0.000000 0.111965
vn 0.993712 0.000000 0.111965
vn 0.982567 0.000000 0.185911
vn 0.982567 0.000000 0.185911
vn 0.965926 0.000000 0.258820
vn 0.965926 0.000000 0.258820
vn 0.916562 -0.000000 0.399892
vn 0.943883 0.000000 0.330279
vn 0.943883 0.000000 0.330279
vn 0.916562 0.000000 0.399892
vn 0.884115 0.000000 0.467269
vn 0.884115 0.000000 0.467269
vn 0.866025 0.000000 0.500000
vn 0.866025 0.000000 0.500000
vn -0.063884 0.064544 0.995868
vn -0.068563 0.000000 0.997647
vn -0.060663 0.000000 0.998158
vn -0.068563 0.000000 0.997647
vn -0.060663 0.000000 0.998158
vn -0.068563 0.000000 0.997647
vn -0.060663 0.000000 0.998158
vn -0.068563 0.000000 0.997647
vn -0.060663 0.000000 0.998158
vn -0.060663 0.000000 0.998158
vn -0.068563 0.000000 0.997647
vn -0.060663 0.000000 0.998158
vn -0.068563 0.000000 0.997647
vn -0.063612 -0.112479 0.991616
vn -0.060663 0.000000 0.998158
vn -0.068563 0.000000 0.997647
vn -0.048419 0.021282 0.998600
vn -0.049971 0.000000 0.998751
vn -0.042290 0.000000 0.999105
vn -0.049971 0.000000 0.998751
vn -0.042290 0.000000 0.999105
vn -0.042290 0.000000 0.999105
vn -0.049971 0.000000 0.998751
vn -0.042290 0.000000 0.999105
vn -0.049971 0.000000 0.998751
vn -0.048303 -0.072547 0.996195
vn -0.042290 0.000000 0.999105
vn -0.049971 0.000000 0.998751
vn -0.033106 0.059530 0.997677
vn -0.037931 0.000000 0.999280
vn -0.030357 0.000000 0.999539
vn -0.030357 0.000000 0.999539
vn -0.037931 0.000000 0.999280
vn -0.030357 0.000000 0.999539
vn -0.037931 0.000000 0.999280
vn -0.030357 0.000000 0.999539
vn -0.037931 0.000000 0.999280
vn -0.037931 0.000000 0.999280
vn -0.030357 0.000000 0.999539
vn -0.030357 0.000000 0.999539
vn -0.037931 0.000000 0.999280
vn -0.032985 -0.103807 0.994050
vn -0.030357 0.000000 0.999539
vn -0.037931 0.000000 0.999280
vn -0.866025 0.000000 0.500000
vn -0.866025 0.000000 0.500000
vn -0.884115 0.000000 0.467269
vn -0.916562 0.000000 0.399892
vn -0.884115 0.000000 0.467269
vn -0.943883 0.000000 0.330279
vn -0.916562 0.000000 0.399892
vn -0.965926 0.000000 0.258820
vn -0.943883 0.000000 0.330279
vn -0.982567 0.000000 0.185911
vn -0.965926 0.000000 0.258820
vn -0.993712 0.000000 0.111965
vn -0.982567 0.000000 0.185911
vn -0.999301 0.000000 0.037391
vn -0.993712 0.000000 0.111965
vn -0.999301 -0.000000 -0.037391
vn -0.999301 0.000000 0.037391
vn -0.993712 0.000000 -0.111965
vn -0.999301 0.000000 -0.037391
vn -0.982567 0.000000 -0.185911
vn -0.993712 0.000000 -0.111965
vn -0.982567 0.000000 -0.185911
vn -0.943883 0.000000 -0.330279
vn -0.965926 0.000000 -0.258820
vn -0.965926 -0.000000 -0.258820
vn -0.916562 0.000000 -0.399892
vn -0.943883 0.000000 -0.330279
vn -0.884115 0.000000 -0.467269
vn -0.916562 0.000000 -0.399892
vn -0.884115 0.000000 -0.467269
vn -0.737277 0.000000 0.675591
vn -0.737277 0.000000 0.675591
vn -0.793353 0.000000 0.608761
vn -0.793353 0.000000 0.608761
vn -0.843391 0.000000 0.537300
vn -0.843391 0.000000 0.537300
vn -0.887011 0.000000 0.461749
vn -0.887011 0.000000 0.461749
vn -0.923880 0.000000 0.382683
vn -0.953717 0.000000 0.300706
vn -0.923880 0.000000 0.382683
vn -0.953717 0.000000 0.300706
vn -0.976296 0.000000 0.216439
vn -0.976296 0.000000 0.216439
vn -0.991445 0.000000 0.130526
vn -0.999048 0.000000 0.043620
vn -0.991445 0.000000 0.130526
vn -0.999048 0.000000 0.043620
vn -0.999048 0.000000 -0.043620
vn -0.999048 -0.000000 -0.043620
vn -0.991445 0.000000 -0.130526
vn -0.991445 0.000000 -0.130526
vn -0.976296 0.000000 -0.216439
vn -0.976296 0.000000 -0.216439
vn -0.953717 0.000000 -0.300706
vn -0.953717 0.000000 -0.300706
vn -0.923880 0.000000 -0.382683
vn -0.923880 0.000000 -0.382683
vn -0.887011 0.000000 -0.461749
vn -0.887011 0.000000 -0.461749
vn -0.843391 0.000000 -0.537300
vn -0.843391 0.000000 -0.537300
vn -0.793353 0.000000 -0.608761
vn -0.793353 0.000000 -0.608761
vn -0.737277 -0.000000 -0.675591
vn -0.737277 0.000000 -0.675591
vn -0.589070 0.000000 0.808082
vn -0.589070 0.000000 0.808082
vn -0.650756 0.000000 0.759287
vn -0.650756 0.000000 0.759287
vn -0.708417 0.000000 0.705794
vn -0.708417 0.000000 0.705794
vn 0.485983 0.000000 0.873968
vn 0.485983 0.000000 0.873968
vn 0.410413 0.000000 0.911900
vn 0.410413 -0.000000 0.911900
vn 0.331907 0.000000 0.943312
vn 0.331907 -0.000000 0.943312
vn 0.251030 0.000000 0.967979
vn 0.251030 -0.000000 0.967979
vn 0.168357 0.000000 0.985726
vn 0.084481 0.000000 0.996425
vn 0.168357 -0.000000 0.985726
vn 0.084481 0.000000 0.996425
vn -0.000000 0.000000 1.000000
vn 0.000000 0.000000 1.000000
vn -0.084481 0.000000 0.996425
vn -0.168357 0.000000 0.985726
vn -0.084481 0.000000 0.996425
vn -0.168357 0.000000 0.985726
vn -0.251030 0.000000 0.967979
vn -0.251030 0.000000 0.967979
vn -0.331907 0.000000 0.943312
vn -0.331907 0.000000 0.943312
vn -0.410413 0.000000 0.911900
vn -0.410413 0.000000 0.911900
vn -0.485983 0.000000 0.873968
vn -0.485983 0.000000 0.873968
vn 0.708417 0.000000 0.705794
vn 0.708417 0.000000 0.705794
vn 0.650756 0.000000 0.759287
vn 0.650756 -0.000000 0.759287
vn 0.589070 0.000000 0.808082
vn 0.589070 -0.000000 0.808082
vn 0.737277 0.000000 -0.675591
vn 0.737277 0.000000 -0.675591
vn 0.793353 0.000000 -0.608761
vn 0.793353 0.000000 -0.608761
vn 0.843391 0.000000 -0.537300
vn 0.887011 0.000000 -0.461749
vn 0.843391 0.000000 -0.537300
vn 0.887011 0.000000 -0.461749
vn 0.923880 0.000000 -0.382683
vn 0.953717 0.000000 -0.300706
vn 0.923880 0.000000 -0.382683
vn 0.953717 0.000000 -0.300706
vn 0.976296 0.000000 -0.216439
vn 0.976296 0.000000 -0.216439
vn 0.991445 0.000000 -0.130526
vn 0.991445 0.000000 -0.130526
vn 0.999048 0.000000 -0.043620
vn 0.999048 0.000000 -0.043620
vn 0.999048 0.000000 0.043620
vn 0.991445 0.000000 0.130526
vn 0.999048 0.000000 0.043620
vn 0.991445 0.000000 0.130526
vn 0.976296 0.000000 0.216439
vn 0.976296 -0.000000 0.216439
vn 0.953717 0.000000 0.300706
vn 0.923880 0.000000 0.382683
vn 0.953717 -0.000000 0.300706
vn 0.923880 0.000000 0.382683
vn 0.887011 -0.000000 0.461749
vn 0.887011 0.000000 0.461749
vn 0.843391 -0.000000 0.537300
vn 0.843391 0.000000 0.537300
vn 0.793353 -0.000000 0.608761
vn 0.793353 0.000000 0.608761
vn 0.737277 -0.000000 0.675591
vn 0.737277 0.000000 0.675591
vn 0.589070 0.000000 -0.808082
vn 0.589070 0.000000 -0.808082
vn 0.650756 0.000000 -0.759287
vn 0.708417 0.000000 -0.705794
vn 0.650756 0.000000 -0.759287
vn 0.708417 0.000000 -0.705794
vn -0.485983 0.000000 -0.873968
vn -0.485983 0.000000 -0.873968
vn -0.410413 0.000000 -0.911900
vn -0.410413 0.000000 -0.911900
vn -0.331907 0.000000 -0.943312
vn -0.251030 -0.000000 -0.967979
vn -0.331907 0.000000 -0.943312
vn -0.251030 0.000000 -0.967979
vn -0.168357 0.000000 -0.985726
vn -0.084481 -0.000000 -0.996425
vn -0.168357 0.000000 -0.985726
vn -0.084481 0.000000 -0.996425
vn -0.000000 0.000000 -1.000000
vn 0.000000 0.000000 -1.000000
vn 0.084481 0.000000 -0.996425
vn 0.084481 0.000000 -0.996425
vn 0.168357 0.000000 -0.985726
vn 0.168357 0.000000 -0.985726
vn 0.251030 0.000000 -0.967979
vn 0.251030 0.000000 -0.967979
vn 0.331907 0.000000 -0.943312
vn 0.331907 0.000000 -0.943312
vn 0.410413 0.000000 -0.911900
vn 0.485983 0.000000 -0.873968
vn 0.410413 0.000000 -0.911900
vn 0.485983 0.000000 -0.873968
vn -0.708417 0.000000 -0.705794
vn -0.708417 0.000000 -0.705794
vn -0.650756 -0.000000 -0.759287
vn -0.589070 -0.000000 -0.808082
vn -0.650756 0.000000 -0.759287
vn -0.589070 0.000000 -0.808082
g MeshExport
f 1//1 2//1 3//1
f 3//2 2//2 4//2
f 4//3 2//3 5//3
f 1//4 6//4 2//4
f 2//5 6//5 5//5
f 6//6 7//6 5//6
f 1//7 7//7 6//7
f 7//8 8//8 5//8
f 1//9 8//9 7//9
f 5//10 9//10 1//10
f 8//11 9//11 5//11
f 1//12 9//12 8//12
f 5//13 10//13 4//13
f 5//14 11//14 10//14
f 5//15 12//15 11//15
f 5//16 13//16 12//16
f 5//17 14//17 13//17
f 4//18 15//18 16//18
f 10//19 15//19 4//19
f 15//20 17//20 16//20
f 10//21 17//21 15//21
f 10//22 18//22 17//22
f 17//23 18//23 16//23
f 16//24 19//24 20//24
f 10//25 19//25 18//25
f 18//26 19//26 16//26
f 11//27 21//27 10//27
f 12//28 21//28 11//28
f 10//29 21//29 19//29
f 19//30 21//30 20//30
f 12//31 22//31 21//31
f 21//32 22//32 20//32
f 13//33 23//33 12//33
f 14//34 23//34 13//34
f 12//35 23//35 22//35
f 22//36 23//36 20//36
f 20//37 24//37 5//37
f 5//38 24//38 14//38
f 23//39 24//39 20//39
f 14//40 24//40 23//40
f 20//41 25//41 26//41
f 25//42 27//42 26//42
f 27//43 28//43 26//43
f 20//44 29//44 25//44
f 28//45 30//45 26//45
f 20//46 31//46 29//46
f 30//47 32//47 26//47
f 26//48 32//48 33//48
f 20//49 34//49 31//49
f 32//50 35//50 33//50
f 33//51 35//51 36//51
f 20//52 37//52 34//52
f 35//53 38//53 36//53
f 36//54 38//54 39//54
f 20//55 40//55 37//55
f 38//56 41//56 39//56
f 39//57 41//57 42//57
f 20//58 43//58 40//58
f 5//59 43//59 20//59
f 41//60 44//60 42//60
f 42//61 44//61 45//61
f 5//62 46//62 43//62
f 44//63 47//63 45//63
f 45//64 47//64 48//64
f 5//65 49//65 46//65
f 47//66 50//66 48//66
f 48//67 50//67 51//67
f 51//68 50//68 52//68
f 5//69 53//69 49//69
f 50//70 54//70 52//70
f 52//71 54//71 55//71
f 5//72 56//72 53//72
f 54//73 57//73 55//73
f 55//74 57//74 58//74
f 5//75 59//75 56//75
f 58//76 60//76 61//76
f 57//77 60//77 58//77
f 5//78 62//78 59//78
f 5//79 1//79 62//79
f 61//80 63//80 64//80
f 60//81 63//81 61//81
f 1//82 65//82 62//82
f 63//83 66//83 64//83
f 64//84 66//84 67//84
f 1//85 68//85 65//85
f 66//86 69//86 67//86
f 67//87 69//87 70//87
f 1//88 71//88 68//88
f 69//89 72//89 70//89
f 1//90 73//90 71//90
f 72//91 74//91 70//91
f 1//92 75//92 73//92
f 74//93 76//93 70//93
f 76//94 77//94 70//94
f 78//95 79//95 80//95
f 80//96 79//96 81//96
f 81//97 79//97 82//97
f 1//98 79//98 75//98
f 75//99 79//99 78//99
f 79//100 83//100 82//100
f 82//101 83//101 84//101
f 77//102 85//102 70//102
f 86//103 85//103 87//103
f 87//104 85//104 88//104
f 88//105 85//105 89//105
f 89//106 85//106 77//106
f 84//107 90//107 91//107
f 83//108 90//108 84//108
f 91//109 92//109 93//109
f 90//110 92//110 91//110
f 93//111 94//111 95//111
f 92//112 94//112 93//112
f 95//113 96//113 97//113
f 94//114 96//114 95//114
f 98//115 99//115 100//115
f 100//116 99//116 101//116
f 86//117 99//117 85//117
f 101//118 99//118 102//118
f 102//119 99//119 86//119
f 97//120 103//120 104//120
f 96//121 103//121 97//121
f 103//122 105//122 104//122
f 104//123 106//123 107//123
f 105//124 106//124 104//124
f 106//125 108//125 107//125
f 107//126 108//126 109//126
f 109//127 110//127 111//127
f 108//128 110//128 109//128
f 112//129 113//129 114//129
f 114//130 113//130 115//130
f 115//131 113//131 116//131
f 116//132 113//132 117//132
f 117//133 113//133 98//133
f 98//134 113//134 99//134
f 111//135 118//135 119//135
f 110//136 118//136 111//136
f 119//137 120//137 121//137
f 118//138 120//138 119//138
f 120//139 122//139 121//139
f 121//140 122//140 123//140
f 123//141 124//141 125//141
f 125//142 124//142 126//142
f 126//143 124//143 127//143
f 127//144 124//144 128//144
f 122//145 124//145 123//145
f 128//146 129//146 130//146
f 130//147 129//147 131//147
f 131//148 129//148 132//148
f 132//149 129//149 112//149
f 124//150 129//150 128//150
f 112//151 129//151 113//151
f 133//152 20//152 26//152
f 133//153 16//153 20//153
f 134//154 16//154 133//154
f 135//155 134//155 133//155
f 136//156 135//156 133//156
f 137//157 16//157 134//157
f 138//158 136//158 133//158
f 139//159 16//159 137//159
f 140//160 138//160 133//160
f 140//161 133//161 141//161
f 142//162 16//162 139//162
f 143//163 140//163 141//163
f 143//164 141//164 144//164
f 145//165 16//165 142//165
f 146//166 143//166 144//166
f 146//167 144//167 147//167
f 148//168 16//168 145//168
f 149//169 146//169 147//169
f 149//170 147//170 150//170
f 151//171 16//171 148//171
f 151//172 4//172 16//172
f 152//173 149//173 150//173
f 152//174 150//174 153//174
f 154//175 4//175 151//175
f 155//176 152//176 153//176
f 155//177 153//177 156//177
f 157//178 4//178 154//178
f 158//179 155//179 156//179
f 158//180 156//180 159//180
f 158//181 159//181 160//181
f 161//182 4//182 157//182
f 162//183 158//183 160//183
f 162//184 160//184 163//184
f 164//185 4//185 161//185
f 165//186 162//186 163//186
f 165//187 163//187 166//187
f 167//188 4//188 164//188
f 168//189 166//189 169//189
f 168//190 165//190 166//190
f 170//191 4//191 167//191
f 3//192 4//192 170//192
f 171//193 169//193 172//193
f 171//194 168//194 169//194
f 173//195 3//195 170//195
f 174//196 172//196 175//196
f 174//197 171//197 172//197
f 176//198 3//198 173//198
f 177//199 174//199 175//199
f 177//200 175//200 178//200
f 179//201 3//201 176//201
f 180//202 177//202 178//202
f 181//203 3//203 179//203
f 182//204 180//204 178//204
f 183//205 3//205 181//205
f 184//206 182//206 178//206
f 185//207 184//207 178//207
f 186//208 187//208 188//208
f 186//209 188//209 189//209
f 186//210 3//210 183//210
f 186//211 189//211 190//211
f 186//212 183//212 187//212
f 191//213 186//213 190//213
f 191//214 190//214 192//214
f 193//215 185//215 178//215
f 193//216 194//216 195//216
f 193//217 195//217 196//217
f 193//218 196//218 197//218
f 193//219 197//219 185//219
f 198//220 192//220 199//220
f 198//221 191//221 192//221
f 200//222 199//222 201//222
f 200//223 198//223 199//223
f 202//224 201//224 203//224
f 202//225 200//225 201//225
f 204//226 203//226 205//226
f 204//227 202//227 203//227
f 206//228 207//228 208//228
f 206//229 208//229 209//229
f 206//230 194//230 193//230
f 206//231 209//231 210//231
f 206//232 210//232 194//232
f 211//233 205//233 212//233
f 211//234 204//234 205//234
f 213//235 211//235 212//235
f 214//236 212//236 215//236
f 214//237 213//237 212//237
f 216//238 214//238 215//238
f 216//239 215//239 217//239
f 218//240 217//240 219//240
f 218//241 216//241 217//241
f 220//242 221//242 222//242
f 220//243 222//243 223//243
f 220//244 223//244 224//244
f 220//245 224//245 225//245
f 220//246 225//246 207//246
f 220//247 207//247 206//247
f 226//248 219//248 227//248
f 226//249 218//249 219//249
f 228//250 226//250 227//250
f 228//251 227//251 229//251
f 230//252 229//252 231//252
f 230//253 228//253 229//253
f 232//254 231//254 233//254
f 232//255 233//255 234//255
f 232//256 234//256 235//256
f 232//257 235//257 236//257
f 232//258 230//258 231//258
f 237//259 221//259 220//259
f 237//260 236//260 238//260
f 237//261 238//261 239//261
f 237//262 239//262 240//262
f 237//263 240//263 221//263
f 237//264 232//264 236//264
f 1//265 186//265 79//265
f 3//266 186//266 1//266
f 186//267 191//267 79//267
f 79//268 191//268 83//268
f 90//269 198//269 92//269
f 83//270 198//270 90//270
f 191//271 198//271 83//271
f 92//272 200//272 94//272
f 198//273 200//273 92//273
f 200//274 202//274 94//274
f 94//275 204//275 96//275
f 202//276 204//276 94//276
f 96//277 211//277 103//277
f 204//278 211//278 96//278
f 103//279 213//279 105//279
f 211//280 213//280 103//280
f 105//281 214//281 106//281
f 213//282 214//282 105//282
f 106//283 216//283 108//283
f 214//284 216//284 106//284
f 108//285 218//285 110//285
f 216//286 218//286 108//286
f 110//287 226//287 118//287
f 218//288 226//288 110//288
f 120//289 228//289 122//289
f 118//290 228//290 120//290
f 226//291 228//291 118//291
f 228//292 230//292 122//292
f 122//293 232//293 124//293
f 230//294 232//294 122//294
f 232//295 129//295 124//295
f 232//296 237//296 129//296
f 193//297 241//297 206//297
f 193//298 242//298 241//298
f 241//299 242//299 206//299
f 193//300 243//300 242//300
f 242//301 243//301 206//301
f 85//302 244//302 193//302
f 206//303 244//303 99//303
f 193//304 244//304 243//304
f 243//305 244//305 206//305
f 244//306 245//306 99//306
f 85//307 245//307 244//307
f 245//308 246//308 99//308
f 85//309 246//309 245//309
f 99//310 247//310 85//310
f 246//311 247//311 99//311
f 85//312 247//312 246//312
f 206//313 248//313 220//313
f 99//314 249//314 206//314
f 220//315 249//315 113//315
f 206//316 249//316 248//316
f 248//317 249//317 220//317
f 249//318 250//318 113//318
f 99//319 250//319 249//319
f 250//320 251//320 113//320
f 99//321 251//321 250//321
f 113//322 252//322 99//322
f 251//323 252//323 113//323
f 99//324 252//324 251//324
f 220//325 253//325 237//325
f 220//326 254//326 253//326
f 253//327 254//327 237//327
f 254//328 255//328 237//328
f 220//329 255//329 254//329
f 237//330 256//330 129//330
f 113//331 256//331 220//331
f 255//332 256//332 237//332
f 220//333 256//333 255//333
f 113//334 257//334 256//334
f 256//335 257//335 129//335
f 257//336 258//336 129//336
f 113//337 258//337 257//337
f 129//338 259//338 113//338
f 258//339 259//339 129//339
f 113//340 259//340 258//340
f 85//341 178//341 70//341
f 193//342 178//342 85//342
f 70//343 178//343 67//343
f 67//344 175//344 64//344
f 178//345 175//345 67//345
f 64//346 172//346 61//346
f 175//347 172//347 64//347
f 61//348 169//348 58//348
f 172//349 169//349 61//349
f 58//350 166//350 55//350
f 169//351 166//351 58//351
f 55//352 163//352 52//352
f 166//353 163//353 55//353
f 52//354 160//354 51//354
f 163//355 160//355 52//355
f 51//356 159//356 48//356
f 160//357 159//357 51//357
f 48//358 156//358 45//358
f 159//359 156//359 48//359
f 45//360 153//360 42//360
f 156//361 153//361 45//361
f 153//362 150//362 42//362
f 39//363 147//363 36//363
f 42//364 147//364 39//364
f 150//365 147//365 42//365
f 36//366 144//366 33//366
f 147//367 144//367 36//367
f 33//368 141//368 26//368
f 144//369 141//369 33//369
f 141//370 133//370 26//370
f 187//371 78//371 188//371
f 78//372 80//372 188//372
f 188//373 81//373 189//373
f 80//374 81//374 188//374
f 189//375 82//375 190//375
f 81//376 82//376 189//376
f 190//377 84//377 192//377
f 82//378 84//378 190//378
f 192//379 91//379 199//379
f 199//380 91//380 201//380
f 84//381 91//381 192//381
f 91//382 93//382 201//382
f 201//383 95//383 203//383
f 93//384 95//384 201//384
f 203//385 97//385 205//385
f 205//386 97//386 212//386
f 95//387 97//387 203//387
f 97//388 104//388 212//388
f 212//389 107//389 215//389
f 104//390 107//390 212//390
f 215//391 109//391 217//391
f 107//392 109//392 215//392
f 217//393 111//393 219//393
f 109//394 111//394 217//394
f 219//395 119//395 227//395
f 111//396 119//396 219//396
f 227//397 121//397 229//397
f 119//398 121//398 227//398
f 121//399 123//399 229//399
f 229//400 123//400 231//400
f 123//401 125//401 231//401
f 231//402 125//402 233//402
f 125//403 126//403 233//403
f 233//404 126//404 234//404
f 234//405 126//405 235//405
f 126//406 127//406 235//406
f 179//407 71//407 181//407
f 71//408 73//408 181//408
f 181//409 75//409 183//409
f 73//410 75//410 181//410
f 183//411 78//411 187//411
f 75//412 78//412 183//412
f 139//413 31//413 142//413
f 31//414 34//414 142//414
f 142//415 37//415 145//415
f 34//416 37//416 142//416
f 145//417 40//417 148//417
f 37//418 40//418 145//418
f 148//419 43//419 151//419
f 40//420 43//420 148//420
f 151//421 46//421 154//421
f 154//422 46//422 157//422
f 43//423 46//423 151//423
f 46//424 49//424 157//424
f 157//425 53//425 161//425
f 49//426 53//426 157//426
f 161//427 56//427 164//427
f 164//428 56//428 167//428
f 53//429 56//429 161//429
f 56//430 59//430 167//430
f 167//431 62//431 170//431
f 59//432 62//432 167//432
f 170//433 65//433 173//433
f 62//434 65//434 170//434
f 173//435 68//435 176//435
f 65//436 68//436 173//436
f 176//437 71//437 179//437
f 68//438 71//438 176//438
f 135//439 27//439 134//439
f 27//440 25//440 134//440
f 134//441 29//441 137//441
f 25//442 29//442 134//442
f 137//443 31//443 139//443
f 29//444 31//444 137//444
f 76//445 74//445 184//445
f 184//446 74//446 182//446
f 182//447 72//447 180//447
f 74//448 72//448 182//448
f 180//449 69//449 177//449
f 177//450 69//450 174//450
f 72//451 69//451 180//451
f 69//452 66//452 174//452
f 174//453 63//453 171//453
f 171//454 63//454 168//454
f 66//455 63//455 174//455
f 63//456 60//456 168//456
f 168//457 57//457 165//457
f 60//458 57//458 168//458
f 165//459 54//459 162//459
f 57//460 54//460 165//460
f 162//461 50//461 158//461
f 54//462 50//462 162//462
f 158//463 47//463 155//463
f 155//464 47//464 152//464
f 50//465 47//465 158//465
f 47//466 44//466 152//466
f 152//467 41//467 149//467
f 44//468 41//468 152//468
f 149//469 38//469 146//469
f 146//470 38//470 143//470
f 41//471 38//471 149//471
f 38//472 35//472 143//472
f 35//473 32//473 143//473
f 143//474 32//474 140//474
f 32//475 30//475 140//475
f 140//476 30//476 138//476
f 30//477 28//477 138//477
f 138//478 28//478 136//478
f 28//479 27//479 136//479
f 136//480 27//480 135//480
f 88//481 89//481 196//481
f 196//482 89//482 197//482
f 197//483 77//483 185//483
f 185//484 77//484 184//484
f 89//485 77//485 197//485
f 77//486 76//486 184//486
f 131//487 132//487 239//487
f 239//488 132//488 240//488
f 240//489 112//489 221//489
f 132//490 112//490 240//490
f 221//491 114//491 222//491
f 222//492 114//492 223//492
f 112//493 114//493 221//493
f 114//494 115//494 223//494
f 223//495 116//495 224//495
f 224//496 116//496 225//496
f 115//497 116//497 223//497
f 116//498 117//498 225//498
f 225//499 98//499 207//499
f 117//500 98//500 225//500
f 207//501 100//501 208//501
f 98//502 100//502 207//502
f 208//503 101//503 209//503
f 100//504 101//504 208//504
f 209//505 102//505 210//505
f 101//506 102//506 209//506
f 210//507 86//507 194//507
f 102//508 86//508 210//508
f 194//509 87//509 195//509
f 195//510 87//510 196//510
f 86//511 87//511 194//511
f 87//512 88//512 196//512
f 127//513 128//513 235//513
f 235//514 128//514 236//514
f 236//515 128//515 238//515
f 238//516 130//516 239//516
f 128//517 130//517 238//517
f 130//518 131//518 239//518
g MeshExport001
g MeshExport002
g MeshExport003
g MeshExport004
g MeshExport005
g MeshExport006
g MeshExport007
g MeshExport008
f 260//519 261//519 262//519
f 262//520 261//520 263//520
f 263//521 261//521 264//521
f 260//522 265//522 261//522
f 261//523 265//523 264//523
f 265//524 266//524 264//524
f 260//525 266//525 265//525
f 266//526 267//526 264//526
f 260//527 267//527 266//527
f 264//528 268//528 260//528
f 267//529 268//529 264//529
f 260//530 268//530 267//530
f 264//531 269//531 263//531
f 264//532 270//532 269//532
f 264//533 271//533 270//533
f 264//534 272//534 271//534
f 264//535 273//535 272//535
f 263//536 274//536 275//536
f 269//537 274//537 263//537
f 274//538 276//538 275//538
f 269//539 276//539 274//539
f 269//540 277//540 276//540
f 276//541 277//541 275//541
f 275//542 278//542 279//542
f 269//543 278//543 277//543
f 277//544 278//544 275//544
f 270//545 280//545 269//545
f 271//546 280//546 270//546
f 269//547 280//547 278//547
f 278//548 280//548 279//548
f 271//549 281//549 280//549
f 280//550 281//550 279//550
f 272//551 282//551 271//551
f 273//552 282//552 272//552
f 271//553 282//553 281//553
f 281//554 282//554 279//554
f 279//555 283//555 264//555
f 264//556 283//556 273//556
f 282//557 283//557 279//557
f 273//558 283//558 282//558
f 279//559 284//559 285//559
f 284//560 286//560 285//560
f 286//561 287//561 285//561
f 279//562 288//562 284//562
f 287//563 289//563 285//563
f 279//564 290//564 288//564
f 289//565 291//565 285//565
f 285//566 291//566 292//566
f 279//567 293//567 290//567
f 291//568 294//568 292//568
f 292//569 294//569 295//569
f 279//570 296//570 293//570
f 294//571 297//571 295//571
f 295//572 297//572 298//572
f 279//573 299//573 296//573
f 297//574 300//574 298//574
f 298//575 300//575 301//575
f 279//576 302//576 299//576
f 264//577 302//577 279//577
f 300//578 303//578 301//578
f 301//579 303//579 304//579
f 264//580 305//580 302//580
f 303//581 306//581 304//581
f 304//582 306//582 307//582
f 264//583 308//583 305//583
f 306//584 309//584 307//584
f 307//585 309//585 310//585
f 310//586 309//586 311//586
f 264//587 312//587 308//587
f 309//588 313//588 311//588
f 311//589 313//589 314//589
f 264//590 315//590 312//590
f 313//591 316//591 314//591
f 314//592 316//592 317//592
f 264//593 318//593 315//593
f 317//594 319//594 320//594
f 316//595 319//595 317//595
f 264//596 321//596 318//596
f 264//597 260//597 321//597
f 320//598 322//598 323//598
f 319//599 322//599 320//599
f 260//600 324//600 321//600
f 322//601 325//601 323//601
f 323//602 325//602 326//602
f 260//603 327//603 324//603
f 325//604 328//604 326//604
f 326//605 328//605 329//605
f 260//606 330//606 327//606
f 328//607 331//607 329//607
f 260//608 332//608 330//608
f 331//609 333//609 329//609
f 260//610 334//610 332//610
f 333//611 335//611 329//611
f 335//612 336//612 329//612
f 337//613 338//613 339//613
f 339//614 338//614 340//614
f 340//615 338//615 341//615
f 260//616 338//616 334//616
f 334//617 338//617 337//617
f 338//618 342//618 341//618
f 341//619 342//619 343//619
f 336//620 344//620 329//620
f 345//621 344//621 346//621
f 346//622 344//622 347//622
f 347//623 344//623 348//623
f 348//624 344//624 336//624
f 343//625 349//625 350//625
f 342//626 349//626 343//626
f 350//627 351//627 352//627
f 349//628 351//628 350//628
f 352//629 353//629 354//629
f 351//630 353//630 352//630
f 354//631 355//631 356//631
f 353//632 355//632 354//632
f 357//633 358//633 359//633
f 359//634 358//634 360//634
f 345//635 358//635 344//635
f 360//636 358//636 361//636
f 361//637 358//637 345//637
f 356//638 362//638 363//638
f 355//639 362//639 356//639
f 362//640 364//640 363//640
f 363//641 365//641 366//641
f 364//642 365//642 363//642
f 365//643 367//643 366//643
f 366//644 367//644 368//644
f 368//645 369//645 370//645
f 367//646 369//646 368//646
f 371//647 372//647 373//647
f 373//648 372//648 374//648
f 374//649 372//649 375//649
f 375//650 372//650 376//650
f 376//651 372//651 357//651
f 357//652 372//652 358//652
f 370//653 377//653 378//653
f 369//654 377//654 370//654
f 378//655 379//655 380//655
f 377//656 379//656 378//656
f 379//657 381//657 380//657
f 380//658 381//658 382//658
f 382//659 383//659 384//659
f 384//660 383//660 385//660
f 385//661 383//661 386//661
f 386//662 383//662 387//662
f 381//663 383//663 382//663
f 387//664 388//664 389//664
f 389//665 388//665 390//665
f 390//666 388//666 391//666
f 391//667 388//667 371//667
f 383//668 388//668 387//668
f 371//669 388//669 372//669
f 392//670 279//670 285//670
f 392//671 275//671 279//671
f 393//672 275//672 392//672
f 394//673 393//673 392//673
f 395//674 394//674 392//674
f 396//675 275//675 393//675
f 397//676 395//676 392//676
f 398//677 275//677 396//677
f 399//678 397//678 392//678
f 399//679 392//679 400//679
f 401//680 275//680 398//680
f 402//681 399//681 400//681
f 402//682 400//682 403//682
f 404//683 275//683 401//683
f 405//684 402//684 403//684
f 405//685 403//685 406//685
f 407//686 275//686 404//686
f 408//687 405//687 406//687
f 408//688 406//688 409//688
f 410//689 275//689 407//689
f 410//690 263//690 275//690
f 411//691 408//691 409//691
f 411//692 409//692 412//692
f 413//693 263//693 410//693
f 414//694 411//694 412//694
f 414//695 412//695 415//695
f 416//696 263//696 413//696
f 417//697 414//697 415//697
f 417//698 415//698 418//698
f 417//699 418//699 419//699
f 420//700 263//700 416//700
f 421//701 417//701 419//701
f 421//702 419//702 422//702
f 423//703 263//703 420//703
f 424//704 421//704 422//704
f 424//705 422//705 425//705
f 426//706 263//706 423//706
f 427//707 425//707 428//707
f 427//708 424//708 425//708
f 429//709 263//709 426//709
f 262//710 263//710 429//710
f 430//711 428//711 431//711
f 430//712 427//712 428//712
f 432//713 262//713 429//713
f 433//714 431//714 434//714
f 433//715 430//715 431//715
f 435//716 262//716 432//716
f 436//717 433//717 434//717
f 436//718 434//718 437//718
f 438//719 262//719 435//719
f 439//720 436//720 437//720
f 440//721 262//721 438//721
f 441//722 439//722 437//722
f 442//723 262//723 440//723
f 443//724 441//724 437//724
f 444//725 443//725 437//725
f 445//726 446//726 447//726
f 445//727 447//727 448//727
f 445//728 262//728 442//728
f 445//729 448//729 449//729
f 445//730 442//730 446//730
f 450//731 445//731 449//731
f 450//732 449//732 451//732
f 452//733 444//733 437//733
f 452//734 453//734 454//734
f 452//735 454//735 455//735
f 452//736 455//736 456//736
f 452//737 456//737 444//737
f 457//738 451//738 458//738
f 457//739 450//739 451//739
f 459//740 458//740 460//740
f 459//741 457//741 458//741
f 461//742 460//742 462//742
f 461//743 459//743 460//743
f 463//744 462//744 464//744
f 463//745 461//745 462//745
f 465//746 466//746 467//746
f 465//747 467//747 468//747
f 465//748 453//748 452//748
f 465//749 468//749 469//749
f 465//750 469//750 453//750
f 470//751 464//751 471//751
f 470//752 463//752 464//752
f 472//753 470//753 471//753
f 473//754 471//754 474//754
f 473//755 472//755 471//755
f 475//756 473//756 474//756
f 475//757 474//757 476//757
f 477//758 476//758 478//758
f 477//759 475//759 476//759
f 479//760 480//760 481//760
f 479//761 481//761 482//761
f 479//762 482//762 483//762
f 479//763 483//763 484//763
f 479//764 484//764 466//764
f 479//765 466//765 465//765
f 485//766 478//766 486//766
f 485//767 477//767 478//767
f 487//768 485//768 486//768
f 487//769 486//769 488//769
f 489//770 488//770 490//770
f 489//771 487//771 488//771
f 491//772 490//772 492//772
f 491//773 492//773 493//773
f 491//774 493//774 494//774
f 491//775 494//775 495//775
f 491//776 489//776 490//776
f 496//777 480//777 479//777
f 496//778 495//778 497//778
f 496//779 497//779 498//779
f 496//780 498//780 499//780
f 496//781 499//781 480//781
f 496//782 491//782 495//782
f 260//783 445//783 338//783
f 262//784 445//784 260//784
f 445//785 450//785 338//785
f 338//786 450//786 342//786
f 349//787 457//787 351//787
f 342//788 457//788 349//788
f 450//789 457//789 342//789
f 351//790 459//790 353//790
f 457//791 459//791 351//791
f 459//792 461//792 353//792
f 353//793 463//793 355//793
f 461//794 463//794 353//794
f 355//795 470//795 362//795
f 463//796 470//796 355//796
f 362//797 472//797 364//797
f 470//798 472//798 362//798
f 364//799 473//799 365//799
f 472//800 473//800 364//800
f 365//801 475//801 367//801
f 473//802 475//802 365//802
f 367//803 477//803 369//803
f 475//804 477//804 367//804
f 369//805 485//805 377//805
f 477//806 485//806 369//806
f 379//807 487//807 381//807
f 377//808 487//808 379//808
f 485//809 487//809 377//809
f 487//810 489//810 381//810
f 381//811 491//811 383//811
f 489//812 491//812 381//812
f 491//813 388//813 383//813
f 491//814 496//814 388//814
f 452//815 500//815 465//815
f 452//816 501//816 500//816
f 500//817 501//817 465//817
f 452//818 502//818 501//818
f 501//819 502//819 465//819
f 344//820 503//820 452//820
f 465//821 503//821 358//821
f 452//822 503//822 502//822
f 502//823 503//823 465//823
f 503//824 504//824 358//824
f 344//825 504//825 503//825
f 504//826 505//826 358//826
f 344//827 505//827 504//827
f 358//828 506//828 344//828
f 505//829 506//829 358//829
f 344//830 506//830 505//830
f 465//831 507//831 479//831
f 358//832 508//832 465//832
f 479//833 508//833 372//833
f 465//834 508//834 507//834
f 507//835 508//835 479//835
f 508//836 509//836 372//836
f 358//837 509//837 508//837
f 509//838 510//838 372//838
f 358//839 510//839 509//839
f 372//840 511//840 358//840
f 510//841 511//841 372//841
f 358//842 511//842 510//842
f 479//843 512//843 496//843
f 479//844 513//844 512//844
f 512//845 513//845 496//845
f 513//846 514//846 496//846
f 479//847 514//847 513//847
f 496//848 515//848 388//848
f 372//849 515//849 479//849
f 514//850 515//850 496//850
f 479//851 515//851 514//851
f 372//852 516//852 515//852
f 515//853 516//853 388//853
f 516//854 517//854 388//854
f 372//855 517//855 516//855
f 388//856 518//856 372//856
f 517//857 518//857 388//857
f 372//858 518//858 517//858
f 344//859 437//859 329//859
f 452//860 437//860 344//860
f 329//861 437//861 326//861
f 326//862 434//862 323//862
f 437//863 434//863 326//863
f 323//864 431//864 320//864
f 434//865 431//865 323//865
f 320//866 428//866 317//866
f 431//867 428//867 320//867
f 317//868 425//868 314//868
f 428//869 425//869 317//869
f 314//870 422//870 311//870
f 425//871 422//871 314//871
f 311//872 419//872 310//872
f 422//873 419//873 311//873
f 310//874 418//874 307//874
f 419//875 418//875 310//875
f 307//876 415//876 304//876
f 418//877 415//877 307//877
f 304//878 412//878 301//878
f 415//879 412//879 304//879
f 412//880 409//880 301//880
f 298//881 406//881 295//881
f 301//882 406//882 298//882
f 409//883 406//883 301//883
f 295//884 403//884 292//884
f 406//885 403//885 295//885
f 292//886 400//886 285//886
f 403//887 400//887 292//887
f 400//888 392//888 285//888
f 446//889 337//889 447//889
f 337//890 339//890 447//890
f 447//891 340//891 448//891
f 339//892 340//892 447//892
f 448//893 341//893 449//893
f 340//894 341//894 448//894
f 449//895 343//895 451//895
f 341//896 343//896 449//896
f 451//897 350//897 458//897
f 458//898 350//898 460//898
f 343//899 350//899 451//899
f 350//900 352//900 460//900
f 460//901 354//901 462//901
f 352//902 354//902 460//902
f 462//903 356//903 464//903
f 464//904 356//904 471//904
f 354//905 356//905 462//905
f 356//906 363//906 471//906
f 471//907 366//907 474//907
f 363//908 366//908 471//908
f 474//909 368//909 476//909
f 366//910 368//910 474//910
f 476//911 370//911 478//911
f 368//912 370//912 476//912
f 478//913 378//913 486//913
f 370//914 378//914 478//914
f 486//915 380//915 488//915
f 378//916 380//916 486//916
f 380//917 382//917 488//917
f 488//918 382//918 490//918
f 382//919 384//919 490//919
f 490//920 384//920 492//920
f 384//921 385//921 492//921
f 492//922 385//922 493//922
f 493//923 385//923 494//923
f 385//924 386//924 494//924
f 438//925 330//925 440//925
f 330//926 332//926 440//926
f 440//927 334//927 442//927
f 332//928 334//928 440//928
f 442//929 337//929 446//929
f 334//930 337//930 442//930
f 398//931 290//931 401//931
f 290//932 293//932 401//932
f 401//933 296//933 404//933
f 293//934 296//934 401//934
f 404//935 299//935 407//935
f 296//936 299//936 404//936
f 407//937 302//937 410//937
f 299//938 302//938 407//938
f 410//939 305//939 413//939
f 413//940 305//940 416//940
f 302//941 305//941 410//941
f 305//942 308//942 416//942
f 416//943 312//943 420//943
f 308//944 312//944 416//944
f 420//945 315//945 423//945
f 423//946 315//946 426//946
f 312//947 315//947 420//947
f 315//948 318//948 426//948
f 426//949 321//949 429//949
f 318//950 321//950 426//950
f 429//951 324//951 432//951
f 321//952 324//952 429//952
f 432//953 327//953 435//953
f 324//954 327//954 432//954
f 435//955 330//955 438//955
f 327//956 330//956 435//956
f 394//957 286//957 393//957
f 286//958 284//958 393//958
f 393//959 288//959 396//959
f 284//960 288//960 393//960
f 396//961 290//961 398//961
f 288//962 290//962 396//962
f 335//963 333//963 443//963
f 443//964 333//964 441//964
f 441//965 331//965 439//965
f 333//966 331//966 441//966
f 439//967 328//967 436//967
f 436//968 328//968 433//968
f 331//969 328//969 439//969
f 328//970 325//970 433//970
f 433//971 322//971 430//971
f 430//972 322//972 427//972
f 325//973 322//973 433//973
f 322//974 319//974 427//974
f 427//975 316//975 424//975
f 319//976 316//976 427//976
f 424//977 313//977 421//977
f 316//978 313//978 424//978
f 421//979 309//979 417//979
f 313//980 309//980 421//980
f 417//981 306//981 414//981
f 414//982 306//982 411//982
f 309//983 306//983 417//983
f 306//984 303//984 411//984
f 411//985 300//985 408//985
f 303//986 300//986 411//986
f 408//987 297//987 405//987
f 405//988 297//988 402//988
f 300//989 297//989 408//989
f 297//990 294//990 402//990
f 294//991 291//991 402//991
f 402//992 291//992 399//992
f 291//993 289//993 399//993
f 399//994 289//994 397//994
f 289//995 287//995 397//995
f 397//996 287//996 395//996
f 287//997 286//997 395//997
f 395//998 286//998 394//998
f 347//999 348//999 455//999
f 455//1000 348//1000 456//1000
f 456//1001 336//1001 444//1001
f 444//1002 336//1002 443//1002
f 348//1003 336//1003 456//1003
f 336//1004 335//1004 443//1004
f 390//1005 391//1005 498//1005
f 498//1006 391//1006 499//1006
f 499//1007 371//1007 480//1007
f 391//1008 371//1008 499//1008
f 480//1009 373//1009 481//1009
f 481//1010 373//1010 482//1010
f 371//1011 373//1011 480//1011
f 373//1012 374//1012 482//1012
f 482//1013 375//1013 483//1013
f 483//1014 375//1014 484//1014
f 374//1015 375//1015 482//1015
f 375//1016 376//1016 484//1016
f 484//1017 357//1017 466//1017
f 376//1018 357//1018 484//1018
f 466//1019 359//1019 467//1019
f 357//1020 359//1020 466//1020
f 467//1021 360//1021 468//1021
f 359//1022 360//1022 467//1022
f 468//1023 361//1023 469//1023
f 360//1024 361//1024 468//1024
f 469//1025 345//1025 453//1025
f 361//1026 345//1026 469//1026
f 453//1027 346//1027 454//1027
f 454//1028 346//1028 455//1028
f 345//1029 346//1029 453//1029
f 346//1030 347//1030 455//1030
f 386//1031 387//1031 494//1031
f 494//1032 387//1032 495//1032
f 495//1033 387//1033 497//1033
f 497//1034 389//1034 498//1034
f 387//1035 389//1035 497//1035
f 389//1036 390//1036 498//1036
