# Created by FreeCAD <https://www.freecad.org>
v -452.627991 0.000000 -58.869072
v -452.455841 457.200012 -57.088673
v -452.627991 914.400024 -58.869072
v -451.728668 914.400024 -53.403645
v -452.114441 685.799988 -54.983452
v -451.728668 0.000000 -53.403645
v -452.114441 228.600006 -54.983452
v -452.394073 114.300003 -56.608971
v -452.292664 342.899994 -55.935478
v -452.292664 571.500000 -55.935478
v -452.394073 800.099976 -56.608971
v -452.078186 57.150002 -54.814571
v -452.078186 857.250000 -54.814571
v -452.378204 28.575001 -56.495075
v -452.378204 885.825012 -56.495075
v -452.069061 14.287500 -54.773056
v -452.224487 0.000000 -55.543079
v -452.510712 14.287500 -57.572929
v -452.255005 914.400024 -55.713692
v -452.069061 900.112488 -54.773056
v -452.510712 900.112488 -57.572929
v -452.189362 914.400024 -61.259544
v -447.238556 914.400024 -57.893772
v -451.728668 914.400024 -62.383900
v -452.467468 914.400024 -60.075138
v -452.455841 -457.200012 -57.088673
v -452.627991 -914.400024 -58.869072
v -452.114441 -685.799988 -54.983452
v -451.728668 -914.400024 -53.403645
v -452.114441 -228.600006 -54.983452
v -452.394073 -114.300003 -56.608971
v -452.292664 -342.899994 -55.935478
v -452.292664 -571.500000 -55.935478
v -452.394073 -800.099976 -56.608971
v -452.078186 -57.150002 -54.814571
v -452.078186 -857.250000 -54.814571
v -452.378204 -28.575001 -56.495075
v -452.378204 -885.825012 -56.495075
v -452.069061 -14.287500 -54.773056
v -452.510712 -14.287500 -57.572929
v -452.069061 -900.112488 -54.773056
v -452.255005 -914.400024 -55.713692
v -452.510712 -900.112488 -57.572929
v -447.238556 -914.400024 -57.893772
v -452.189362 -914.400024 -61.259544
v -451.728668 -914.400024 -62.383900
v -452.467468 -914.400024 -60.075138
v -452.315460 0.000000 -60.802223
v -452.044220 0.000000 -61.685028
v -451.728668 0.000000 -62.383900
v -447.238556 0.000000 -57.893772
v -452.627991 0.000000 -58.869072
v -452.455841 457.200012 -57.088673
v -452.627991 914.400024 -58.869072
v -451.728668 914.400024 -53.403645
v -452.114441 685.799988 -54.983452
v -451.728668 0.000000 -53.403645
v -452.114441 228.600006 -54.983452
v -452.394073 114.300003 -56.608971
v -452.292664 342.899994 -55.935478
v -452.292664 571.500000 -55.935478
v -452.394073 800.099976 -56.608971
v -452.078186 57.150002 -54.814571
v -452.078186 857.250000 -54.814571
v -452.378204 28.575001 -56.495075
v -452.378204 885.825012 -56.495075
v -452.069061 14.287500 -54.773056
v -452.224487 0.000000 -55.543079
v -452.510712 14.287500 -57.572929
v -452.255005 914.400024 -55.713692
v -452.069061 900.112488 -54.773056
v -452.510712 900.112488 -57.572929
v -452.189362 914.400024 -61.259544
v -447.238556 914.400024 -57.893772
v -451.728668 914.400024 -62.383900
v -452.467468 914.400024 -60.075138
v -452.455841 -457.200012 -57.088673
v -452.627991 -914.400024 -58.869072
v -452.114441 -685.799988 -54.983452
v -451.728668 -914.400024 -53.403645
v -452.114441 -228.600006 -54.983452
v -452.394073 -114.300003 -56.608971
v -452.292664 -342.899994 -55.935478
v -452.292664 -571.500000 -55.935478
v -452.394073 -800.099976 -56.608971
v -452.078186 -57.150002 -54.814571
v -452.078186 -857.250000 -54.814571
v -452.378204 -28.575001 -56.495075
v -452.378204 -885.825012 -56.495075
v -452.069061 -14.287500 -54.773056
v -452.510712 -14.287500 -57.572929
v -452.069061 -900.112488 -54.773056
v -452.255005 -914.400024 -55.713692
v -452.510712 -900.112488 -57.572929
v -447.238556 -914.400024 -57.893772
v -452.189362 -914.400024 -61.259544
v -451.728668 -914.400024 -62.383900
v -452.467468 -914.400024 -60.075138
v -452.315460 0.000000 -60.802223
v -452.044220 0.000000 -61.685028
v -451.728668 0.000000 -62.383900
v -447.238556 0.000000 -57.893772
vn -0.995358 0.000000 0.096243
vn -0.971456 0.000000 0.237220
vn -0.971456 0.000000 0.237220
vn -0.994515 -0.000033 0.104591
vn -0.984587 -0.000078 0.174894
vn -0.989853 0.000020 0.142094
vn -0.982925 0.000000 0.184007
vn -0.982925 0.000000 0.184007
vn -0.990137 0.000000 0.140105
vn -0.994515 0.000033 0.104591
vn -0.989853 -0.000020 0.142094
vn -0.984587 0.000078 0.174894
vn -0.970349 0.000033 0.241709
vn -0.985066 -0.000039 0.172179
vn -0.970349 -0.000033 0.241709
vn -0.985066 0.000039 0.172179
vn -0.984582 0.000050 0.174924
vn -0.984582 -0.000050 0.174924
vn -0.974180 -0.001570 0.225768
vn -0.970402 0.000027 0.241497
vn -0.984321 -0.000039 0.176388
vn -0.992717 -0.002777 0.120435
vn -0.996249 0.000328 0.086530
vn -0.987784 0.002348 0.155812
vn -0.992494 -0.000021 0.122295
vn -0.987783 -0.002593 0.155812
vn -0.975010 0.001937 0.222153
vn -0.970402 -0.000027 0.241497
vn -0.984321 0.000039 0.176388
vn -0.993083 0.002498 0.117389
vn -0.987783 -0.002597 0.155812
vn -0.996249 -0.000328 0.086530
vn -0.992494 0.000021 0.122295
vn -0.987783 0.002593 0.155812
vn -0.000000 1.000000 0.000000
vn -0.000000 1.000000 0.000000
vn -0.000000 1.000000 0.000000
vn 0.000000 1.000000 0.000000
vn 0.000000 1.000000 0.000000
vn -0.995358 0.000000 0.096243
vn -0.971456 0.000000 0.237220
vn -0.971456 0.000000 0.237220
vn -0.994515 0.000033 0.104591
vn -0.984587 0.000078 0.174894
vn -0.989853 -0.000020 0.142094
vn -0.982925 0.000000 0.184007
vn -0.982925 0.000000 0.184007
vn -0.990137 0.000000 0.140105
vn -0.994515 -0.000033 0.104591
vn -0.989853 0.000020 0.142094
vn -0.984587 -0.000078 0.174894
vn -0.970349 -0.000033 0.241709
vn -0.985066 0.000039 0.172179
vn -0.970349 0.000033 0.241709
vn -0.985066 -0.000039 0.172179
vn -0.984582 -0.000050 0.174924
vn -0.984582 0.000050 0.174924
vn -0.974180 0.001570 0.225768
vn -0.970402 -0.000027 0.241497
vn -0.984321 0.000039 0.176388
vn -0.992717 0.002777 0.120435
vn -0.996249 -0.000328 0.086530
vn -0.987784 -0.002348 0.155812
vn -0.992494 0.000021 0.122295
vn -0.987783 0.002593 0.155812
vn -0.975010 -0.001937 0.222153
vn -0.970402 0.000027 0.241497
vn -0.984321 -0.000039 0.176388
vn -0.993083 -0.002498 0.117389
vn -0.987783 0.002597 0.155812
vn -0.996249 0.000328 0.086530
vn -0.992494 -0.000021 0.122295
vn -0.987783 -0.002593 0.155812
vn 0.000000 -1.000000 0.000000
vn 0.000000 -1.000000 0.000000
vn 0.000000 -1.000000 0.000000
vn -0.000000 -1.000000 0.000000
vn 0.000000 -1.000000 0.000000
vn -0.991259 -0.000000 -0.131932
vn -0.987182 -0.000037 -0.159597
vn -0.955898 -0.000015 -0.293698
vn -0.973523 0.000020 -0.228590
vn -0.911404 0.000000 -0.411513
vn -0.925336 0.000030 -0.379147
vn -0.991259 0.000000 -0.131932
vn -0.987182 0.000037 -0.159597
vn -0.955898 0.000015 -0.293698
vn -0.973523 -0.000020 -0.228590
vn -0.911404 0.000000 -0.411513
vn -0.925336 -0.000030 -0.379147
vn 0.707108 0.000000 0.707106
vn 0.707108 -0.000000 0.707106
vn 0.707108 0.000000 0.707106
vn 0.707108 -0.000000 0.707106
vn 0.707108 0.000000 -0.707106
vn 0.707108 0.000000 -0.707106
vn 0.707108 0.000000 -0.707106
vn 0.707108 0.000000 -0.707106
vn -0.995358 0.000000 0.096243
vn -0.971456 0.000000 0.237220
vn -0.971456 0.000000 0.237220
vn -0.994515 -0.000033 0.104591
vn -0.984587 -0.000078 0.174894
vn -0.989853 0.000020 0.142094
vn -0.982925 0.000000 0.184007
vn -0.982925 0.000000 0.184007
vn -0.990137 0.000000 0.140105
vn -0.994515 0.000033 0.104591
vn -0.989853 -0.000020 0.142094
vn -0.984587 0.000078 0.174894
vn -0.970349 0.000033 0.241709
vn -0.985066 -0.000039 0.172179
vn -0.970349 -0.000033 0.241709
vn -0.985066 0.000039 0.172179
vn -0.984582 0.000050 0.174924
vn -0.984582 -0.000050 0.174924
vn -0.974180 -0.001570 0.225768
vn -0.970402 0.000027 0.241497
vn -0.984321 -0.000039 0.176388
vn -0.992717 -0.002777 0.120435
vn -0.996249 0.000328 0.086530
vn -0.987784 0.002348 0.155812
vn -0.992494 -0.000021 0.122295
vn -0.987783 -0.002593 0.155812
vn -0.975010 0.001937 0.222153
vn -0.970402 -0.000027 0.241497
vn -0.984321 0.000039 0.176388
vn -0.993083 0.002498 0.117389
vn -0.987783 -0.002597 0.155812
vn -0.996249 -0.000328 0.086530
vn -0.992494 0.000021 0.122295
vn -0.987783 0.002593 0.155812
vn -0.000000 1.000000 0.000000
vn -0.000000 1.000000 0.000000
vn -0.000000 1.000000 0.000000
vn 0.000000 1.000000 0.000000
vn 0.000000 1.000000 0.000000
vn -0.995358 0.000000 0.096243
vn -0.971456 0.000000 0.237220
vn -0.971456 0.000000 0.237220
vn -0.994515 0.000033 0.104591
vn -0.984587 0.000078 0.174894
vn -0.989853 -0.000020 0.142094
vn -0.982925 0.000000 0.184007
vn -0.982925 0.000000 0.184007
vn -0.990137 0.000000 0.140105
vn -0.994515 -0.000033 0.104591
vn -0.989853 0.000020 0.142094
vn -0.984587 -0.000078 0.174894
vn -0.970349 -0.000033 0.241709
vn -0.985066 0.000039 0.172179
vn -0.970349 0.000033 0.241709
vn -0.985066 -0.000039 0.172179
vn -0.984582 -0.000050 0.174924
vn -0.984582 0.000050 0.174924
vn -0.974180 0.001570 0.225768
vn -0.970402 -0.000027 0.241497
vn -0.984321 0.000039 0.176388
vn -0.992717 0.002777 0.120435
vn -0.996249 -0.000328 0.086530
vn -0.987784 -0.002348 0.155812
vn -0.992494 0.000021 0.122295
vn -0.987783 0.002593 0.155812
vn -0.975010 -0.001937 0.222153
vn -0.970402 0.000027 0.241497
vn -0.984321 -0.000039 0.176388
vn -0.993083 -0.002498 0.117389
vn -0.987783 0.002597 0.155812
vn -0.996249 0.000328 0.086530
vn -0.992494 -0.000021 0.122295
vn -0.987783 -0.002593 0.155812
vn 0.000000 -1.000000 0.000000
vn 0.000000 -1.000000 0.000000
vn 0.000000 -1.000000 0.000000
vn -0.000000 -1.000000 0.000000
vn 0.000000 -1.000000 0.000000
vn -0.991259 -0.000000 -0.131932
vn -0.987182 -0.000037 -0.159597
vn -0.955898 -0.000015 -0.293698
vn -0.973523 0.000020 -0.228590
vn -0.911404 0.000000 -0.411513
vn -0.925336 0.000030 -0.379147
vn -0.991259 0.000000 -0.131932
vn -0.987182 0.000037 -0.159597
vn -0.955898 0.000015 -0.293698
vn -0.973523 -0.000020 -0.228590
vn -0.911404 0.000000 -0.411513
vn -0.925336 -0.000030 -0.379147
vn 0.707108 0.000000 0.707106
vn 0.707108 -0.000000 0.707106
vn 0.707108 0.000000 0.707106
vn 0.707108 -0.000000 0.707106
vn 0.707108 0.000000 -0.707106
vn 0.707108 0.000000 -0.707106
vn 0.707108 0.000000 -0.707106
vn 0.707108 0.000000 -0.707106
g MeshExport007
f 1//1 2//1 3//1
f 4//2 5//2 6//2
f 6//3 5//3 7//3
f 1//4 8//4 2//4
f 7//5 9//5 8//5
f 8//6 9//6 2//6
f 5//7 10//7 7//7
f 7//8 10//8 9//8
f 9//9 10//9 2//9
f 2//10 11//10 3//10
f 10//11 11//11 2//11
f 5//12 11//12 10//12
f 7//13 12//13 6//13
f 8//14 12//14 7//14
f 4//15 13//15 5//15
f 5//16 13//16 11//16
f 8//17 14//17 12//17
f 13//18 15//18 11//18
f 6//19 16//19 17//19
f 12//20 16//20 6//20
f 14//21 16//21 12//21
f 17//22 18//22 1//22
f 1//23 18//23 8//23
f 16//24 18//24 17//24
f 8//25 18//25 14//25
f 14//26 18//26 16//26
f 19//27 20//27 4//27
f 4//28 20//28 13//28
f 13//29 20//29 15//29
f 3//30 21//30 19//30
f 19//31 21//31 20//31
f 11//32 21//32 3//32
f 15//33 21//33 11//33
f 20//34 21//34 15//34
f 22//35 23//35 24//35
f 25//36 23//36 22//36
f 3//37 23//37 25//37
f 19//38 23//38 3//38
f 4//39 23//39 19//39
f 26//40 1//40 27//40
f 28//41 29//41 6//41
f 28//42 6//42 30//42
f 31//43 1//43 26//43
f 32//44 30//44 31//44
f 32//45 31//45 26//45
f 33//46 28//46 30//46
f 33//47 30//47 32//47
f 33//48 32//48 26//48
f 34//49 26//49 27//49
f 34//50 33//50 26//50
f 34//51 28//51 33//51
f 35//52 30//52 6//52
f 35//53 31//53 30//53
f 36//54 29//54 28//54
f 36//55 28//55 34//55
f 37//56 31//56 35//56
f 38//57 36//57 34//57
f 39//58 6//58 17//58
f 39//59 35//59 6//59
f 39//60 37//60 35//60
f 40//61 17//61 1//61
f 40//62 1//62 31//62
f 40//63 39//63 17//63
f 40//64 31//64 37//64
f 40//65 37//65 39//65
f 41//66 42//66 29//66
f 41//67 29//67 36//67
f 41//68 36//68 38//68
f 43//69 27//69 42//69
f 43//70 42//70 41//70
f 43//71 34//71 27//71
f 43//72 38//72 34//72
f 43//73 41//73 38//73
f 44//74 45//74 46//74
f 44//75 47//75 45//75
f 44//76 27//76 47//76
f 44//77 42//77 27//77
f 44//78 29//78 42//78
f 3//79 25//79 1//79
f 1//80 25//80 48//80
f 48//81 22//81 49//81
f 25//82 22//82 48//82
f 49//83 24//83 50//83
f 22//84 24//84 49//84
f 47//85 27//85 1//85
f 47//86 1//86 48//86
f 45//87 48//87 49//87
f 45//88 47//88 48//88
f 46//89 49//89 50//89
f 46//90 45//90 49//90
f 6//91 51//91 23//91
f 6//92 23//92 4//92
f 29//93 44//93 51//93
f 29//94 51//94 6//94
f 51//95 50//95 24//95
f 51//96 24//96 23//96
f 44//97 46//97 50//97
f 44//98 50//98 51//98
g MeshExport008
g MeshExport009
g MeshExport010
g MeshExport011
g MeshExport012
g MeshExport013
g MeshExport014
g MeshExport015
f 52//99 53//99 54//99
f 55//100 56//100 57//100
f 57//101 56//101 58//101
f 52//102 59//102 53//102
f 58//103 60//103 59//103
f 59//104 60//104 53//104
f 56//105 61//105 58//105
f 58//106 61//106 60//106
f 60//107 61//107 53//107
f 53//108 62//108 54//108
f 61//109 62//109 53//109
f 56//110 62//110 61//110
f 58//111 63//111 57//111
f 59//112 63//112 58//112
f 55//113 64//113 56//113
f 56//114 64//114 62//114
f 59//115 65//115 63//115
f 64//116 66//116 62//116
f 57//117 67//117 68//117
f 63//118 67//118 57//118
f 65//119 67//119 63//119
f 68//120 69//120 52//120
f 52//121 69//121 59//121
f 67//122 69//122 68//122
f 59//123 69//123 65//123
f 65//124 69//124 67//124
f 70//125 71//125 55//125
f 55//126 71//126 64//126
f 64//127 71//127 66//127
f 54//128 72//128 70//128
f 70//129 72//129 71//129
f 62//130 72//130 54//130
f 66//131 72//131 62//131
f 71//132 72//132 66//132
f 73//133 74//133 75//133
f 76//134 74//134 73//134
f 54//135 74//135 76//135
f 70//136 74//136 54//136
f 55//137 74//137 70//137
f 77//138 52//138 78//138
f 79//139 80//139 57//139
f 79//140 57//140 81//140
f 82//141 52//141 77//141
f 83//142 81//142 82//142
f 83//143 82//143 77//143
f 84//144 79//144 81//144
f 84//145 81//145 83//145
f 84//146 83//146 77//146
f 85//147 77//147 78//147
f 85//148 84//148 77//148
f 85//149 79//149 84//149
f 86//150 81//150 57//150
f 86//151 82//151 81//151
f 87//152 80//152 79//152
f 87//153 79//153 85//153
f 88//154 82//154 86//154
f 89//155 87//155 85//155
f 90//156 57//156 68//156
f 90//157 86//157 57//157
f 90//158 88//158 86//158
f 91//159 68//159 52//159
f 91//160 52//160 82//160
f 91//161 90//161 68//161
f 91//162 82//162 88//162
f 91//163 88//163 90//163
f 92//164 93//164 80//164
f 92//165 80//165 87//165
f 92//166 87//166 89//166
f 94//167 78//167 93//167
f 94//168 93//168 92//168
f 94//169 85//169 78//169
f 94//170 89//170 85//170
f 94//171 92//171 89//171
f 95//172 96//172 97//172
f 95//173 98//173 96//173
f 95//174 78//174 98//174
f 95//175 93//175 78//175
f 95//176 80//176 93//176
f 54//177 76//177 52//177
f 52//178 76//178 99//178
f 99//179 73//179 100//179
f 76//180 73//180 99//180
f 100//181 75//181 101//181
f 73//182 75//182 100//182
f 98//183 78//183 52//183
f 98//184 52//184 99//184
f 96//185 99//185 100//185
f 96//186 98//186 99//186
f 97//187 100//187 101//187
f 97//188 96//188 100//188
f 57//189 102//189 74//189
f 57//190 74//190 55//190
f 80//191 95//191 102//191
f 80//192 102//192 57//192
f 102//193 101//193 75//193
f 102//194 75//194 74//194
f 95//195 97//195 101//195
f 95//196 101//196 102//196
